<?xml version="1.0" encoding="UTF-8"?>
<svg height="600" width="800" xmlns="http://www.w3.org/2000/svg" xmlns:xlink="http://www.w3.org/1999/xlink">
    <g id="Notes" font-family="'LucidaGrande', 'Lucida Grande', sans-serif" font-size="13">
        <rect fill="white" height="600.0" width="800.0" x="0.0" y="0.0" />
        <g font-size="13">
            <text x="18.0" y="176.0">Small</text>
            <text x="18.0" y="376.0">Medium</text>
            <text x="18.0" y="576.0">Large</text>
        </g>
        <g font-size="9">
            <text x="250.0" y="30.0">Ultralight</text>
            <text x="450.0" y="30.0">Regular</text>
            <text x="650.0" y="30.0">Black</text>
            <text id="template-version" fill="#505050" text-anchor="end" x="785.0" y="575.0">Template v.3.0</text>
            <a href="https://github.com/swhitty/SwiftDraw">
                <text fill="#505050" text-anchor="end" x="785.0" y="590.0">https://github.com/swhitty/SwiftDraw</text>
            </a>
        </g>
    </g>
    <g id="Guides" stroke="rgb(39, 170, 225)" stroke-width="0.5">
        <path id="Capline-S" d="M18,76 l800,0" />
        <path id="H-reference" d="M85,145.755 L87.685,145.755 L113.369,79.287 L114.052,79.287 L114.052,76 L112.148,76 L85,145.755 Z M95.693,121.536 L130.996,121.536 L130.263,119.313 L96.474,119.313 L95.693,121.536 Z M139.15,145.755 L141.787,145.755 L114.638,76 L113.466,76 L113.466,79.287 L139.15,145.755 Z" stroke="none" />
        <path id="Baseline-S" d="M18,146 l800,0" />
        <path id="left-margin-Ultralight-S" d="M220,56 l0,110" />
        <path id="right-margin-Ultralight-S" d="M310,56 l0,110" />
        <path id="left-margin-Regular-S" d="M420,56 l0,110" />
        <path id="right-margin-Regular-S" d="M510,56 l0,110" />
        <path id="left-margin-Black-S" d="M620,56 l0,110" />
        <path id="right-margin-Black-S" d="M710,56 l0,110" />
        <path id="Capline-M" d="M18,276 l800,0" />
        <path id="Baseline-M" d="M18,346 l800,0" />
        <path id="Capline-L" d="M18,476 l800,0" />
        <path id="Baseline-L" d="M18,546 l800,0" />
    </g>
    <g id="Symbols">
        <g id="Ultralight-S">
            <path d="M236.364,111 C236.364,95.185 249.185,82.364 265,82.364 C280.815,82.364 293.636,95.185 293.636,111 C293.636,126.815 280.815,139.636 265,139.636 C249.185,139.636 236.364,126.815 236.364,111 Z M230,111 C230,130.33 245.67,146 265,146 C284.33,146 300,130.33 300,111 C300,91.67 284.33,76 265,76 C245.67,76 230,91.67 230,111 Z" />
            <path d="M272.296,99.205 L253.205,118.296 C251.962,119.538 251.962,121.553 253.205,122.795 C254.447,124.038 256.462,124.038 257.704,122.795 L276.795,103.704 C278.038,102.462 278.038,100.447 276.795,99.205 C275.553,97.962 273.538,97.962 272.296,99.205 Z" />
            <path d="M253.205,103.704 L272.296,122.795 C273.538,124.038 275.553,124.038 276.795,122.795 C278.038,121.553 278.038,119.538 276.795,118.296 L257.704,99.205 C256.462,97.962 254.447,97.962 253.205,99.205 C251.962,100.447 251.962,102.462 253.205,103.704 Z" />
        </g>
        <g id="Regular-S">
            <path d="M436.364,111 C436.364,95.185 449.185,82.364 465,82.364 C480.815,82.364 493.636,95.185 493.636,111 C493.636,126.815 480.815,139.636 465,139.636 C449.185,139.636 436.364,126.815 436.364,111 Z M430,111 C430,130.33 445.67,146 465,146 C484.33,146 500,130.33 500,111 C500,91.67 484.33,76 465,76 C445.67,76 430,91.67 430,111 Z" />
            <path d="M472.296,99.205 L453.205,118.296 C451.962,119.538 451.962,121.553 453.205,122.795 C454.447,124.038 456.462,124.038 457.704,122.795 L476.795,103.704 C478.038,102.462 478.038,100.447 476.795,99.205 C475.553,97.962 473.538,97.962 472.296,99.205 Z" />
            <path d="M453.205,103.704 L472.296,122.795 C473.538,124.038 475.553,124.038 476.795,122.795 C478.038,121.553 478.038,119.538 476.795,118.296 L457.704,99.205 C456.462,97.962 454.447,97.962 453.205,99.205 C451.962,100.447 451.962,102.462 453.205,103.704 Z" />
        </g>
        <g id="Black-S">
            <path d="M636.364,111 C636.364,95.185 649.185,82.364 665,82.364 C680.815,82.364 693.636,95.185 693.636,111 C693.636,126.815 680.815,139.636 665,139.636 C649.185,139.636 636.364,126.815 636.364,111 Z M630,111 C630,130.33 645.67,146 665,146 C684.33,146 700,130.33 700,111 C700,91.67 684.33,76 665,76 C645.67,76 630,91.67 630,111 Z" />
            <path d="M672.296,99.205 L653.205,118.296 C651.962,119.538 651.962,121.553 653.205,122.795 C654.447,124.038 656.462,124.038 657.704,122.795 L676.795,103.704 C678.038,102.462 678.038,100.447 676.795,99.205 C675.553,97.962 673.538,97.962 672.296,99.205 Z" />
            <path d="M653.205,103.704 L672.296,122.795 C673.538,124.038 675.553,124.038 676.795,122.795 C678.038,121.553 678.038,119.538 676.795,118.296 L657.704,99.205 C656.462,97.962 654.447,97.962 653.205,99.205 C651.962,100.447 651.962,102.462 653.205,103.704 Z" />
        </g>
    </g>
</svg>