<?xml version="1.0" encoding="UTF-8"?>
<svg height="600" width="800" xmlns="http://www.w3.org/2000/svg" xmlns:xlink="http://www.w3.org/1999/xlink">
    <g id="Notes" font-family="'LucidaGrande', 'Lucida Grande', sans-serif" font-size="13">
        <rect fill="white" height="600.0" width="800.0" x="0.0" y="0.0" />
        <g font-size="13">
            <text x="18.0" y="176.0">Small</text>
            <text x="18.0" y="376.0">Medium</text>
            <text x="18.0" y="576.0">Large</text>
        </g>
        <g font-size="9">
            <text x="250.0" y="30.0">Ultralight</text>
            <text x="450.0" y="30.0">Regular</text>
            <text x="650.0" y="30.0">Black</text>
            <text id="template-version" fill="#505050" text-anchor="end" x="785.0" y="575.0">Template v.3.0</text>
            <a href="https://github.com/swhitty/SwiftDraw">
                <text fill="#505050" text-anchor="end" x="785.0" y="590.0">https://github.com/swhitty/SwiftDraw</text>
            </a>
        </g>
    </g>
    <g id="Guides" stroke="rgb(39, 170, 225)" stroke-width="0.5">
        <path id="Capline-S" d="M18,76 l800,0" />
        <path id="H-reference" d="M85,145.755 L87.685,145.755 L113.369,79.287 L114.052,79.287 L114.052,76 L112.148,76 L85,145.755 Z M95.693,121.536 L130.996,121.536 L130.263,119.313 L96.474,119.313 L95.693,121.536 Z M139.15,145.755 L141.787,145.755 L114.638,76 L113.466,76 L113.466,79.287 L139.15,145.755 Z" stroke="none" />
        <path id="Baseline-S" d="M18,146 l800,0" />
        <path id="left-margin-Ultralight-S" d="M220,56 l0,110" />
        <path id="right-margin-Ultralight-S" d="M310,56 l0,110" />
        <path id="left-margin-Regular-S" d="M420,56 l0,110" />
        <path id="right-margin-Regular-S" d="M510,56 l0,110" />
        <path id="left-margin-Black-S" d="M620,56 l0,110" />
        <path id="right-margin-Black-S" d="M710,56 l0,110" />
        <path id="Capline-M" d="M18,276 l800,0" />
        <path id="Baseline-M" d="M18,346 l800,0" />
        <path id="Capline-L" d="M18,476 l800,0" />
        <path id="Baseline-L" d="M18,546 l800,0" />
    </g>
    <g id="Symbols">
        <g id="Ultralight-S">
            <path d="M230,111 C230,130.33 245.67,146 265,146 C284.33,146 300,130.33 300,111 C300,91.67 284.33,76 265,76 C255.277,76.037 245.958,79.825 238.977,86.574 L231.025,94.525 C229.658,95.892 229.658,98.108 231.025,99.475 C232.392,100.842 234.608,100.842 235.975,99.475 L243.885,91.565 C249.525,86.113 257.11,83.03 265.013,83 C280.464,83 293,95.536 293,111 C293,126.464 280.464,139 265,139 C249.536,139 237,126.464 237,111 C237,109.067 235.433,107.5 233.5,107.5 C231.567,107.5 230,109.067 230,111 Z" />
            <path d="M230,79.5 L230,97 C230,98.933 231.567,100.5 233.5,100.5 L251,100.5 C252.933,100.5 254.5,98.933 254.5,97 C254.5,95.067 252.933,93.5 251,93.5 L233.5,93.5 L237,97 L237,79.5 C237,77.567 235.433,76 233.5,76 C231.567,76 230,77.567 230,79.5 Z" />
        </g>
        <g id="Regular-S">
            <path d="M430,111 C430,130.33 445.67,146 465,146 C484.33,146 500,130.33 500,111 C500,91.67 484.33,76 465,76 C455.277,76.037 445.958,79.825 438.977,86.574 L431.025,94.525 C429.658,95.892 429.658,98.108 431.025,99.475 C432.392,100.842 434.608,100.842 435.975,99.475 L443.885,91.565 C449.525,86.113 457.11,83.03 465.013,83 C480.464,83 493,95.536 493,111 C493,126.464 480.464,139 465,139 C449.536,139 437,126.464 437,111 C437,109.067 435.433,107.5 433.5,107.5 C431.567,107.5 430,109.067 430,111 Z" />
            <path d="M430,79.5 L430,97 C430,98.933 431.567,100.5 433.5,100.5 L451,100.5 C452.933,100.5 454.5,98.933 454.5,97 C454.5,95.067 452.933,93.5 451,93.5 L433.5,93.5 L437,97 L437,79.5 C437,77.567 435.433,76 433.5,76 C431.567,76 430,77.567 430,79.5 Z" />
        </g>
        <g id="Black-S">
            <path d="M630,111 C630,130.33 645.67,146 665,146 C684.33,146 700,130.33 700,111 C700,91.67 684.33,76 665,76 C655.277,76.037 645.958,79.825 638.977,86.574 L631.025,94.525 C629.658,95.892 629.658,98.108 631.025,99.475 C632.392,100.842 634.608,100.842 635.975,99.475 L643.885,91.565 C649.525,86.113 657.11,83.03 665.013,83 C680.464,83 693,95.536 693,111 C693,126.464 680.464,139 665,139 C649.536,139 637,126.464 637,111 C637,109.067 635.433,107.5 633.5,107.5 C631.567,107.5 630,109.067 630,111 Z" />
            <path d="M630,79.5 L630,97 C630,98.933 631.567,100.5 633.5,100.5 L651,100.5 C652.933,100.5 654.5,98.933 654.5,97 C654.5,95.067 652.933,93.5 651,93.5 L633.5,93.5 L637,97 L637,79.5 C637,77.567 635.433,76 633.5,76 C631.567,76 630,77.567 630,79.5 Z" />
        </g>
    </g>
</svg>