<?xml version="1.0" encoding="UTF-8"?>
<svg height="600" width="800" xmlns="http://www.w3.org/2000/svg" xmlns:xlink="http://www.w3.org/1999/xlink">
    <g id="Notes" font-family="'LucidaGrande', 'Lucida Grande', sans-serif" font-size="13">
        <rect fill="white" height="600.0" width="800.0" x="0.0" y="0.0" />
        <g font-size="13">
            <text x="18.0" y="176.0">Small</text>
            <text x="18.0" y="376.0">Medium</text>
            <text x="18.0" y="576.0">Large</text>
        </g>
        <g font-size="9">
            <text x="250.0" y="30.0">Ultralight</text>
            <text x="450.0" y="30.0">Regular</text>
            <text x="650.0" y="30.0">Black</text>
            <text id="template-version" fill="#505050" text-anchor="end" x="785.0" y="575.0">Template v.3.0</text>
            <a href="https://github.com/swhitty/SwiftDraw">
                <text fill="#505050" text-anchor="end" x="785.0" y="590.0">https://github.com/swhitty/SwiftDraw</text>
            </a>
        </g>
    </g>
    <g id="Guides" stroke="rgb(39, 170, 225)" stroke-width="0.5">
        <path id="Capline-S" d="M18,76 l800,0" />
        <path id="H-reference" d="M85,145.755 L87.685,145.755 L113.369,79.287 L114.052,79.287 L114.052,76 L112.148,76 L85,145.755 Z M95.693,121.536 L130.996,121.536 L130.263,119.313 L96.474,119.313 L95.693,121.536 Z M139.15,145.755 L141.787,145.755 L114.638,76 L113.466,76 L113.466,79.287 L139.15,145.755 Z" stroke="none" />
        <path id="Baseline-S" d="M18,146 l800,0" />
        <path id="left-margin-Ultralight-S" d="M220,56 l0,110" />
        <path id="right-margin-Ultralight-S" d="M310,56 l0,110" />
        <path id="left-margin-Regular-S" d="M420,56 l0,110" />
        <path id="right-margin-Regular-S" d="M510,56 l0,110" />
        <path id="left-margin-Black-S" d="M620,56 l0,110" />
        <path id="right-margin-Black-S" d="M710,56 l0,110" />
        <path id="Capline-M" d="M18,276 l800,0" />
        <path id="Baseline-M" d="M18,346 l800,0" />
        <path id="Capline-L" d="M18,476 l800,0" />
        <path id="Baseline-L" d="M18,546 l800,0" />
    </g>
    <g id="Symbols">
        <g id="Ultralight-S">
            <path d="M236.364,111 C236.364,95.185 249.185,82.364 265,82.364 C280.815,82.364 293.636,95.185 293.636,111 C293.636,126.815 280.815,139.636 265,139.636 C249.185,139.636 236.364,126.815 236.364,111 Z M230,111 C230,130.33 245.67,146 265,146 C284.33,146 300,130.33 300,111 C300,91.67 284.33,76 265,76 C245.67,76 230,91.67 230,111 Z" />
            <path d="M280.909,114.182 L280.941,114.182 C282.698,114.182 284.123,112.757 284.123,111 C284.123,109.243 282.698,107.818 280.941,107.818 L280.909,107.818 C279.152,107.818 277.727,109.243 277.727,111 C277.727,112.757 279.152,114.182 280.909,114.182 Z" />
            <path d="M265,114.182 L265.032,114.182 C266.789,114.182 268.214,112.757 268.214,111 C268.214,109.243 266.789,107.818 265.032,107.818 L265,107.818 C263.243,107.818 261.818,109.243 261.818,111 C261.818,112.757 263.243,114.182 265,114.182 Z" />
            <path d="M249.091,114.182 L249.123,114.182 C250.88,114.182 252.305,112.757 252.305,111 C252.305,109.243 250.88,107.818 249.123,107.818 L249.091,107.818 C247.334,107.818 245.909,109.243 245.909,111 C245.909,112.757 247.334,114.182 249.091,114.182 Z" />
        </g>
        <g id="Regular-S">
            <path d="M436.364,111 C436.364,95.185 449.185,82.364 465,82.364 C480.815,82.364 493.636,95.185 493.636,111 C493.636,126.815 480.815,139.636 465,139.636 C449.185,139.636 436.364,126.815 436.364,111 Z M430,111 C430,130.33 445.67,146 465,146 C484.33,146 500,130.33 500,111 C500,91.67 484.33,76 465,76 C445.67,76 430,91.67 430,111 Z" />
            <path d="M480.909,114.182 L480.941,114.182 C482.698,114.182 484.123,112.757 484.123,111 C484.123,109.243 482.698,107.818 480.941,107.818 L480.909,107.818 C479.152,107.818 477.727,109.243 477.727,111 C477.727,112.757 479.152,114.182 480.909,114.182 Z" />
            <path d="M465,114.182 L465.032,114.182 C466.789,114.182 468.214,112.757 468.214,111 C468.214,109.243 466.789,107.818 465.032,107.818 L465,107.818 C463.243,107.818 461.818,109.243 461.818,111 C461.818,112.757 463.243,114.182 465,114.182 Z" />
            <path d="M449.091,114.182 L449.123,114.182 C450.88,114.182 452.305,112.757 452.305,111 C452.305,109.243 450.88,107.818 449.123,107.818 L449.091,107.818 C447.334,107.818 445.909,109.243 445.909,111 C445.909,112.757 447.334,114.182 449.091,114.182 Z" />
        </g>
        <g id="Black-S">
            <path d="M636.364,111 C636.364,95.185 649.185,82.364 665,82.364 C680.815,82.364 693.636,95.185 693.636,111 C693.636,126.815 680.815,139.636 665,139.636 C649.185,139.636 636.364,126.815 636.364,111 Z M630,111 C630,130.33 645.67,146 665,146 C684.33,146 700,130.33 700,111 C700,91.67 684.33,76 665,76 C645.67,76 630,91.67 630,111 Z" />
            <path d="M680.909,114.182 L680.941,114.182 C682.698,114.182 684.123,112.757 684.123,111 C684.123,109.243 682.698,107.818 680.941,107.818 L680.909,107.818 C679.152,107.818 677.727,109.243 677.727,111 C677.727,112.757 679.152,114.182 680.909,114.182 Z" />
            <path d="M665,114.182 L665.032,114.182 C666.789,114.182 668.214,112.757 668.214,111 C668.214,109.243 666.789,107.818 665.032,107.818 L665,107.818 C663.243,107.818 661.818,109.243 661.818,111 C661.818,112.757 663.243,114.182 665,114.182 Z" />
            <path d="M649.091,114.182 L649.123,114.182 C650.88,114.182 652.305,112.757 652.305,111 C652.305,109.243 650.88,107.818 649.123,107.818 L649.091,107.818 C647.334,107.818 645.909,109.243 645.909,111 C645.909,112.757 647.334,114.182 649.091,114.182 Z" />
        </g>
    </g>
</svg>