<?xml version="1.0" encoding="UTF-8"?>
<svg height="600" width="800" xmlns="http://www.w3.org/2000/svg" xmlns:xlink="http://www.w3.org/1999/xlink">
    <g id="Notes" font-family="'LucidaGrande', 'Lucida Grande', sans-serif" font-size="13">
        <rect fill="white" height="600.0" width="800.0" x="0.0" y="0.0" />
        <g font-size="13">
            <text x="18.0" y="176.0">Small</text>
            <text x="18.0" y="376.0">Medium</text>
            <text x="18.0" y="576.0">Large</text>
        </g>
        <g font-size="9">
            <text x="250.0" y="30.0">Ultralight</text>
            <text x="450.0" y="30.0">Regular</text>
            <text x="650.0" y="30.0">Black</text>
            <text id="template-version" fill="#505050" text-anchor="end" x="785.0" y="575.0">Template v.3.0</text>
            <a href="https://github.com/swhitty/SwiftDraw">
                <text fill="#505050" text-anchor="end" x="785.0" y="590.0">https://github.com/swhitty/SwiftDraw</text>
            </a>
        </g>
    </g>
    <g id="Guides" stroke="rgb(39, 170, 225)" stroke-width="0.5">
        <path id="Capline-S" d="M18,76 l800,0" />
        <path id="H-reference" d="M85,145.755 L87.685,145.755 L113.369,79.287 L114.052,79.287 L114.052,76 L112.148,76 L85,145.755 Z M95.693,121.536 L130.996,121.536 L130.263,119.313 L96.474,119.313 L95.693,121.536 Z M139.15,145.755 L141.787,145.755 L114.638,76 L113.466,76 L113.466,79.287 L139.15,145.755 Z" stroke="none" />
        <path id="Baseline-S" d="M18,146 l800,0" />
        <path id="left-margin-Ultralight-S" d="M211,56 l0,110" />
        <path id="right-margin-Ultralight-S" d="M319,56 l0,110" />
        <path id="left-margin-Regular-S" d="M411,56 l0,110" />
        <path id="right-margin-Regular-S" d="M519,56 l0,110" />
        <path id="left-margin-Black-S" d="M611,56 l0,110" />
        <path id="right-margin-Black-S" d="M719,56 l0,110" />
        <path id="Capline-M" d="M18,276 l800,0" />
        <path id="Baseline-M" d="M18,346 l800,0" />
        <path id="Capline-L" d="M18,476 l800,0" />
        <path id="Baseline-L" d="M18,546 l800,0" />
    </g>
    <g id="Symbols">
        <g id="Ultralight-S">
            <path d="M265,111 C265,111 265,111 265,111 C265,111 265,111 265,111 C265,111 265,111 265,111 C265,111 265,111 265,111 Z M255.222,111 C255.222,116.4 259.6,120.778 265,120.778 C270.4,120.778 274.778,116.4 274.778,111 C274.778,105.6 270.4,101.222 265,101.222 C259.6,101.222 255.222,105.6 255.222,111 Z" />
            <path d="M299.222,111 C299.222,111 299.222,111 299.222,111 C299.222,111 299.222,111 299.222,111 C299.222,111 299.222,111 299.222,111 C299.222,111 299.222,111 299.222,111 Z M289.444,111 C289.444,116.4 293.822,120.778 299.222,120.778 C304.622,120.778 309,116.4 309,111 C309,105.6 304.622,101.222 299.222,101.222 C293.822,101.222 289.444,105.6 289.444,111 Z" />
            <path d="M230.778,111 C230.778,111 230.778,111 230.778,111 C230.778,111 230.778,111 230.778,111 C230.778,111 230.778,111 230.778,111 C230.778,111 230.778,111 230.778,111 Z M221,111 C221,116.4 225.378,120.778 230.778,120.778 C236.178,120.778 240.556,116.4 240.556,111 C240.556,105.6 236.178,101.222 230.778,101.222 C225.378,101.222 221,105.6 221,111 Z" />
        </g>
        <g id="Regular-S">
            <path d="M465,111 C465,111 465,111 465,111 C465,111 465,111 465,111 C465,111 465,111 465,111 C465,111 465,111 465,111 Z M455.222,111 C455.222,116.4 459.6,120.778 465,120.778 C470.4,120.778 474.778,116.4 474.778,111 C474.778,105.6 470.4,101.222 465,101.222 C459.6,101.222 455.222,105.6 455.222,111 Z" />
            <path d="M499.222,111 C499.222,111 499.222,111 499.222,111 C499.222,111 499.222,111 499.222,111 C499.222,111 499.222,111 499.222,111 C499.222,111 499.222,111 499.222,111 Z M489.444,111 C489.444,116.4 493.822,120.778 499.222,120.778 C504.622,120.778 509,116.4 509,111 C509,105.6 504.622,101.222 499.222,101.222 C493.822,101.222 489.444,105.6 489.444,111 Z" />
            <path d="M430.778,111 C430.778,111 430.778,111 430.778,111 C430.778,111 430.778,111 430.778,111 C430.778,111 430.778,111 430.778,111 C430.778,111 430.778,111 430.778,111 Z M421,111 C421,116.4 425.378,120.778 430.778,120.778 C436.178,120.778 440.556,116.4 440.556,111 C440.556,105.6 436.178,101.222 430.778,101.222 C425.378,101.222 421,105.6 421,111 Z" />
        </g>
        <g id="Black-S">
            <path d="M665,111 C665,111 665,111 665,111 C665,111 665,111 665,111 C665,111 665,111 665,111 C665,111 665,111 665,111 Z M655.222,111 C655.222,116.4 659.6,120.778 665,120.778 C670.4,120.778 674.778,116.4 674.778,111 C674.778,105.6 670.4,101.222 665,101.222 C659.6,101.222 655.222,105.6 655.222,111 Z" />
            <path d="M699.222,111 C699.222,111 699.222,111 699.222,111 C699.222,111 699.222,111 699.222,111 C699.222,111 699.222,111 699.222,111 C699.222,111 699.222,111 699.222,111 Z M689.444,111 C689.444,116.4 693.822,120.778 699.222,120.778 C704.622,120.778 709,116.4 709,111 C709,105.6 704.622,101.222 699.222,101.222 C693.822,101.222 689.444,105.6 689.444,111 Z" />
            <path d="M630.778,111 C630.778,111 630.778,111 630.778,111 C630.778,111 630.778,111 630.778,111 C630.778,111 630.778,111 630.778,111 C630.778,111 630.778,111 630.778,111 Z M621,111 C621,116.4 625.378,120.778 630.778,120.778 C636.178,120.778 640.556,116.4 640.556,111 C640.556,105.6 636.178,101.222 630.778,101.222 C625.378,101.222 621,105.6 621,111 Z" />
        </g>
    </g>
</svg>