<?xml version="1.0" encoding="UTF-8"?>
<svg height="600" width="800" xmlns="http://www.w3.org/2000/svg" xmlns:xlink="http://www.w3.org/1999/xlink">
    <g id="Notes" font-family="'LucidaGrande', 'Lucida Grande', sans-serif" font-size="13">
        <rect fill="white" height="600.0" width="800.0" x="0.0" y="0.0" />
        <g font-size="13">
            <text x="18.0" y="176.0">Small</text>
            <text x="18.0" y="376.0">Medium</text>
            <text x="18.0" y="576.0">Large</text>
        </g>
        <g font-size="9">
            <text x="250.0" y="30.0">Ultralight</text>
            <text x="450.0" y="30.0">Regular</text>
            <text x="650.0" y="30.0">Black</text>
            <text id="template-version" fill="#505050" text-anchor="end" x="785.0" y="575.0">Template v.3.0</text>
            <a href="https://github.com/swhitty/SwiftDraw">
                <text fill="#505050" text-anchor="end" x="785.0" y="590.0">https://github.com/swhitty/SwiftDraw</text>
            </a>
        </g>
    </g>
    <g id="Guides" stroke="rgb(39, 170, 225)" stroke-width="0.5">
        <path id="Capline-S" d="M18,76 l800,0" />
        <path id="H-reference" d="M85,145.755 L87.685,145.755 L113.369,79.287 L114.052,79.287 L114.052,76 L112.148,76 L85,145.755 Z M95.693,121.536 L130.996,121.536 L130.263,119.313 L96.474,119.313 L95.693,121.536 Z M139.15,145.755 L141.787,145.755 L114.638,76 L113.466,76 L113.466,79.287 L139.15,145.755 Z" stroke="none" />
        <path id="Baseline-S" d="M18,146 l800,0" />
        <path id="left-margin-Ultralight-S" d="M221,56 l0,110" />
        <path id="right-margin-Ultralight-S" d="M309,56 l0,110" />
        <path id="left-margin-Regular-S" d="M421,56 l0,110" />
        <path id="right-margin-Regular-S" d="M509,56 l0,110" />
        <path id="left-margin-Black-S" d="M621,56 l0,110" />
        <path id="right-margin-Black-S" d="M709,56 l0,110" />
        <path id="Capline-M" d="M18,276 l800,0" />
        <path id="Baseline-M" d="M18,346 l800,0" />
        <path id="Capline-L" d="M18,476 l800,0" />
        <path id="Baseline-L" d="M18,546 l800,0" />
    </g>
    <g id="Symbols">
        <g id="Ultralight-S">
            <path d="M293,142.5 L293,135.5 C293,130.859 291.156,126.408 287.874,123.126 C284.592,119.844 280.141,118 275.5,118 L254.5,118 C249.859,118 245.408,119.844 242.126,123.126 C238.844,126.408 237,130.859 237,135.5 L237,142.5 C237,144.433 238.567,146 240.5,146 C242.433,146 244,144.433 244,142.5 L244,135.5 C244,132.715 245.106,130.045 247.075,128.075 C249.045,126.106 251.715,125 254.5,125 L275.5,125 C278.285,125 280.955,126.106 282.925,128.075 C284.894,130.045 286,132.715 286,135.5 L286,142.5 C286,144.433 287.567,146 289.5,146 C291.433,146 293,144.433 293,142.5 Z" />
            <path d="M254.5,93.5 C254.5,87.701 259.201,83 265,83 C270.799,83 275.5,87.701 275.5,93.5 C275.5,99.299 270.799,104 265,104 C259.201,104 254.5,99.299 254.5,93.5 Z M247.5,93.5 C247.5,103.165 255.335,111 265,111 C274.665,111 282.5,103.165 282.5,93.5 C282.5,83.835 274.665,76 265,76 C255.335,76 247.5,83.835 247.5,93.5 Z" />
        </g>
        <g id="Regular-S">
            <path d="M493,142.5 L493,135.5 C493,130.859 491.156,126.408 487.874,123.126 C484.592,119.844 480.141,118 475.5,118 L454.5,118 C449.859,118 445.408,119.844 442.126,123.126 C438.844,126.408 437,130.859 437,135.5 L437,142.5 C437,144.433 438.567,146 440.5,146 C442.433,146 444,144.433 444,142.5 L444,135.5 C444,132.715 445.106,130.045 447.075,128.075 C449.045,126.106 451.715,125 454.5,125 L475.5,125 C478.285,125 480.955,126.106 482.925,128.075 C484.894,130.045 486,132.715 486,135.5 L486,142.5 C486,144.433 487.567,146 489.5,146 C491.433,146 493,144.433 493,142.5 Z" />
            <path d="M454.5,93.5 C454.5,87.701 459.201,83 465,83 C470.799,83 475.5,87.701 475.5,93.5 C475.5,99.299 470.799,104 465,104 C459.201,104 454.5,99.299 454.5,93.5 Z M447.5,93.5 C447.5,103.165 455.335,111 465,111 C474.665,111 482.5,103.165 482.5,93.5 C482.5,83.835 474.665,76 465,76 C455.335,76 447.5,83.835 447.5,93.5 Z" />
        </g>
        <g id="Black-S">
            <path d="M693,142.5 L693,135.5 C693,130.859 691.156,126.408 687.874,123.126 C684.592,119.844 680.141,118 675.5,118 L654.5,118 C649.859,118 645.408,119.844 642.126,123.126 C638.844,126.408 637,130.859 637,135.5 L637,142.5 C637,144.433 638.567,146 640.5,146 C642.433,146 644,144.433 644,142.5 L644,135.5 C644,132.715 645.106,130.045 647.075,128.075 C649.044,126.106 651.715,125 654.5,125 L675.5,125 C678.285,125 680.956,126.106 682.925,128.075 C684.894,130.045 686,132.715 686,135.5 L686,142.5 C686,144.433 687.567,146 689.5,146 C691.433,146 693,144.433 693,142.5 Z" />
            <path d="M654.5,93.5 C654.5,87.701 659.201,83 665,83 C670.799,83 675.5,87.701 675.5,93.5 C675.5,99.299 670.799,104 665,104 C659.201,104 654.5,99.299 654.5,93.5 Z M647.5,93.5 C647.5,103.165 655.335,111 665,111 C674.665,111 682.5,103.165 682.5,93.5 C682.5,83.835 674.665,76 665,76 C655.335,76 647.5,83.835 647.5,93.5 Z" />
        </g>
    </g>
</svg>