<?xml version="1.0" encoding="UTF-8"?>
<svg height="600" width="800" xmlns="http://www.w3.org/2000/svg" xmlns:xlink="http://www.w3.org/1999/xlink">
    <g id="Notes" font-family="'LucidaGrande', 'Lucida Grande', sans-serif" font-size="13">
        <rect fill="white" height="600.0" width="800.0" x="0.0" y="0.0" />
        <g font-size="13">
            <text x="18.0" y="176.0">Small</text>
            <text x="18.0" y="376.0">Medium</text>
            <text x="18.0" y="576.0">Large</text>
        </g>
        <g font-size="9">
            <text x="250.0" y="30.0">Ultralight</text>
            <text x="450.0" y="30.0">Regular</text>
            <text x="650.0" y="30.0">Black</text>
            <text id="template-version" fill="#505050" text-anchor="end" x="785.0" y="575.0">Template v.3.0</text>
            <a href="https://github.com/swhitty/SwiftDraw">
                <text fill="#505050" text-anchor="end" x="785.0" y="590.0">https://github.com/swhitty/SwiftDraw</text>
            </a>
        </g>
    </g>
    <g id="Guides" stroke="rgb(39, 170, 225)" stroke-width="0.5">
        <path id="Capline-S" d="M18,76 l800,0" />
        <path id="H-reference" d="M85,145.755 L87.685,145.755 L113.369,79.287 L114.052,79.287 L114.052,76 L112.148,76 L85,145.755 Z M95.693,121.536 L130.996,121.536 L130.263,119.313 L96.474,119.313 L95.693,121.536 Z M139.15,145.755 L141.787,145.755 L114.638,76 L113.466,76 L113.466,79.287 L139.15,145.755 Z" stroke="none" />
        <path id="Baseline-S" d="M18,146 l800,0" />
        <path id="left-margin-Ultralight-S" d="M221,56 l0,110" />
        <path id="right-margin-Ultralight-S" d="M309,56 l0,110" />
        <path id="left-margin-Regular-S" d="M421,56 l0,110" />
        <path id="right-margin-Regular-S" d="M509,56 l0,110" />
        <path id="left-margin-Black-S" d="M621,56 l0,110" />
        <path id="right-margin-Black-S" d="M709,56 l0,110" />
        <path id="Capline-M" d="M18,276 l800,0" />
        <path id="Baseline-M" d="M18,346 l800,0" />
        <path id="Capline-L" d="M18,476 l800,0" />
        <path id="Baseline-L" d="M18,546 l800,0" />
    </g>
    <g id="Symbols">
        <g id="Ultralight-S">
            <path d="M265.699,76 L264.299,76 C261.767,76 259.339,77.006 257.549,78.796 C255.759,80.586 254.753,83.014 254.753,85.545 L254.753,86.118 C254.752,87.251 254.146,88.299 253.162,88.867 L251.786,89.668 C250.809,90.231 249.597,90.231 248.612,89.663 L248.041,89.356 C243.573,86.777 237.743,88.336 235.104,92.892 L234.404,94.101 C231.771,98.666 233.329,104.496 237.886,107.135 L238.193,107.347 C239.345,108.021 239.951,109.062 239.958,110.192 L239.958,111.795 C239.962,112.949 239.355,114.006 238.367,114.576 L237.843,114.89 C233.329,117.504 231.771,123.334 234.401,127.894 L235.104,129.108 C237.743,133.665 243.573,135.223 248.134,132.593 L248.518,132.389 C249.597,131.769 250.809,131.769 251.794,132.337 L253.154,133.128 C254.146,133.701 254.752,134.75 254.753,135.885 L254.753,136.455 C254.753,138.986 255.759,141.414 257.549,143.204 C259.339,144.994 261.767,146 264.298,146 L265.698,146 C268.23,146 270.658,144.994 272.448,143.204 C274.238,141.414 275.244,138.986 275.244,136.455 L275.244,135.882 C275.245,134.749 275.851,133.701 276.835,133.133 L278.211,132.332 C279.188,131.769 280.4,131.769 281.385,132.337 L281.956,132.644 C286.424,135.223 292.254,133.664 294.893,129.108 L295.611,127.836 C298.226,123.302 296.668,117.472 292.111,114.833 L291.537,114.524 C290.642,114.006 290.035,112.949 290.039,111.808 L290.039,110.205 C290.035,109.051 290.642,107.994 291.63,107.424 L292.154,107.11 C296.668,104.496 298.226,98.666 295.596,94.106 L294.893,92.892 C292.254,88.335 286.424,86.777 281.863,89.407 L281.478,89.611 C280.4,90.231 279.188,90.231 278.203,89.663 L276.843,88.872 C275.851,88.299 275.245,87.25 275.244,86.115 L275.244,85.545 C275.244,83.014 274.238,80.586 272.448,78.796 C270.658,77.006 268.23,76 265.699,76 Z M265.699,82.364 C266.542,82.364 267.352,82.699 267.948,83.296 C268.545,83.892 268.88,84.702 268.88,85.545 L268.88,86.118 C268.884,89.528 270.703,92.675 273.653,94.378 L275.013,95.169 C277.975,96.879 281.613,96.879 284.567,95.174 L284.95,94.971 C286.563,94.043 288.506,94.562 289.386,96.081 L290.086,97.29 C290.96,98.806 290.441,100.749 288.922,101.628 L288.402,101.94 C285.483,103.624 283.662,106.793 283.676,110.217 L283.676,111.795 C283.662,115.207 285.483,118.375 288.449,120.087 L289.019,120.394 C290.441,121.219 290.96,123.163 290.083,124.683 L289.368,125.95 C288.506,127.438 286.563,127.957 285.043,127.08 L284.473,126.774 C281.613,125.121 277.975,125.121 275.021,126.826 L273.645,127.627 C270.703,129.325 268.884,132.472 268.88,135.879 L268.88,136.455 C268.88,137.298 268.545,138.108 267.948,138.704 C267.352,139.301 266.542,139.636 265.698,139.636 L264.298,139.636 C263.455,139.636 262.645,139.301 262.049,138.704 C261.452,138.108 261.117,137.298 261.117,136.455 L261.117,135.882 C261.113,132.472 259.294,129.325 256.344,127.622 L254.984,126.831 C252.022,125.121 248.384,125.121 245.43,126.826 L245.047,127.029 C243.434,127.957 241.49,127.438 240.611,125.919 L239.911,124.71 C239.037,123.194 239.556,121.251 241.075,120.372 L241.595,120.06 C244.514,118.376 246.335,115.207 246.321,111.783 L246.321,110.173 C246.301,106.764 244.484,103.639 241.548,101.944 L241.245,101.734 C239.556,100.749 239.037,98.806 239.914,97.285 L240.611,96.081 C241.491,94.562 243.434,94.043 244.954,94.92 L245.524,95.226 C248.384,96.879 252.022,96.879 254.976,95.174 L256.352,94.373 C259.294,92.675 261.113,89.528 261.117,86.121 L261.117,85.545 C261.117,84.702 261.452,83.892 262.049,83.296 C262.645,82.699 263.455,82.364 264.299,82.364 L265.699,82.364 Z" />
            <path d="M258.635,111 C258.635,107.485 261.484,104.636 264.999,104.636 C268.513,104.636 271.362,107.485 271.362,111 C271.362,114.515 268.513,117.364 264.999,117.364 C261.484,117.364 258.635,114.515 258.635,111 Z M252.271,111 C252.271,118.029 257.969,123.727 264.999,123.727 C272.028,123.727 277.726,118.029 277.726,111 C277.726,103.971 272.028,98.273 264.999,98.273 C257.969,98.273 252.271,103.971 252.271,111 Z" />
        </g>
        <g id="Regular-S">
            <path d="M465.699,76 L464.299,76 C461.767,76 459.339,77.006 457.549,78.796 C455.759,80.586 454.753,83.014 454.753,85.545 L454.753,86.118 C454.752,87.251 454.146,88.299 453.162,88.867 L451.786,89.668 C450.809,90.231 449.597,90.231 448.612,89.663 L448.041,89.356 C443.573,86.777 437.743,88.336 435.104,92.892 L434.404,94.101 C431.771,98.666 433.329,104.496 437.886,107.135 L438.193,107.347 C439.345,108.021 439.951,109.062 439.958,110.192 L439.958,111.795 C439.962,112.949 439.355,114.006 438.367,114.576 L437.843,114.89 C433.329,117.504 431.771,123.334 434.401,127.894 L435.104,129.108 C437.743,133.665 443.573,135.223 448.134,132.593 L448.519,132.389 C449.597,131.769 450.809,131.769 451.794,132.337 L453.154,133.128 C454.146,133.701 454.752,134.75 454.753,135.885 L454.753,136.455 C454.753,138.986 455.759,141.414 457.549,143.204 C459.339,144.994 461.767,146 464.298,146 L465.698,146 C468.23,146 470.658,144.994 472.448,143.204 C474.238,141.414 475.244,138.986 475.244,136.455 L475.244,135.882 C475.245,134.749 475.851,133.701 476.835,133.133 L478.211,132.332 C479.188,131.769 480.4,131.769 481.385,132.337 L481.956,132.644 C486.424,135.223 492.254,133.664 494.893,129.108 L495.611,127.836 C498.226,123.302 496.668,117.472 492.111,114.833 L491.537,114.524 C490.642,114.006 490.035,112.949 490.039,111.808 L490.039,110.205 C490.035,109.051 490.642,107.994 491.63,107.424 L492.154,107.11 C496.668,104.496 498.226,98.666 495.596,94.106 L494.893,92.892 C492.254,88.335 486.424,86.777 481.863,89.407 L481.478,89.611 C480.4,90.231 479.188,90.231 478.203,89.663 L476.843,88.872 C475.851,88.299 475.245,87.25 475.244,86.115 L475.244,85.545 C475.244,83.014 474.238,80.586 472.448,78.796 C470.658,77.006 468.23,76 465.699,76 Z M465.699,82.364 C466.542,82.364 467.352,82.699 467.948,83.296 C468.545,83.892 468.88,84.702 468.88,85.545 L468.88,86.118 C468.884,89.528 470.703,92.675 473.653,94.378 L475.013,95.169 C477.975,96.879 481.613,96.879 484.567,95.174 L484.95,94.971 C486.563,94.043 488.506,94.562 489.386,96.081 L490.086,97.29 C490.96,98.806 490.441,100.749 488.922,101.628 L488.402,101.94 C485.483,103.624 483.662,106.793 483.676,110.217 L483.676,111.795 C483.662,115.207 485.483,118.375 488.449,120.087 L489.019,120.394 C490.441,121.219 490.96,123.163 490.083,124.683 L489.368,125.95 C488.506,127.438 486.563,127.957 485.043,127.08 L484.473,126.774 C481.613,125.121 477.975,125.121 475.021,126.826 L473.645,127.627 C470.703,129.325 468.884,132.472 468.88,135.879 L468.88,136.455 C468.88,137.298 468.545,138.108 467.948,138.704 C467.352,139.301 466.542,139.636 465.698,139.636 L464.298,139.636 C463.455,139.636 462.645,139.301 462.049,138.704 C461.452,138.108 461.117,137.298 461.117,136.455 L461.117,135.882 C461.113,132.472 459.294,129.325 456.344,127.622 L454.984,126.831 C452.022,125.121 448.384,125.121 445.43,126.826 L445.047,127.029 C443.434,127.957 441.491,127.438 440.611,125.919 L439.911,124.71 C439.037,123.194 439.556,121.251 441.075,120.372 L441.595,120.06 C444.514,118.376 446.335,115.207 446.321,111.783 L446.321,110.173 C446.301,106.764 444.484,103.639 441.548,101.944 L441.245,101.734 C439.556,100.749 439.037,98.806 439.914,97.285 L440.611,96.081 C441.491,94.562 443.434,94.043 444.954,94.92 L445.524,95.226 C448.384,96.879 452.022,96.879 454.976,95.174 L456.352,94.373 C459.294,92.675 461.113,89.528 461.117,86.121 L461.117,85.545 C461.117,84.702 461.452,83.892 462.049,83.296 C462.645,82.699 463.455,82.364 464.299,82.364 L465.699,82.364 Z" />
            <path d="M458.635,111 C458.635,107.485 461.484,104.636 464.999,104.636 C468.513,104.636 471.362,107.485 471.362,111 C471.362,114.515 468.513,117.364 464.999,117.364 C461.484,117.364 458.635,114.515 458.635,111 Z M452.271,111 C452.271,118.029 457.969,123.727 464.999,123.727 C472.028,123.727 477.726,118.029 477.726,111 C477.726,103.971 472.028,98.273 464.999,98.273 C457.969,98.273 452.271,103.971 452.271,111 Z" />
        </g>
        <g id="Black-S">
            <path d="M665.699,76 L664.299,76 C661.767,76 659.339,77.006 657.549,78.796 C655.759,80.586 654.753,83.014 654.753,85.545 L654.753,86.118 C654.752,87.251 654.146,88.299 653.162,88.867 L651.786,89.668 C650.809,90.231 649.597,90.231 648.612,89.663 L648.041,89.356 C643.573,86.777 637.743,88.336 635.104,92.892 L634.404,94.101 C631.771,98.666 633.329,104.496 637.885,107.135 L638.193,107.347 C639.345,108.021 639.951,109.062 639.958,110.192 L639.958,111.795 C639.962,112.949 639.355,114.006 638.367,114.576 L637.843,114.89 C633.329,117.504 631.771,123.334 634.401,127.894 L635.104,129.108 C637.743,133.665 643.573,135.223 648.134,132.593 L648.518,132.389 C649.597,131.769 650.809,131.769 651.794,132.337 L653.154,133.128 C654.146,133.701 654.752,134.75 654.753,135.885 L654.753,136.455 C654.753,138.986 655.759,141.414 657.549,143.204 C659.339,144.994 661.767,146 664.298,146 L665.698,146 C668.23,146 670.658,144.994 672.448,143.204 C674.238,141.414 675.244,138.986 675.244,136.455 L675.244,135.882 C675.245,134.749 675.851,133.701 676.835,133.133 L678.211,132.332 C679.188,131.769 680.4,131.769 681.385,132.337 L681.956,132.644 C686.424,135.223 692.254,133.664 694.893,129.108 L695.611,127.836 C698.226,123.302 696.668,117.472 692.111,114.833 L691.537,114.524 C690.642,114.006 690.035,112.949 690.039,111.808 L690.039,110.205 C690.035,109.051 690.642,107.994 691.63,107.424 L692.154,107.11 C696.668,104.496 698.226,98.666 695.596,94.106 L694.893,92.892 C692.254,88.335 686.424,86.777 681.863,89.407 L681.478,89.611 C680.4,90.231 679.188,90.231 678.203,89.663 L676.843,88.872 C675.851,88.299 675.245,87.25 675.244,86.115 L675.244,85.545 C675.244,83.014 674.238,80.586 672.448,78.796 C670.658,77.006 668.23,76 665.699,76 Z M665.699,82.364 C666.542,82.364 667.352,82.699 667.948,83.296 C668.545,83.892 668.88,84.702 668.88,85.545 L668.88,86.118 C668.884,89.528 670.703,92.675 673.653,94.378 L675.013,95.169 C677.975,96.879 681.613,96.879 684.567,95.174 L684.95,94.971 C686.563,94.043 688.506,94.562 689.386,96.081 L690.086,97.29 C690.96,98.806 690.441,100.749 688.922,101.628 L688.402,101.94 C685.483,103.624 683.662,106.793 683.676,110.217 L683.676,111.795 C683.662,115.207 685.483,118.375 688.449,120.087 L689.019,120.394 C690.441,121.219 690.96,123.163 690.083,124.683 L689.368,125.95 C688.506,127.438 686.563,127.957 685.043,127.08 L684.473,126.774 C681.613,125.121 677.975,125.121 675.021,126.826 L673.645,127.627 C670.703,129.325 668.884,132.472 668.88,135.879 L668.88,136.455 C668.88,137.298 668.545,138.108 667.948,138.704 C667.352,139.301 666.542,139.636 665.698,139.636 L664.298,139.636 C663.455,139.636 662.645,139.301 662.049,138.704 C661.452,138.108 661.117,137.298 661.117,136.455 L661.117,135.882 C661.113,132.472 659.294,129.325 656.344,127.622 L654.984,126.831 C652.022,125.121 648.384,125.121 645.43,126.826 L645.047,127.029 C643.434,127.957 641.491,127.438 640.611,125.919 L639.911,124.71 C639.037,123.194 639.556,121.251 641.075,120.372 L641.595,120.06 C644.514,118.376 646.335,115.207 646.321,111.783 L646.321,110.173 C646.301,106.764 644.484,103.639 641.548,101.944 L641.245,101.734 C639.556,100.749 639.037,98.806 639.914,97.285 L640.611,96.081 C641.491,94.562 643.434,94.043 644.954,94.92 L645.524,95.226 C648.384,96.879 652.022,96.879 654.976,95.174 L656.352,94.373 C659.294,92.675 661.113,89.528 661.117,86.121 L661.117,85.545 C661.117,84.702 661.452,83.892 662.049,83.296 C662.645,82.699 663.455,82.364 664.299,82.364 L665.699,82.364 Z" />
            <path d="M658.635,111 C658.635,107.485 661.484,104.636 664.999,104.636 C668.513,104.636 671.362,107.485 671.362,111 C671.362,114.515 668.513,117.364 664.999,117.364 C661.484,117.364 658.635,114.515 658.635,111 Z M652.271,111 C652.271,118.029 657.969,123.727 664.999,123.727 C672.028,123.727 677.726,118.029 677.726,111 C677.726,103.971 672.028,98.273 664.999,98.273 C657.969,98.273 652.271,103.971 652.271,111 Z" />
        </g>
    </g>
</svg>