<?xml version="1.0" encoding="UTF-8"?>
<svg height="600" width="800" xmlns="http://www.w3.org/2000/svg" xmlns:xlink="http://www.w3.org/1999/xlink">
    <g id="Notes" font-family="'LucidaGrande', 'Lucida Grande', sans-serif" font-size="13">
        <rect fill="white" height="600.0" width="800.0" x="0.0" y="0.0" />
        <g font-size="13">
            <text x="18.0" y="176.0">Small</text>
            <text x="18.0" y="376.0">Medium</text>
            <text x="18.0" y="576.0">Large</text>
        </g>
        <g font-size="9">
            <text x="250.0" y="30.0">Ultralight</text>
            <text x="450.0" y="30.0">Regular</text>
            <text x="650.0" y="30.0">Black</text>
            <text id="template-version" fill="#505050" text-anchor="end" x="785.0" y="575.0">Template v.3.0</text>
            <a href="https://github.com/swhitty/SwiftDraw">
                <text fill="#505050" text-anchor="end" x="785.0" y="590.0">https://github.com/swhitty/SwiftDraw</text>
            </a>
        </g>
    </g>
    <g id="Guides" stroke="rgb(39, 170, 225)" stroke-width="0.5">
        <path id="Capline-S" d="M18,76 l800,0" />
        <path id="H-reference" d="M85,145.755 L87.685,145.755 L113.369,79.287 L114.052,79.287 L114.052,76 L112.148,76 L85,145.755 Z M95.693,121.536 L130.996,121.536 L130.263,119.313 L96.474,119.313 L95.693,121.536 Z M139.15,145.755 L141.787,145.755 L114.638,76 L113.466,76 L113.466,79.287 L139.15,145.755 Z" stroke="none" />
        <path id="Baseline-S" d="M18,146 l800,0" />
        <path id="left-margin-Ultralight-S" d="M220.002,56 l0,110" />
        <path id="right-margin-Ultralight-S" d="M309.998,56 l0,110" />
        <path id="left-margin-Regular-S" d="M420.002,56 l0,110" />
        <path id="right-margin-Regular-S" d="M509.998,56 l0,110" />
        <path id="left-margin-Black-S" d="M620.002,56 l0,110" />
        <path id="right-margin-Black-S" d="M709.998,56 l0,110" />
        <path id="Capline-M" d="M18,276 l800,0" />
        <path id="Baseline-M" d="M18,346 l800,0" />
        <path id="Capline-L" d="M18,476 l800,0" />
        <path id="Baseline-L" d="M18,546 l800,0" />
    </g>
    <g id="Symbols">
        <g id="Ultralight-S">
            <path d="M293.635,108.091 L293.635,111.018 C293.627,123.698 285.279,134.864 273.118,138.459 C260.957,142.054 247.88,137.223 240.978,126.584 C234.076,115.945 234.994,102.034 243.233,92.395 C251.473,82.755 265.072,79.683 276.655,84.844 C278.26,85.559 280.141,84.838 280.856,83.233 C281.571,81.628 280.85,79.747 279.245,79.032 C265.088,72.723 248.467,76.478 238.396,88.26 C228.326,100.042 227.204,117.044 235.64,130.047 C244.076,143.05 260.059,148.955 274.922,144.561 C289.786,140.167 299.989,126.52 299.998,111.02 L299.998,108.091 C299.998,106.333 298.573,104.909 296.816,104.909 C295.059,104.909 293.635,106.333 293.635,108.091 Z" />
            <path d="M253.206,110.086 L262.75,119.631 C263.993,120.873 266.007,120.873 267.25,119.631 L299.066,87.815 C300.308,86.572 300.308,84.558 299.066,83.315 C297.823,82.073 295.809,82.073 294.566,83.315 L262.75,115.131 L267.25,115.131 L257.705,105.586 C256.463,104.344 254.448,104.344 253.206,105.586 C251.963,106.829 251.963,108.843 253.206,110.086 Z" />
        </g>
        <g id="Regular-S">
            <path d="M493.635,108.091 L493.635,111.018 C493.627,123.698 485.279,134.864 473.118,138.459 C460.957,142.054 447.88,137.223 440.978,126.584 C434.076,115.945 434.994,102.034 443.233,92.395 C451.473,82.755 465.072,79.683 476.655,84.844 C478.26,85.559 480.141,84.838 480.856,83.233 C481.571,81.628 480.85,79.747 479.245,79.032 C465.088,72.723 448.467,76.478 438.396,88.26 C428.326,100.042 427.204,117.044 435.64,130.047 C444.076,143.05 460.059,148.955 474.922,144.561 C489.786,140.167 499.989,126.52 499.998,111.02 L499.998,108.091 C499.998,106.333 498.573,104.909 496.816,104.909 C495.059,104.909 493.635,106.333 493.635,108.091 Z" />
            <path d="M453.206,110.086 L462.75,119.631 C463.993,120.873 466.007,120.873 467.25,119.631 L499.066,87.815 C500.308,86.572 500.308,84.558 499.066,83.315 C497.823,82.073 495.809,82.073 494.566,83.315 L462.75,115.131 L467.25,115.131 L457.705,105.586 C456.463,104.344 454.448,104.344 453.206,105.586 C451.963,106.829 451.963,108.843 453.206,110.086 Z" />
        </g>
        <g id="Black-S">
            <path d="M693.635,108.091 L693.635,111.018 C693.627,123.698 685.279,134.864 673.118,138.459 C660.957,142.054 647.88,137.223 640.978,126.584 C634.076,115.945 634.994,102.034 643.233,92.395 C651.473,82.755 665.072,79.683 676.655,84.844 C678.26,85.559 680.141,84.838 680.856,83.233 C681.571,81.628 680.85,79.747 679.245,79.032 C665.088,72.723 648.467,76.478 638.396,88.26 C628.326,100.042 627.204,117.044 635.64,130.047 C644.076,143.05 660.059,148.955 674.922,144.561 C689.786,140.167 699.989,126.52 699.998,111.02 L699.998,108.091 C699.998,106.333 698.573,104.909 696.816,104.909 C695.059,104.909 693.635,106.333 693.635,108.091 Z" />
            <path d="M653.206,110.086 L662.75,119.631 C663.993,120.873 666.007,120.873 667.25,119.631 L699.066,87.815 C700.308,86.572 700.308,84.558 699.066,83.315 C697.823,82.073 695.809,82.073 694.566,83.315 L662.75,115.131 L667.25,115.131 L657.705,105.586 C656.463,104.344 654.448,104.344 653.206,105.586 C651.963,106.829 651.963,108.843 653.206,110.086 Z" />
        </g>
    </g>
</svg>