<?xml version="1.0" encoding="UTF-8"?>
<svg height="600" width="800" xmlns="http://www.w3.org/2000/svg" xmlns:xlink="http://www.w3.org/1999/xlink">
    <g id="Notes" font-family="'LucidaGrande', 'Lucida Grande', sans-serif" font-size="13">
        <rect fill="white" height="600.0" width="800.0" x="0.0" y="0.0" />
        <g font-size="13">
            <text x="18.0" y="176.0">Small</text>
            <text x="18.0" y="376.0">Medium</text>
            <text x="18.0" y="576.0">Large</text>
        </g>
        <g font-size="9">
            <text x="250.0" y="30.0">Ultralight</text>
            <text x="450.0" y="30.0">Regular</text>
            <text x="650.0" y="30.0">Black</text>
            <text id="template-version" fill="#505050" text-anchor="end" x="785.0" y="575.0">Template v.3.0</text>
            <a href="https://github.com/swhitty/SwiftDraw">
                <text fill="#505050" text-anchor="end" x="785.0" y="590.0">https://github.com/swhitty/SwiftDraw</text>
            </a>
        </g>
    </g>
    <g id="Guides" stroke="rgb(39, 170, 225)" stroke-width="0.5">
        <path id="Capline-S" d="M18,76 l800,0" />
        <path id="H-reference" d="M85,145.755 L87.685,145.755 L113.369,79.287 L114.052,79.287 L114.052,76 L112.148,76 L85,145.755 Z M95.693,121.536 L130.996,121.536 L130.263,119.313 L96.474,119.313 L95.693,121.536 Z M139.15,145.755 L141.787,145.755 L114.638,76 L113.466,76 L113.466,79.287 L139.15,145.755 Z" stroke="none" />
        <path id="Baseline-S" d="M18,146 l800,0" />
        <path id="left-margin-Ultralight-S" d="M220,56 l0,110" />
        <path id="right-margin-Ultralight-S" d="M310,56 l0,110" />
        <path id="left-margin-Regular-S" d="M420,56 l0,110" />
        <path id="right-margin-Regular-S" d="M510,56 l0,110" />
        <path id="left-margin-Black-S" d="M620,56 l0,110" />
        <path id="right-margin-Black-S" d="M710,56 l0,110" />
        <path id="Capline-M" d="M18,276 l800,0" />
        <path id="Baseline-M" d="M18,346 l800,0" />
        <path id="Capline-L" d="M18,476 l800,0" />
        <path id="Baseline-L" d="M18,546 l800,0" />
    </g>
    <g id="Symbols">
        <g id="Ultralight-S">
            <path d="M291.464,77.464 L231.464,137.464 C229.512,139.417 229.512,142.583 231.464,144.536 C233.417,146.488 236.583,146.488 238.536,144.536 L298.536,84.536 C300.488,82.583 300.488,79.417 298.536,77.464 C296.583,75.512 293.417,75.512 291.464,77.464 Z" />
            <path d="M231.464,84.536 L291.464,144.536 C293.417,146.488 296.583,146.488 298.536,144.536 C300.488,142.583 300.488,139.417 298.536,137.464 L238.536,77.464 C236.583,75.512 233.417,75.512 231.464,77.464 C229.512,79.417 229.512,82.583 231.464,84.536 Z" />
        </g>
        <g id="Regular-S">
            <path d="M491.464,77.464 L431.464,137.464 C429.512,139.417 429.512,142.583 431.464,144.536 C433.417,146.488 436.583,146.488 438.536,144.536 L498.536,84.536 C500.488,82.583 500.488,79.417 498.536,77.464 C496.583,75.512 493.417,75.512 491.464,77.464 Z" />
            <path d="M431.464,84.536 L491.464,144.536 C493.417,146.488 496.583,146.488 498.536,144.536 C500.488,142.583 500.488,139.417 498.536,137.464 L438.536,77.464 C436.583,75.512 433.417,75.512 431.464,77.464 C429.512,79.417 429.512,82.583 431.464,84.536 Z" />
        </g>
        <g id="Black-S">
            <path d="M691.464,77.464 L631.464,137.464 C629.512,139.417 629.512,142.583 631.464,144.536 C633.417,146.488 636.583,146.488 638.536,144.536 L698.536,84.536 C700.488,82.583 700.488,79.417 698.536,77.464 C696.583,75.512 693.417,75.512 691.464,77.464 Z" />
            <path d="M631.464,84.536 L691.464,144.536 C693.417,146.488 696.583,146.488 698.536,144.536 C700.488,142.583 700.488,139.417 698.536,137.464 L638.536,77.464 C636.583,75.512 633.417,75.512 631.464,77.464 C629.512,79.417 629.512,82.583 631.464,84.536 Z" />
        </g>
    </g>
</svg>