<?xml version="1.0" encoding="UTF-8"?>
<svg height="600" width="800" xmlns="http://www.w3.org/2000/svg" xmlns:xlink="http://www.w3.org/1999/xlink">
    <g id="Notes" font-family="'LucidaGrande', 'Lucida Grande', sans-serif" font-size="13">
        <rect fill="white" height="600.0" width="800.0" x="0.0" y="0.0" />
        <g font-size="13">
            <text x="18.0" y="176.0">Small</text>
            <text x="18.0" y="376.0">Medium</text>
            <text x="18.0" y="576.0">Large</text>
        </g>
        <g font-size="9">
            <text x="250.0" y="30.0">Ultralight</text>
            <text x="450.0" y="30.0">Regular</text>
            <text x="650.0" y="30.0">Black</text>
            <text id="template-version" fill="#505050" text-anchor="end" x="785.0" y="575.0">Template v.3.0</text>
            <a href="https://github.com/swhitty/SwiftDraw">
                <text fill="#505050" text-anchor="end" x="785.0" y="590.0">https://github.com/swhitty/SwiftDraw</text>
            </a>
        </g>
    </g>
    <g id="Guides" stroke="rgb(39, 170, 225)" stroke-width="0.5">
        <path id="Capline-S" d="M18,76 l800,0" />
        <path id="H-reference" d="M85,145.755 L87.685,145.755 L113.369,79.287 L114.052,79.287 L114.052,76 L112.148,76 L85,145.755 Z M95.693,121.536 L130.996,121.536 L130.263,119.313 L96.474,119.313 L95.693,121.536 Z M139.15,145.755 L141.787,145.755 L114.638,76 L113.466,76 L113.466,79.287 L139.15,145.755 Z" stroke="none" />
        <path id="Baseline-S" d="M18,146 l800,0" />
        <path id="left-margin-Ultralight-S" d="M220,56 l0,110" />
        <path id="right-margin-Ultralight-S" d="M310,56 l0,110" />
        <path id="left-margin-Regular-S" d="M420,56 l0,110" />
        <path id="right-margin-Regular-S" d="M510,56 l0,110" />
        <path id="left-margin-Black-S" d="M620,56 l0,110" />
        <path id="right-margin-Black-S" d="M710,56 l0,110" />
        <path id="Capline-M" d="M18,276 l800,0" />
        <path id="Baseline-M" d="M18,346 l800,0" />
        <path id="Capline-L" d="M18,476 l800,0" />
        <path id="Baseline-L" d="M18,546 l800,0" />
    </g>
    <g id="Symbols">
        <g id="Ultralight-S">
            <path d="M265,139.636 C280.815,139.636 293.636,126.815 293.636,111 C293.636,95.185 280.815,82.364 265,82.364 C249.185,82.364 236.364,95.185 236.364,111 C236.364,126.815 249.185,139.636 265,139.636 Z M265,133.273 C252.699,133.273 242.727,123.301 242.727,111 C242.727,98.699 252.699,88.727 265,88.727 C277.301,88.727 287.273,98.699 287.273,111 C287.273,123.301 277.301,133.273 265,133.273 Z" />
            <path d="M265,120.545 C270.272,120.545 274.545,116.272 274.545,111 C274.545,105.728 270.272,101.455 265,101.455 C259.728,101.455 255.455,105.728 255.455,111 C255.455,116.272 259.728,120.545 265,120.545 Z M265,114.182 C263.243,114.182 261.818,112.757 261.818,111 C261.818,109.243 263.243,107.818 265,107.818 C266.757,107.818 268.182,109.243 268.182,111 C268.182,112.757 266.757,114.182 265,114.182 Z" />
            <path d="M261.818,79.182 L261.818,85.545 C261.818,87.303 263.243,88.727 265,88.727 C266.757,88.727 268.182,87.303 268.182,85.545 L268.182,79.182 C268.182,77.425 266.757,76 265,76 C263.243,76 261.818,77.425 261.818,79.182 Z" />
            <path d="M268.182,142.818 L268.182,136.455 C268.182,134.697 266.757,133.273 265,133.273 C263.243,133.273 261.818,134.697 261.818,136.455 L261.818,142.818 C261.818,144.575 263.243,146 265,146 C266.757,146 268.182,144.575 268.182,142.818 Z" />
            <path d="M283.664,136.962 L280.482,131.458 C279.603,129.936 277.656,129.416 276.135,130.295 C274.614,131.175 274.093,133.121 274.973,134.642 L278.154,140.147 C279.034,141.668 280.98,142.189 282.501,141.309 C284.023,140.43 284.543,138.484 283.664,136.962 Z" />
            <path d="M264.574,103.905 L251.847,81.855 C250.968,80.333 249.022,79.811 247.5,80.69 C245.978,81.568 245.457,83.514 246.335,85.036 L259.062,107.086 C259.941,108.608 261.887,109.13 263.409,108.251 C264.931,107.373 265.452,105.427 264.574,103.905 Z" />
            <path d="M294.147,124.154 L288.642,120.973 C287.121,120.093 285.175,120.614 284.295,122.135 C283.416,123.656 283.936,125.603 285.458,126.482 L290.962,129.664 C292.484,130.543 294.43,130.023 295.309,128.501 C296.189,126.98 295.668,125.034 294.147,124.154 Z" />
            <path d="M235.853,97.846 L241.358,101.027 C242.879,101.907 244.825,101.386 245.705,99.865 C246.584,98.344 246.064,96.397 244.542,95.518 L239.038,92.336 C237.516,91.457 235.57,91.977 234.691,93.499 C233.811,95.02 234.332,96.966 235.853,97.846 Z" />
            <path d="M271.364,114.182 L296.818,114.182 C298.575,114.182 300,112.757 300,111 C300,109.243 298.575,107.818 296.818,107.818 L271.364,107.818 C269.606,107.818 268.182,109.243 268.182,111 C268.182,112.757 269.606,114.182 271.364,114.182 Z" />
            <path d="M233.182,114.182 L239.545,114.182 C241.303,114.182 242.727,112.757 242.727,111 C242.727,109.243 241.303,107.818 239.545,107.818 L233.182,107.818 C231.425,107.818 230,109.243 230,111 C230,112.757 231.425,114.182 233.182,114.182 Z" />
            <path d="M290.962,92.336 L285.458,95.518 C283.936,96.397 283.416,98.344 284.295,99.865 C285.175,101.386 287.121,101.907 288.642,101.027 L294.147,97.846 C295.668,96.966 296.189,95.02 295.309,93.499 C294.43,91.977 292.484,91.457 290.962,92.336 Z" />
            <path d="M239.038,129.664 L244.542,126.482 C246.064,125.603 246.584,123.656 245.705,122.135 C244.825,120.614 242.879,120.093 241.358,120.973 L235.853,124.154 C234.332,125.034 233.811,126.98 234.691,128.501 C235.57,130.023 237.516,130.543 239.038,129.664 Z" />
            <path d="M278.154,81.853 L274.973,87.358 C274.093,88.879 274.614,90.825 276.135,91.705 C277.656,92.584 279.603,92.064 280.482,90.542 L283.664,85.038 C284.543,83.516 284.023,81.57 282.501,80.691 C280.98,79.811 279.034,80.332 278.154,81.853 Z" />
            <path d="M259.062,114.914 L246.335,136.964 C245.457,138.486 245.978,140.432 247.5,141.31 C249.022,142.189 250.968,141.667 251.847,140.145 L264.574,118.095 C265.452,116.573 264.931,114.627 263.409,113.749 C261.887,112.87 259.941,113.392 259.062,114.914 Z" />
        </g>
        <g id="Regular-S">
            <path d="M465,139.636 C480.815,139.636 493.636,126.815 493.636,111 C493.636,95.185 480.815,82.364 465,82.364 C449.185,82.364 436.364,95.185 436.364,111 C436.364,126.815 449.185,139.636 465,139.636 Z M465,133.273 C452.699,133.273 442.727,123.301 442.727,111 C442.727,98.699 452.699,88.727 465,88.727 C477.301,88.727 487.273,98.699 487.273,111 C487.273,123.301 477.301,133.273 465,133.273 Z" />
            <path d="M465,120.545 C470.272,120.545 474.545,116.272 474.545,111 C474.545,105.728 470.272,101.455 465,101.455 C459.728,101.455 455.455,105.728 455.455,111 C455.455,116.272 459.728,120.545 465,120.545 Z M465,114.182 C463.243,114.182 461.818,112.757 461.818,111 C461.818,109.243 463.243,107.818 465,107.818 C466.757,107.818 468.182,109.243 468.182,111 C468.182,112.757 466.757,114.182 465,114.182 Z" />
            <path d="M461.818,79.182 L461.818,85.545 C461.818,87.303 463.243,88.727 465,88.727 C466.757,88.727 468.182,87.303 468.182,85.545 L468.182,79.182 C468.182,77.425 466.757,76 465,76 C463.243,76 461.818,77.425 461.818,79.182 Z" />
            <path d="M468.182,142.818 L468.182,136.455 C468.182,134.697 466.757,133.273 465,133.273 C463.243,133.273 461.818,134.697 461.818,136.455 L461.818,142.818 C461.818,144.575 463.243,146 465,146 C466.757,146 468.182,144.575 468.182,142.818 Z" />
            <path d="M483.664,136.962 L480.482,131.458 C479.603,129.936 477.656,129.416 476.135,130.295 C474.614,131.175 474.093,133.121 474.973,134.642 L478.154,140.147 C479.034,141.668 480.98,142.189 482.501,141.309 C484.023,140.43 484.543,138.484 483.664,136.962 Z" />
            <path d="M464.574,103.905 L451.847,81.855 C450.968,80.333 449.022,79.811 447.5,80.69 C445.978,81.568 445.457,83.514 446.335,85.036 L459.062,107.086 C459.941,108.608 461.887,109.13 463.409,108.251 C464.931,107.373 465.452,105.427 464.574,103.905 Z" />
            <path d="M494.147,124.154 L488.642,120.973 C487.121,120.093 485.175,120.614 484.295,122.135 C483.416,123.656 483.936,125.603 485.458,126.482 L490.962,129.664 C492.484,130.543 494.43,130.023 495.309,128.501 C496.189,126.98 495.668,125.034 494.147,124.154 Z" />
            <path d="M435.853,97.846 L441.358,101.027 C442.879,101.907 444.825,101.386 445.705,99.865 C446.584,98.344 446.064,96.397 444.542,95.518 L439.038,92.336 C437.516,91.457 435.57,91.977 434.691,93.499 C433.811,95.02 434.332,96.966 435.853,97.846 Z" />
            <path d="M471.364,114.182 L496.818,114.182 C498.575,114.182 500,112.757 500,111 C500,109.243 498.575,107.818 496.818,107.818 L471.364,107.818 C469.606,107.818 468.182,109.243 468.182,111 C468.182,112.757 469.606,114.182 471.364,114.182 Z" />
            <path d="M433.182,114.182 L439.545,114.182 C441.303,114.182 442.727,112.757 442.727,111 C442.727,109.243 441.303,107.818 439.545,107.818 L433.182,107.818 C431.425,107.818 430,109.243 430,111 C430,112.757 431.425,114.182 433.182,114.182 Z" />
            <path d="M490.962,92.336 L485.458,95.518 C483.936,96.397 483.416,98.344 484.295,99.865 C485.175,101.386 487.121,101.907 488.642,101.027 L494.147,97.846 C495.668,96.966 496.189,95.02 495.309,93.499 C494.43,91.977 492.484,91.457 490.962,92.336 Z" />
            <path d="M439.038,129.664 L444.542,126.482 C446.064,125.603 446.584,123.656 445.705,122.135 C444.825,120.614 442.879,120.093 441.358,120.973 L435.853,124.154 C434.332,125.034 433.811,126.98 434.691,128.501 C435.57,130.023 437.516,130.543 439.038,129.664 Z" />
            <path d="M478.154,81.853 L474.973,87.358 C474.093,88.879 474.614,90.825 476.135,91.705 C477.656,92.584 479.603,92.064 480.482,90.542 L483.664,85.038 C484.543,83.516 484.023,81.57 482.501,80.691 C480.98,79.811 479.034,80.332 478.154,81.853 Z" />
            <path d="M459.062,114.914 L446.335,136.964 C445.457,138.486 445.978,140.432 447.5,141.31 C449.022,142.189 450.968,141.667 451.847,140.145 L464.574,118.095 C465.452,116.573 464.931,114.627 463.409,113.749 C461.887,112.87 459.941,113.392 459.062,114.914 Z" />
        </g>
        <g id="Black-S">
            <path d="M665,139.636 C680.815,139.636 693.636,126.815 693.636,111 C693.636,95.185 680.815,82.364 665,82.364 C649.185,82.364 636.364,95.185 636.364,111 C636.364,126.815 649.185,139.636 665,139.636 Z M665,133.273 C652.699,133.273 642.727,123.301 642.727,111 C642.727,98.699 652.699,88.727 665,88.727 C677.301,88.727 687.273,98.699 687.273,111 C687.273,123.301 677.301,133.273 665,133.273 Z" />
            <path d="M665,120.545 C670.272,120.545 674.545,116.272 674.545,111 C674.545,105.728 670.272,101.455 665,101.455 C659.728,101.455 655.455,105.728 655.455,111 C655.455,116.272 659.728,120.545 665,120.545 Z M665,114.182 C663.243,114.182 661.818,112.757 661.818,111 C661.818,109.243 663.243,107.818 665,107.818 C666.757,107.818 668.182,109.243 668.182,111 C668.182,112.757 666.757,114.182 665,114.182 Z" />
            <path d="M661.818,79.182 L661.818,85.545 C661.818,87.303 663.243,88.727 665,88.727 C666.757,88.727 668.182,87.303 668.182,85.545 L668.182,79.182 C668.182,77.425 666.757,76 665,76 C663.243,76 661.818,77.425 661.818,79.182 Z" />
            <path d="M668.182,142.818 L668.182,136.455 C668.182,134.697 666.757,133.273 665,133.273 C663.243,133.273 661.818,134.697 661.818,136.455 L661.818,142.818 C661.818,144.575 663.243,146 665,146 C666.757,146 668.182,144.575 668.182,142.818 Z" />
            <path d="M683.664,136.962 L680.482,131.458 C679.603,129.936 677.656,129.416 676.135,130.295 C674.614,131.175 674.093,133.121 674.973,134.642 L678.154,140.147 C679.034,141.668 680.98,142.189 682.501,141.309 C684.023,140.43 684.543,138.484 683.664,136.962 Z" />
            <path d="M664.574,103.905 L651.847,81.855 C650.968,80.333 649.022,79.811 647.5,80.69 C645.978,81.568 645.457,83.514 646.335,85.036 L659.062,107.086 C659.941,108.608 661.887,109.13 663.409,108.251 C664.931,107.373 665.452,105.427 664.574,103.905 Z" />
            <path d="M694.147,124.154 L688.642,120.973 C687.121,120.093 685.175,120.614 684.295,122.135 C683.416,123.656 683.936,125.603 685.458,126.482 L690.962,129.664 C692.484,130.543 694.43,130.023 695.309,128.501 C696.189,126.98 695.668,125.034 694.147,124.154 Z" />
            <path d="M635.853,97.846 L641.358,101.027 C642.879,101.907 644.825,101.386 645.705,99.865 C646.584,98.344 646.064,96.397 644.542,95.518 L639.038,92.336 C637.516,91.457 635.57,91.977 634.691,93.499 C633.811,95.02 634.332,96.966 635.853,97.846 Z" />
            <path d="M671.364,114.182 L696.818,114.182 C698.575,114.182 700,112.757 700,111 C700,109.243 698.575,107.818 696.818,107.818 L671.364,107.818 C669.606,107.818 668.182,109.243 668.182,111 C668.182,112.757 669.606,114.182 671.364,114.182 Z" />
            <path d="M633.182,114.182 L639.545,114.182 C641.303,114.182 642.727,112.757 642.727,111 C642.727,109.243 641.303,107.818 639.545,107.818 L633.182,107.818 C631.425,107.818 630,109.243 630,111 C630,112.757 631.425,114.182 633.182,114.182 Z" />
            <path d="M690.962,92.336 L685.458,95.518 C683.936,96.397 683.416,98.344 684.295,99.865 C685.175,101.386 687.121,101.907 688.642,101.027 L694.147,97.846 C695.668,96.966 696.189,95.02 695.309,93.499 C694.43,91.977 692.484,91.457 690.962,92.336 Z" />
            <path d="M639.038,129.664 L644.542,126.482 C646.064,125.603 646.584,123.656 645.705,122.135 C644.825,120.614 642.879,120.093 641.358,120.973 L635.853,124.154 C634.332,125.034 633.811,126.98 634.691,128.501 C635.57,130.023 637.516,130.543 639.038,129.664 Z" />
            <path d="M678.154,81.853 L674.973,87.358 C674.093,88.879 674.614,90.825 676.135,91.705 C677.656,92.584 679.603,92.064 680.482,90.542 L683.664,85.038 C684.543,83.516 684.023,81.57 682.501,80.691 C680.98,79.811 679.034,80.332 678.154,81.853 Z" />
            <path d="M659.062,114.914 L646.335,136.964 C645.457,138.486 645.978,140.432 647.5,141.31 C649.022,142.189 650.968,141.667 651.847,140.145 L664.574,118.095 C665.452,116.573 664.931,114.627 663.409,113.749 C661.887,112.87 659.941,113.392 659.062,114.914 Z" />
        </g>
    </g>
</svg>