<?xml version="1.0" encoding="UTF-8"?>
<svg height="600" width="800" xmlns="http://www.w3.org/2000/svg" xmlns:xlink="http://www.w3.org/1999/xlink">
    <g id="Notes" font-family="'LucidaGrande', 'Lucida Grande', sans-serif" font-size="13">
        <rect fill="white" height="600.0" width="800.0" x="0.0" y="0.0" />
        <g font-size="13">
            <text x="18.0" y="176.0">Small</text>
            <text x="18.0" y="376.0">Medium</text>
            <text x="18.0" y="576.0">Large</text>
        </g>
        <g font-size="9">
            <text x="250.0" y="30.0">Ultralight</text>
            <text x="450.0" y="30.0">Regular</text>
            <text x="650.0" y="30.0">Black</text>
            <text id="template-version" fill="#505050" text-anchor="end" x="785.0" y="575.0">Template v.3.0</text>
            <a href="https://github.com/swhitty/SwiftDraw">
                <text fill="#505050" text-anchor="end" x="785.0" y="590.0">https://github.com/swhitty/SwiftDraw</text>
            </a>
        </g>
    </g>
    <g id="Guides" stroke="rgb(39, 170, 225)" stroke-width="0.5">
        <path id="Capline-S" d="M18,76 l800,0" />
        <path id="H-reference" d="M85,145.755 L87.685,145.755 L113.369,79.287 L114.052,79.287 L114.052,76 L112.148,76 L85,145.755 Z M95.693,121.536 L130.996,121.536 L130.263,119.313 L96.474,119.313 L95.693,121.536 Z M139.15,145.755 L141.787,145.755 L114.638,76 L113.466,76 L113.466,79.287 L139.15,145.755 Z" stroke="none" />
        <path id="Baseline-S" d="M18,146 l800,0" />
        <path id="left-margin-Ultralight-S" d="M216.5,56 l0,110" />
        <path id="right-margin-Ultralight-S" d="M313.5,56 l0,110" />
        <path id="left-margin-Regular-S" d="M416.5,56 l0,110" />
        <path id="right-margin-Regular-S" d="M513.5,56 l0,110" />
        <path id="left-margin-Black-S" d="M616.5,56 l0,110" />
        <path id="right-margin-Black-S" d="M713.5,56 l0,110" />
        <path id="Capline-M" d="M18,276 l800,0" />
        <path id="Baseline-M" d="M18,346 l800,0" />
        <path id="Capline-L" d="M18,476 l800,0" />
        <path id="Baseline-L" d="M18,546 l800,0" />
    </g>
    <g id="Symbols">
        <g id="Ultralight-S">
            <path d="M291.95,120.5 C299.669,112.936 303.5,106.777 303.5,98.75 C303.5,92.716 301.103,86.93 296.837,82.663 C292.57,78.397 286.784,76 280.75,76 C273.477,76 268.292,78.258 262.525,84.025 L267.475,84.025 C261.708,78.258 256.523,76 249.25,76 C243.216,76 237.43,78.397 233.163,82.663 C228.897,86.93 226.5,92.716 226.5,98.75 C226.5,106.831 230.385,113.09 238.067,120.516 L262.525,144.975 C263.892,146.342 266.108,146.342 267.475,144.975 L291.975,120.475 Z M287.025,115.525 L262.525,140.025 L267.475,140.025 L242.975,115.525 C236.495,109.26 233.5,104.436 233.5,98.75 C233.5,94.573 235.159,90.567 238.113,87.613 C241.067,84.659 245.073,83 249.25,83 C254.619,83 258.04,84.49 262.525,88.975 C263.892,90.342 266.108,90.342 267.475,88.975 C271.96,84.49 275.381,83 280.75,83 C284.927,83 288.933,84.659 291.887,87.613 C294.841,90.567 296.5,94.573 296.5,98.75 C296.5,104.382 293.538,109.143 287.05,115.5 Z" />
        </g>
        <g id="Regular-S">
            <path d="M491.95,120.5 C499.669,112.936 503.5,106.777 503.5,98.75 C503.5,92.716 501.103,86.93 496.837,82.663 C492.57,78.397 486.784,76 480.75,76 C473.477,76 468.292,78.258 462.525,84.025 L467.475,84.025 C461.708,78.258 456.523,76 449.25,76 C443.216,76 437.43,78.397 433.163,82.663 C428.897,86.93 426.5,92.716 426.5,98.75 C426.5,106.831 430.385,113.09 438.067,120.516 L462.525,144.975 C463.892,146.342 466.108,146.342 467.475,144.975 L491.975,120.475 Z M487.025,115.525 L462.525,140.025 L467.475,140.025 L442.975,115.525 C436.495,109.26 433.5,104.436 433.5,98.75 C433.5,94.573 435.159,90.567 438.113,87.613 C441.067,84.659 445.073,83 449.25,83 C454.619,83 458.04,84.49 462.525,88.975 C463.892,90.342 466.108,90.342 467.475,88.975 C471.96,84.49 475.381,83 480.75,83 C484.927,83 488.933,84.659 491.887,87.613 C494.841,90.567 496.5,94.573 496.5,98.75 C496.5,104.382 493.538,109.143 487.05,115.5 Z" />
        </g>
        <g id="Black-S">
            <path d="M691.95,120.5 C699.669,112.936 703.5,106.777 703.5,98.75 C703.5,92.716 701.103,86.93 696.837,82.663 C692.57,78.397 686.784,76 680.75,76 C673.477,76 668.292,78.258 662.525,84.025 L667.475,84.025 C661.708,78.258 656.523,76 649.25,76 C643.216,76 637.43,78.397 633.163,82.663 C628.897,86.93 626.5,92.716 626.5,98.75 C626.5,106.831 630.385,113.09 638.067,120.516 L662.525,144.975 C663.892,146.342 666.108,146.342 667.475,144.975 L691.975,120.475 Z M687.025,115.525 L662.525,140.025 L667.475,140.025 L642.975,115.525 C636.495,109.26 633.5,104.436 633.5,98.75 C633.5,94.573 635.159,90.567 638.113,87.613 C641.067,84.659 645.073,83 649.25,83 C654.619,83 658.04,84.49 662.525,88.975 C663.892,90.342 666.108,90.342 667.475,88.975 C671.96,84.49 675.381,83 680.75,83 C684.927,83 688.933,84.659 691.887,87.613 C694.841,90.567 696.5,94.573 696.5,98.75 C696.5,104.382 693.538,109.143 687.05,115.5 Z" />
        </g>
    </g>
</svg>