<?xml version="1.0" encoding="UTF-8"?>
<svg height="600" width="800" xmlns="http://www.w3.org/2000/svg" xmlns:xlink="http://www.w3.org/1999/xlink">
    <g id="Notes" font-family="'LucidaGrande', 'Lucida Grande', sans-serif" font-size="13">
        <rect fill="white" height="600.0" width="800.0" x="0.0" y="0.0" />
        <g font-size="13">
            <text x="18.0" y="176.0">Small</text>
            <text x="18.0" y="376.0">Medium</text>
            <text x="18.0" y="576.0">Large</text>
        </g>
        <g font-size="9">
            <text x="250.0" y="30.0">Ultralight</text>
            <text x="450.0" y="30.0">Regular</text>
            <text x="650.0" y="30.0">Black</text>
            <text id="template-version" fill="#505050" text-anchor="end" x="785.0" y="575.0">Template v.3.0</text>
            <a href="https://github.com/swhitty/SwiftDraw">
                <text fill="#505050" text-anchor="end" x="785.0" y="590.0">https://github.com/swhitty/SwiftDraw</text>
            </a>
        </g>
    </g>
    <g id="Guides" stroke="rgb(39, 170, 225)" stroke-width="0.5">
        <path id="Capline-S" d="M18,76 l800,0" />
        <path id="H-reference" d="M85,145.755 L87.685,145.755 L113.369,79.287 L114.052,79.287 L114.052,76 L112.148,76 L85,145.755 Z M95.693,121.536 L130.996,121.536 L130.263,119.313 L96.474,119.313 L95.693,121.536 Z M139.15,145.755 L141.787,145.755 L114.638,76 L113.466,76 L113.466,79.287 L139.15,145.755 Z" stroke="none" />
        <path id="Baseline-S" d="M18,146 l800,0" />
        <path id="left-margin-Ultralight-S" d="M220,56 l0,110" />
        <path id="right-margin-Ultralight-S" d="M310,56 l0,110" />
        <path id="left-margin-Regular-S" d="M420,56 l0,110" />
        <path id="right-margin-Regular-S" d="M510,56 l0,110" />
        <path id="left-margin-Black-S" d="M620,56 l0,110" />
        <path id="right-margin-Black-S" d="M710,56 l0,110" />
        <path id="Capline-M" d="M18,276 l800,0" />
        <path id="Baseline-M" d="M18,346 l800,0" />
        <path id="Capline-L" d="M18,476 l800,0" />
        <path id="Baseline-L" d="M18,546 l800,0" />
    </g>
    <g id="Symbols">
        <g id="Ultralight-S">
            <path d="M293,111 L293,135.5 C293,136.428 292.631,137.318 291.975,137.975 C291.318,138.631 290.428,139 289.5,139 L240.5,139 C239.572,139 238.682,138.631 238.025,137.975 C237.369,137.318 237,136.428 237,135.5 L237,86.5 C237,85.572 237.369,84.682 238.025,84.025 C238.682,83.369 239.572,83 240.5,83 L289.5,83 C290.428,83 291.318,83.369 291.975,84.025 C292.631,84.682 293,85.572 293,86.5 L293,111 Z M300,111 L300,86.5 C300,83.715 298.894,81.045 296.925,79.075 C294.956,77.106 292.285,76 289.5,76 L240.5,76 C237.715,76 235.045,77.106 233.075,79.075 C231.106,81.045 230,83.715 230,86.5 L230,135.5 C230,138.285 231.106,140.955 233.075,142.925 C235.045,144.894 237.715,146 240.5,146 L289.5,146 C292.285,146 294.955,144.894 296.925,142.925 C298.894,140.955 300,138.285 300,135.5 L300,111 Z" />
            <path d="M251,114.5 L279,114.5 C280.933,114.5 282.5,112.933 282.5,111 C282.5,109.067 280.933,107.5 279,107.5 L251,107.5 C249.067,107.5 247.5,109.067 247.5,111 C247.5,112.933 249.067,114.5 251,114.5 Z" />
            <path d="M261.5,97 L261.5,125 C261.5,126.933 263.067,128.5 265,128.5 C266.933,128.5 268.5,126.933 268.5,125 L268.5,97 C268.5,95.067 266.933,93.5 265,93.5 C263.067,93.5 261.5,95.067 261.5,97 Z" />
        </g>
        <g id="Regular-S">
            <path d="M493,111 L493,135.5 C493,136.428 492.631,137.318 491.975,137.975 C491.318,138.631 490.428,139 489.5,139 L440.5,139 C439.572,139 438.682,138.631 438.025,137.975 C437.369,137.318 437,136.428 437,135.5 L437,86.5 C437,85.572 437.369,84.682 438.025,84.025 C438.682,83.369 439.572,83 440.5,83 L489.5,83 C490.428,83 491.318,83.369 491.975,84.025 C492.631,84.682 493,85.572 493,86.5 L493,111 Z M500,111 L500,86.5 C500,83.715 498.894,81.045 496.925,79.075 C494.956,77.106 492.285,76 489.5,76 L440.5,76 C437.715,76 435.045,77.106 433.075,79.075 C431.106,81.045 430,83.715 430,86.5 L430,135.5 C430,138.285 431.106,140.955 433.075,142.925 C435.045,144.894 437.715,146 440.5,146 L489.5,146 C492.285,146 494.955,144.894 496.925,142.925 C498.894,140.955 500,138.285 500,135.5 L500,111 Z" />
            <path d="M451,114.5 L479,114.5 C480.933,114.5 482.5,112.933 482.5,111 C482.5,109.067 480.933,107.5 479,107.5 L451,107.5 C449.067,107.5 447.5,109.067 447.5,111 C447.5,112.933 449.067,114.5 451,114.5 Z" />
            <path d="M461.5,97 L461.5,125 C461.5,126.933 463.067,128.5 465,128.5 C466.933,128.5 468.5,126.933 468.5,125 L468.5,97 C468.5,95.067 466.933,93.5 465,93.5 C463.067,93.5 461.5,95.067 461.5,97 Z" />
        </g>
        <g id="Black-S">
            <path d="M693,111 L693,135.5 C693,136.428 692.631,137.318 691.975,137.975 C691.318,138.631 690.428,139 689.5,139 L640.5,139 C639.572,139 638.682,138.631 638.025,137.975 C637.369,137.318 637,136.428 637,135.5 L637,86.5 C637,85.572 637.369,84.682 638.025,84.025 C638.682,83.369 639.572,83 640.5,83 L689.5,83 C690.428,83 691.318,83.369 691.975,84.025 C692.631,84.682 693,85.572 693,86.5 L693,111 Z M700,111 L700,86.5 C700,83.715 698.894,81.045 696.925,79.075 C694.956,77.106 692.285,76 689.5,76 L640.5,76 C637.715,76 635.044,77.106 633.075,79.075 C631.106,81.045 630,83.715 630,86.5 L630,135.5 C630,138.285 631.106,140.955 633.075,142.925 C635.044,144.894 637.715,146 640.5,146 L689.5,146 C692.285,146 694.956,144.894 696.925,142.925 C698.894,140.955 700,138.285 700,135.5 L700,111 Z" />
            <path d="M651,114.5 L679,114.5 C680.933,114.5 682.5,112.933 682.5,111 C682.5,109.067 680.933,107.5 679,107.5 L651,107.5 C649.067,107.5 647.5,109.067 647.5,111 C647.5,112.933 649.067,114.5 651,114.5 Z" />
            <path d="M661.5,97 L661.5,125 C661.5,126.933 663.067,128.5 665,128.5 C666.933,128.5 668.5,126.933 668.5,125 L668.5,97 C668.5,95.067 666.933,93.5 665,93.5 C663.067,93.5 661.5,95.067 661.5,97 Z" />
        </g>
    </g>
</svg>