<?xml version="1.0" encoding="UTF-8"?>
<svg height="600" width="800" xmlns="http://www.w3.org/2000/svg" xmlns:xlink="http://www.w3.org/1999/xlink">
    <g id="Notes" font-family="'LucidaGrande', 'Lucida Grande', sans-serif" font-size="13">
        <rect fill="white" height="600.0" width="800.0" x="0.0" y="0.0" />
        <g font-size="13">
            <text x="18.0" y="176.0">Small</text>
            <text x="18.0" y="376.0">Medium</text>
            <text x="18.0" y="576.0">Large</text>
        </g>
        <g font-size="9">
            <text x="250.0" y="30.0">Ultralight</text>
            <text x="450.0" y="30.0">Regular</text>
            <text x="650.0" y="30.0">Black</text>
            <text id="template-version" fill="#505050" text-anchor="end" x="785.0" y="575.0">Template v.3.0</text>
            <a href="https://github.com/swhitty/SwiftDraw">
                <text fill="#505050" text-anchor="end" x="785.0" y="590.0">https://github.com/swhitty/SwiftDraw</text>
            </a>
        </g>
    </g>
    <g id="Guides" stroke="rgb(39, 170, 225)" stroke-width="0.5">
        <path id="Capline-S" d="M18,76 l800,0" />
        <path id="H-reference" d="M85,145.755 L87.685,145.755 L113.369,79.287 L114.052,79.287 L114.052,76 L112.148,76 L85,145.755 Z M95.693,121.536 L130.996,121.536 L130.263,119.313 L96.474,119.313 L95.693,121.536 Z M139.15,145.755 L141.787,145.755 L114.638,76 L113.466,76 L113.466,79.287 L139.15,145.755 Z" stroke="none" />
        <path id="Baseline-S" d="M18,146 l800,0" />
        <path id="left-margin-Ultralight-S" d="M221,56 l0,110" />
        <path id="right-margin-Ultralight-S" d="M309,56 l0,110" />
        <path id="left-margin-Regular-S" d="M421,56 l0,110" />
        <path id="right-margin-Regular-S" d="M509,56 l0,110" />
        <path id="left-margin-Black-S" d="M621,56 l0,110" />
        <path id="right-margin-Black-S" d="M709,56 l0,110" />
        <path id="Capline-M" d="M18,276 l800,0" />
        <path id="Baseline-M" d="M18,346 l800,0" />
        <path id="Capline-L" d="M18,476 l800,0" />
        <path id="Baseline-L" d="M18,546 l800,0" />
    </g>
    <g id="Symbols">
        <g id="Ultralight-S">
            <path d="M236.364,111 L236.364,136.455 C236.364,138.986 237.369,141.414 239.159,143.204 C240.95,144.994 243.377,146 245.909,146 L284.091,146 C286.623,146 289.05,144.994 290.841,143.204 C292.631,141.414 293.636,138.986 293.636,136.455 L293.636,111 C293.636,109.243 292.212,107.818 290.455,107.818 C288.697,107.818 287.273,109.243 287.273,111 L287.273,136.455 C287.273,137.298 286.938,138.108 286.341,138.704 C285.744,139.301 284.935,139.636 284.091,139.636 L245.909,139.636 C245.065,139.636 244.256,139.301 243.659,138.704 C243.062,138.108 242.727,137.298 242.727,136.455 L242.727,111 C242.727,109.243 241.303,107.818 239.545,107.818 C237.788,107.818 236.364,109.243 236.364,111 Z" />
            <path d="M279.977,89.659 L267.25,76.932 C266.007,75.689 263.993,75.689 262.75,76.932 L250.023,89.659 C248.78,90.902 248.78,92.916 250.023,94.159 C251.265,95.402 253.28,95.402 254.523,94.159 L267.25,81.432 L262.75,81.432 L275.477,94.159 C276.72,95.402 278.735,95.402 279.977,94.159 C281.22,92.916 281.22,90.902 279.977,89.659 Z" />
            <path d="M261.818,79.182 L261.818,120.545 C261.818,122.303 263.243,123.727 265,123.727 C266.757,123.727 268.182,122.303 268.182,120.545 L268.182,79.182 C268.182,77.425 266.757,76 265,76 C263.243,76 261.818,77.425 261.818,79.182 Z" />
        </g>
        <g id="Regular-S">
            <path d="M436.364,111 L436.364,136.455 C436.364,138.986 437.369,141.414 439.159,143.204 C440.95,144.994 443.377,146 445.909,146 L484.091,146 C486.623,146 489.05,144.994 490.841,143.204 C492.631,141.414 493.636,138.986 493.636,136.455 L493.636,111 C493.636,109.243 492.212,107.818 490.455,107.818 C488.697,107.818 487.273,109.243 487.273,111 L487.273,136.455 C487.273,137.298 486.938,138.108 486.341,138.704 C485.744,139.301 484.935,139.636 484.091,139.636 L445.909,139.636 C445.065,139.636 444.256,139.301 443.659,138.704 C443.062,138.108 442.727,137.298 442.727,136.455 L442.727,111 C442.727,109.243 441.303,107.818 439.545,107.818 C437.788,107.818 436.364,109.243 436.364,111 Z" />
            <path d="M479.977,89.659 L467.25,76.932 C466.007,75.689 463.993,75.689 462.75,76.932 L450.023,89.659 C448.78,90.902 448.78,92.916 450.023,94.159 C451.265,95.402 453.28,95.402 454.523,94.159 L467.25,81.432 L462.75,81.432 L475.477,94.159 C476.72,95.402 478.735,95.402 479.977,94.159 C481.22,92.916 481.22,90.902 479.977,89.659 Z" />
            <path d="M461.818,79.182 L461.818,120.545 C461.818,122.303 463.243,123.727 465,123.727 C466.757,123.727 468.182,122.303 468.182,120.545 L468.182,79.182 C468.182,77.425 466.757,76 465,76 C463.243,76 461.818,77.425 461.818,79.182 Z" />
        </g>
        <g id="Black-S">
            <path d="M636.364,111 L636.364,136.455 C636.364,138.986 637.369,141.414 639.159,143.204 C640.95,144.994 643.377,146 645.909,146 L684.091,146 C686.622,146 689.05,144.994 690.841,143.204 C692.631,141.414 693.636,138.986 693.636,136.455 L693.636,111 C693.636,109.243 692.212,107.818 690.455,107.818 C688.697,107.818 687.273,109.243 687.273,111 L687.273,136.455 C687.273,137.298 686.938,138.108 686.341,138.704 C685.744,139.301 684.935,139.636 684.091,139.636 L645.909,139.636 C645.065,139.636 644.256,139.301 643.659,138.704 C643.062,138.108 642.727,137.298 642.727,136.455 L642.727,111 C642.727,109.243 641.303,107.818 639.545,107.818 C637.788,107.818 636.364,109.243 636.364,111 Z" />
            <path d="M679.977,89.659 L667.25,76.932 C666.007,75.689 663.993,75.689 662.75,76.932 L650.023,89.659 C648.78,90.902 648.78,92.916 650.023,94.159 C651.265,95.402 653.28,95.402 654.523,94.159 L667.25,81.432 L662.75,81.432 L675.477,94.159 C676.72,95.402 678.735,95.402 679.977,94.159 C681.22,92.916 681.22,90.902 679.977,89.659 Z" />
            <path d="M661.818,79.182 L661.818,120.545 C661.818,122.303 663.243,123.727 665,123.727 C666.757,123.727 668.182,122.303 668.182,120.545 L668.182,79.182 C668.182,77.425 666.757,76 665,76 C663.243,76 661.818,77.425 661.818,79.182 Z" />
        </g>
    </g>
</svg>