<?xml version="1.0" encoding="UTF-8"?>
<svg height="600" width="800" xmlns="http://www.w3.org/2000/svg" xmlns:xlink="http://www.w3.org/1999/xlink">
    <g id="Notes" font-family="'LucidaGrande', 'Lucida Grande', sans-serif" font-size="13">
        <rect fill="white" height="600.0" width="800.0" x="0.0" y="0.0" />
        <g font-size="13">
            <text x="18.0" y="176.0">Small</text>
            <text x="18.0" y="376.0">Medium</text>
            <text x="18.0" y="576.0">Large</text>
        </g>
        <g font-size="9">
            <text x="250.0" y="30.0">Ultralight</text>
            <text x="450.0" y="30.0">Regular</text>
            <text x="650.0" y="30.0">Black</text>
            <text id="template-version" fill="#505050" text-anchor="end" x="785.0" y="575.0">Template v.3.0</text>
            <a href="https://github.com/swhitty/SwiftDraw">
                <text fill="#505050" text-anchor="end" x="785.0" y="590.0">https://github.com/swhitty/SwiftDraw</text>
            </a>
        </g>
    </g>
    <g id="Guides" stroke="rgb(39, 170, 225)" stroke-width="0.5">
        <path id="Capline-S" d="M18,76 l800,0" />
        <path id="H-reference" d="M85,145.755 L87.685,145.755 L113.369,79.287 L114.052,79.287 L114.052,76 L112.148,76 L85,145.755 Z M95.693,121.536 L130.996,121.536 L130.263,119.313 L96.474,119.313 L95.693,121.536 Z M139.15,145.755 L141.787,145.755 L114.638,76 L113.466,76 L113.466,79.287 L139.15,145.755 Z" stroke="none" />
        <path id="Baseline-S" d="M18,146 l800,0" />
        <path id="left-margin-Ultralight-S" d="M211,56 l0,110" />
        <path id="right-margin-Ultralight-S" d="M319,56 l0,110" />
        <path id="left-margin-Regular-S" d="M411,56 l0,110" />
        <path id="right-margin-Regular-S" d="M519,56 l0,110" />
        <path id="left-margin-Black-S" d="M611,56 l0,110" />
        <path id="right-margin-Black-S" d="M719,56 l0,110" />
        <path id="Capline-M" d="M18,276 l800,0" />
        <path id="Baseline-M" d="M18,346 l800,0" />
        <path id="Capline-L" d="M18,476 l800,0" />
        <path id="Baseline-L" d="M18,546 l800,0" />
    </g>
    <g id="Symbols">
        <g id="Ultralight-S">
            <path d="M225.4,89 L304.6,89 C307.03,89 309,87.03 309,84.6 C309,82.17 307.03,80.2 304.6,80.2 L225.4,80.2 C222.97,80.2 221,82.17 221,84.6 C221,87.03 222.97,89 225.4,89 Z" />
            <path d="M243,115.4 L287,115.4 C289.43,115.4 291.4,113.43 291.4,111 C291.4,108.57 289.43,106.6 287,106.6 L243,106.6 C240.57,106.6 238.6,108.57 238.6,111 C238.6,113.43 240.57,115.4 243,115.4 Z" />
            <path d="M256.2,141.8 L273.8,141.8 C276.23,141.8 278.2,139.83 278.2,137.4 C278.2,134.97 276.23,133 273.8,133 L256.2,133 C253.77,133 251.8,134.97 251.8,137.4 C251.8,139.83 253.77,141.8 256.2,141.8 Z" />
        </g>
        <g id="Regular-S">
            <path d="M425.4,89 L504.6,89 C507.03,89 509,87.03 509,84.6 C509,82.17 507.03,80.2 504.6,80.2 L425.4,80.2 C422.97,80.2 421,82.17 421,84.6 C421,87.03 422.97,89 425.4,89 Z" />
            <path d="M443,115.4 L487,115.4 C489.43,115.4 491.4,113.43 491.4,111 C491.4,108.57 489.43,106.6 487,106.6 L443,106.6 C440.57,106.6 438.6,108.57 438.6,111 C438.6,113.43 440.57,115.4 443,115.4 Z" />
            <path d="M456.2,141.8 L473.8,141.8 C476.23,141.8 478.2,139.83 478.2,137.4 C478.2,134.97 476.23,133 473.8,133 L456.2,133 C453.77,133 451.8,134.97 451.8,137.4 C451.8,139.83 453.77,141.8 456.2,141.8 Z" />
        </g>
        <g id="Black-S">
            <path d="M625.4,89 L704.6,89 C707.03,89 709,87.03 709,84.6 C709,82.17 707.03,80.2 704.6,80.2 L625.4,80.2 C622.97,80.2 621,82.17 621,84.6 C621,87.03 622.97,89 625.4,89 Z" />
            <path d="M643,115.4 L687,115.4 C689.43,115.4 691.4,113.43 691.4,111 C691.4,108.57 689.43,106.6 687,106.6 L643,106.6 C640.57,106.6 638.6,108.57 638.6,111 C638.6,113.43 640.57,115.4 643,115.4 Z" />
            <path d="M656.2,141.8 L673.8,141.8 C676.23,141.8 678.2,139.83 678.2,137.4 C678.2,134.97 676.23,133 673.8,133 L656.2,133 C653.77,133 651.8,134.97 651.8,137.4 C651.8,139.83 653.77,141.8 656.2,141.8 Z" />
        </g>
    </g>
</svg>