<?xml version="1.0" encoding="UTF-8"?>
<svg height="600" width="800" xmlns="http://www.w3.org/2000/svg" xmlns:xlink="http://www.w3.org/1999/xlink">
    <g id="Notes" font-family="'LucidaGrande', 'Lucida Grande', sans-serif" font-size="13">
        <rect fill="white" height="600.0" width="800.0" x="0.0" y="0.0" />
        <g font-size="13">
            <text x="18.0" y="176.0">Small</text>
            <text x="18.0" y="376.0">Medium</text>
            <text x="18.0" y="576.0">Large</text>
        </g>
        <g font-size="9">
            <text x="250.0" y="30.0">Ultralight</text>
            <text x="450.0" y="30.0">Regular</text>
            <text x="650.0" y="30.0">Black</text>
            <text id="template-version" fill="#505050" text-anchor="end" x="785.0" y="575.0">Template v.3.0</text>
            <a href="https://github.com/swhitty/SwiftDraw">
                <text fill="#505050" text-anchor="end" x="785.0" y="590.0">https://github.com/swhitty/SwiftDraw</text>
            </a>
        </g>
    </g>
    <g id="Guides" stroke="rgb(39, 170, 225)" stroke-width="0.5">
        <path id="Capline-S" d="M18,76 l800,0" />
        <path id="H-reference" d="M85,145.755 L87.685,145.755 L113.369,79.287 L114.052,79.287 L114.052,76 L112.148,76 L85,145.755 Z M95.693,121.536 L130.996,121.536 L130.263,119.313 L96.474,119.313 L95.693,121.536 Z M139.15,145.755 L141.787,145.755 L114.638,76 L113.466,76 L113.466,79.287 L139.15,145.755 Z" stroke="none" />
        <path id="Baseline-S" d="M18,146 l800,0" />
        <path id="left-margin-Ultralight-S" d="M220,56 l0,110" />
        <path id="right-margin-Ultralight-S" d="M310,56 l0,110" />
        <path id="left-margin-Regular-S" d="M420,56 l0,110" />
        <path id="right-margin-Regular-S" d="M510,56 l0,110" />
        <path id="left-margin-Black-S" d="M620,56 l0,110" />
        <path id="right-margin-Black-S" d="M710,56 l0,110" />
        <path id="Capline-M" d="M18,276 l800,0" />
        <path id="Baseline-M" d="M18,346 l800,0" />
        <path id="Capline-L" d="M18,476 l800,0" />
        <path id="Baseline-L" d="M18,546 l800,0" />
    </g>
    <g id="Symbols">
        <g id="Ultralight-S">
            <path d="M280,102.667 L283.333,102.667 C288.856,102.667 293.333,107.144 293.333,112.667 C293.333,118.19 288.856,122.667 283.333,122.667 L280,122.667 C278.159,122.667 276.667,124.159 276.667,126 C276.667,127.841 278.159,129.333 280,129.333 L283.333,129.333 C292.538,129.333 300,121.871 300,112.667 C300,103.462 292.538,96 283.333,96 L280,96 C278.159,96 276.667,97.492 276.667,99.333 C276.667,101.174 278.159,102.667 280,102.667 Z" />
            <path d="M233.333,102.667 L280,102.667 L276.667,99.333 L276.667,129.333 C276.667,131.986 275.613,134.529 273.738,136.404 C271.862,138.28 269.319,139.333 266.667,139.333 L246.667,139.333 C244.015,139.333 241.471,138.28 239.596,136.404 C237.72,134.529 236.667,131.986 236.667,129.333 L236.667,99.333 L233.333,102.667 Z M233.333,96 C231.492,96 230,97.492 230,99.333 L230,129.333 C230,133.754 231.756,137.993 234.882,141.118 C238.007,144.244 242.246,146 246.667,146 L266.667,146 C271.087,146 275.326,144.244 278.452,141.118 C281.577,137.993 283.333,133.754 283.333,129.333 L283.333,99.333 C283.333,97.492 281.841,96 280,96 L233.333,96 Z" />
            <path d="M240,79.333 L240,86 C240,87.841 241.492,89.333 243.333,89.333 C245.174,89.333 246.667,87.841 246.667,86 L246.667,79.333 C246.667,77.492 245.174,76 243.333,76 C241.492,76 240,77.492 240,79.333 Z" />
            <path d="M253.333,79.333 L253.333,86 C253.333,87.841 254.826,89.333 256.667,89.333 C258.508,89.333 260,87.841 260,86 L260,79.333 C260,77.492 258.508,76 256.667,76 C254.826,76 253.333,77.492 253.333,79.333 Z" />
            <path d="M266.667,79.333 L266.667,86 C266.667,87.841 268.159,89.333 270,89.333 C271.841,89.333 273.333,87.841 273.333,86 L273.333,79.333 C273.333,77.492 271.841,76 270,76 C268.159,76 266.667,77.492 266.667,79.333 Z" />
        </g>
        <g id="Regular-S">
            <path d="M480,102.667 L483.333,102.667 C488.856,102.667 493.333,107.144 493.333,112.667 C493.333,118.19 488.856,122.667 483.333,122.667 L480,122.667 C478.159,122.667 476.667,124.159 476.667,126 C476.667,127.841 478.159,129.333 480,129.333 L483.333,129.333 C492.538,129.333 500,121.871 500,112.667 C500,103.462 492.538,96 483.333,96 L480,96 C478.159,96 476.667,97.492 476.667,99.333 C476.667,101.174 478.159,102.667 480,102.667 Z" />
            <path d="M433.333,102.667 L480,102.667 L476.667,99.333 L476.667,129.333 C476.667,131.986 475.613,134.529 473.738,136.404 C471.862,138.28 469.319,139.333 466.667,139.333 L446.667,139.333 C444.014,139.333 441.471,138.28 439.596,136.404 C437.72,134.529 436.667,131.986 436.667,129.333 L436.667,99.333 L433.333,102.667 Z M433.333,96 C431.492,96 430,97.492 430,99.333 L430,129.333 C430,133.754 431.756,137.993 434.882,141.118 C438.007,144.244 442.246,146 446.667,146 L466.667,146 C471.087,146 475.326,144.244 478.452,141.118 C481.577,137.993 483.333,133.754 483.333,129.333 L483.333,99.333 C483.333,97.492 481.841,96 480,96 L433.333,96 Z" />
            <path d="M440,79.333 L440,86 C440,87.841 441.492,89.333 443.333,89.333 C445.174,89.333 446.667,87.841 446.667,86 L446.667,79.333 C446.667,77.492 445.174,76 443.333,76 C441.492,76 440,77.492 440,79.333 Z" />
            <path d="M453.333,79.333 L453.333,86 C453.333,87.841 454.826,89.333 456.667,89.333 C458.508,89.333 460,87.841 460,86 L460,79.333 C460,77.492 458.508,76 456.667,76 C454.826,76 453.333,77.492 453.333,79.333 Z" />
            <path d="M466.667,79.333 L466.667,86 C466.667,87.841 468.159,89.333 470,89.333 C471.841,89.333 473.333,87.841 473.333,86 L473.333,79.333 C473.333,77.492 471.841,76 470,76 C468.159,76 466.667,77.492 466.667,79.333 Z" />
        </g>
        <g id="Black-S">
            <path d="M680,102.667 L683.333,102.667 C688.856,102.667 693.333,107.144 693.333,112.667 C693.333,118.19 688.856,122.667 683.333,122.667 L680,122.667 C678.159,122.667 676.667,124.159 676.667,126 C676.667,127.841 678.159,129.333 680,129.333 L683.333,129.333 C692.538,129.333 700,121.871 700,112.667 C700,103.462 692.538,96 683.333,96 L680,96 C678.159,96 676.667,97.492 676.667,99.333 C676.667,101.174 678.159,102.667 680,102.667 Z" />
            <path d="M633.333,102.667 L680,102.667 L676.667,99.333 L676.667,129.333 C676.667,131.986 675.613,134.529 673.738,136.404 C671.862,138.28 669.319,139.333 666.667,139.333 L646.667,139.333 C644.014,139.333 641.471,138.28 639.596,136.404 C637.72,134.529 636.667,131.986 636.667,129.333 L636.667,99.333 L633.333,102.667 Z M633.333,96 C631.492,96 630,97.492 630,99.333 L630,129.333 C630,133.754 631.756,137.993 634.882,141.118 C638.007,144.244 642.246,146 646.667,146 L666.667,146 C671.087,146 675.326,144.244 678.452,141.118 C681.577,137.993 683.333,133.754 683.333,129.333 L683.333,99.333 C683.333,97.492 681.841,96 680,96 L633.333,96 Z" />
            <path d="M640,79.333 L640,86 C640,87.841 641.492,89.333 643.333,89.333 C645.174,89.333 646.667,87.841 646.667,86 L646.667,79.333 C646.667,77.492 645.174,76 643.333,76 C641.492,76 640,77.492 640,79.333 Z" />
            <path d="M653.333,79.333 L653.333,86 C653.333,87.841 654.826,89.333 656.667,89.333 C658.508,89.333 660,87.841 660,86 L660,79.333 C660,77.492 658.508,76 656.667,76 C654.826,76 653.333,77.492 653.333,79.333 Z" />
            <path d="M666.667,79.333 L666.667,86 C666.667,87.841 668.159,89.333 670,89.333 C671.841,89.333 673.333,87.841 673.333,86 L673.333,79.333 C673.333,77.492 671.841,76 670,76 C668.159,76 666.667,77.492 666.667,79.333 Z" />
        </g>
    </g>
</svg>