<?xml version="1.0" encoding="UTF-8"?>
<svg height="600" width="800" xmlns="http://www.w3.org/2000/svg" xmlns:xlink="http://www.w3.org/1999/xlink">
    <g id="Notes" font-family="'LucidaGrande', 'Lucida Grande', sans-serif" font-size="13">
        <rect fill="white" height="600.0" width="800.0" x="0.0" y="0.0" />
        <g font-size="13">
            <text x="18.0" y="176.0">Small</text>
            <text x="18.0" y="376.0">Medium</text>
            <text x="18.0" y="576.0">Large</text>
        </g>
        <g font-size="9">
            <text x="250.0" y="30.0">Ultralight</text>
            <text x="450.0" y="30.0">Regular</text>
            <text x="650.0" y="30.0">Black</text>
            <text id="template-version" fill="#505050" text-anchor="end" x="785.0" y="575.0">Template v.3.0</text>
            <a href="https://github.com/swhitty/SwiftDraw">
                <text fill="#505050" text-anchor="end" x="785.0" y="590.0">https://github.com/swhitty/SwiftDraw</text>
            </a>
        </g>
    </g>
    <g id="Guides" stroke="rgb(39, 170, 225)" stroke-width="0.5">
        <path id="Capline-S" d="M18,76 l800,0" />
        <path id="H-reference" d="M85,145.755 L87.685,145.755 L113.369,79.287 L114.052,79.287 L114.052,76 L112.148,76 L85,145.755 Z M95.693,121.536 L130.996,121.536 L130.263,119.313 L96.474,119.313 L95.693,121.536 Z M139.15,145.755 L141.787,145.755 L114.638,76 L113.466,76 L113.466,79.287 L139.15,145.755 Z" stroke="none" />
        <path id="Baseline-S" d="M18,146 l800,0" />
        <path id="left-margin-Ultralight-S" d="M220,56 l0,110" />
        <path id="right-margin-Ultralight-S" d="M310,56 l0,110" />
        <path id="left-margin-Regular-S" d="M420,56 l0,110" />
        <path id="right-margin-Regular-S" d="M510,56 l0,110" />
        <path id="left-margin-Black-S" d="M620,56 l0,110" />
        <path id="right-margin-Black-S" d="M710,56 l0,110" />
        <path id="Capline-M" d="M18,276 l800,0" />
        <path id="Baseline-M" d="M18,346 l800,0" />
        <path id="Capline-L" d="M18,476 l800,0" />
        <path id="Baseline-L" d="M18,546 l800,0" />
    </g>
    <g id="Symbols">
        <g id="Ultralight-S">
            <path d="M255.455,111 C255.455,105.728 259.728,101.455 265,101.455 C270.272,101.455 274.545,105.728 274.545,111 C274.545,116.272 270.272,120.545 265,120.545 C259.728,120.545 255.455,116.272 255.455,111 Z M249.091,111 C249.091,119.786 256.214,126.909 265,126.909 C273.786,126.909 280.909,119.786 280.909,111 C280.909,102.214 273.786,95.091 265,95.091 C256.214,95.091 249.091,102.214 249.091,111 Z" />
            <path d="M261.818,79.182 L261.818,85.545 C261.818,87.303 263.243,88.727 265,88.727 C266.757,88.727 268.182,87.303 268.182,85.545 L268.182,79.182 C268.182,77.425 266.757,76 265,76 C263.243,76 261.818,77.425 261.818,79.182 Z" />
            <path d="M261.818,136.455 L261.818,142.818 C261.818,144.575 263.243,146 265,146 C266.757,146 268.182,144.575 268.182,142.818 L268.182,136.455 C268.182,134.697 266.757,133.273 265,133.273 C263.243,133.273 261.818,134.697 261.818,136.455 Z" />
            <path d="M240.255,90.754 L244.741,95.241 C245.984,96.483 247.998,96.483 249.241,95.241 C250.483,93.998 250.483,91.984 249.241,90.741 L244.754,86.255 C243.512,85.012 241.497,85.012 240.255,86.255 C239.012,87.497 239.012,89.512 240.255,90.754 Z" />
            <path d="M280.759,131.259 L285.246,135.745 C286.488,136.988 288.503,136.988 289.745,135.745 C290.988,134.503 290.988,132.488 289.745,131.246 L285.259,126.759 C284.016,125.517 282.002,125.517 280.759,126.759 C279.517,128.002 279.517,130.016 280.759,131.259 Z" />
            <path d="M233.182,114.182 L239.545,114.182 C241.303,114.182 242.727,112.757 242.727,111 C242.727,109.243 241.303,107.818 239.545,107.818 L233.182,107.818 C231.425,107.818 230,109.243 230,111 C230,112.757 231.425,114.182 233.182,114.182 Z" />
            <path d="M290.455,114.182 L296.818,114.182 C298.575,114.182 300,112.757 300,111 C300,109.243 298.575,107.818 296.818,107.818 L290.455,107.818 C288.697,107.818 287.273,109.243 287.273,111 C287.273,112.757 288.697,114.182 290.455,114.182 Z" />
            <path d="M244.741,126.759 L240.255,131.246 C239.012,132.488 239.012,134.503 240.255,135.745 C241.497,136.988 243.512,136.988 244.754,135.745 L249.241,131.259 C250.483,130.016 250.483,128.002 249.241,126.759 C247.998,125.517 245.984,125.517 244.741,126.759 Z" />
            <path d="M285.246,86.255 L280.759,90.741 C279.517,91.984 279.517,93.998 280.759,95.241 C282.002,96.483 284.016,96.483 285.259,95.241 L289.745,90.754 C290.988,89.512 290.988,87.497 289.745,86.255 C288.503,85.012 286.488,85.012 285.246,86.255 Z" />
        </g>
        <g id="Regular-S">
            <path d="M455.455,111 C455.455,105.728 459.728,101.455 465,101.455 C470.272,101.455 474.545,105.728 474.545,111 C474.545,116.272 470.272,120.545 465,120.545 C459.728,120.545 455.455,116.272 455.455,111 Z M449.091,111 C449.091,119.786 456.214,126.909 465,126.909 C473.786,126.909 480.909,119.786 480.909,111 C480.909,102.214 473.786,95.091 465,95.091 C456.214,95.091 449.091,102.214 449.091,111 Z" />
            <path d="M461.818,79.182 L461.818,85.545 C461.818,87.303 463.243,88.727 465,88.727 C466.757,88.727 468.182,87.303 468.182,85.545 L468.182,79.182 C468.182,77.425 466.757,76 465,76 C463.243,76 461.818,77.425 461.818,79.182 Z" />
            <path d="M461.818,136.455 L461.818,142.818 C461.818,144.575 463.243,146 465,146 C466.757,146 468.182,144.575 468.182,142.818 L468.182,136.455 C468.182,134.697 466.757,133.273 465,133.273 C463.243,133.273 461.818,134.697 461.818,136.455 Z" />
            <path d="M440.255,90.754 L444.741,95.241 C445.984,96.483 447.998,96.483 449.241,95.241 C450.483,93.998 450.483,91.984 449.241,90.741 L444.754,86.255 C443.512,85.012 441.497,85.012 440.255,86.255 C439.012,87.497 439.012,89.512 440.255,90.754 Z" />
            <path d="M480.759,131.259 L485.246,135.745 C486.488,136.988 488.503,136.988 489.745,135.745 C490.988,134.503 490.988,132.488 489.745,131.246 L485.259,126.759 C484.016,125.517 482.002,125.517 480.759,126.759 C479.517,128.002 479.517,130.016 480.759,131.259 Z" />
            <path d="M433.182,114.182 L439.545,114.182 C441.303,114.182 442.727,112.757 442.727,111 C442.727,109.243 441.303,107.818 439.545,107.818 L433.182,107.818 C431.425,107.818 430,109.243 430,111 C430,112.757 431.425,114.182 433.182,114.182 Z" />
            <path d="M490.455,114.182 L496.818,114.182 C498.575,114.182 500,112.757 500,111 C500,109.243 498.575,107.818 496.818,107.818 L490.455,107.818 C488.697,107.818 487.273,109.243 487.273,111 C487.273,112.757 488.697,114.182 490.455,114.182 Z" />
            <path d="M444.741,126.759 L440.255,131.246 C439.012,132.488 439.012,134.503 440.255,135.745 C441.497,136.988 443.512,136.988 444.754,135.745 L449.241,131.259 C450.483,130.016 450.483,128.002 449.241,126.759 C447.998,125.517 445.984,125.517 444.741,126.759 Z" />
            <path d="M485.246,86.255 L480.759,90.741 C479.517,91.984 479.517,93.998 480.759,95.241 C482.002,96.483 484.016,96.483 485.259,95.241 L489.745,90.754 C490.988,89.512 490.988,87.497 489.745,86.255 C488.503,85.012 486.488,85.012 485.246,86.255 Z" />
        </g>
        <g id="Black-S">
            <path d="M655.455,111 C655.455,105.728 659.728,101.455 665,101.455 C670.272,101.455 674.545,105.728 674.545,111 C674.545,116.272 670.272,120.545 665,120.545 C659.728,120.545 655.455,116.272 655.455,111 Z M649.091,111 C649.091,119.786 656.214,126.909 665,126.909 C673.786,126.909 680.909,119.786 680.909,111 C680.909,102.214 673.786,95.091 665,95.091 C656.214,95.091 649.091,102.214 649.091,111 Z" />
            <path d="M661.818,79.182 L661.818,85.545 C661.818,87.303 663.243,88.727 665,88.727 C666.757,88.727 668.182,87.303 668.182,85.545 L668.182,79.182 C668.182,77.425 666.757,76 665,76 C663.243,76 661.818,77.425 661.818,79.182 Z" />
            <path d="M661.818,136.455 L661.818,142.818 C661.818,144.575 663.243,146 665,146 C666.757,146 668.182,144.575 668.182,142.818 L668.182,136.455 C668.182,134.697 666.757,133.273 665,133.273 C663.243,133.273 661.818,134.697 661.818,136.455 Z" />
            <path d="M640.255,90.754 L644.741,95.241 C645.984,96.483 647.998,96.483 649.241,95.241 C650.483,93.998 650.483,91.984 649.241,90.741 L644.754,86.255 C643.512,85.012 641.497,85.012 640.255,86.255 C639.012,87.497 639.012,89.512 640.255,90.754 Z" />
            <path d="M680.759,131.259 L685.246,135.745 C686.488,136.988 688.503,136.988 689.745,135.745 C690.988,134.503 690.988,132.488 689.745,131.246 L685.259,126.759 C684.016,125.517 682.002,125.517 680.759,126.759 C679.517,128.002 679.517,130.016 680.759,131.259 Z" />
            <path d="M633.182,114.182 L639.545,114.182 C641.303,114.182 642.727,112.757 642.727,111 C642.727,109.243 641.303,107.818 639.545,107.818 L633.182,107.818 C631.425,107.818 630,109.243 630,111 C630,112.757 631.425,114.182 633.182,114.182 Z" />
            <path d="M690.455,114.182 L696.818,114.182 C698.575,114.182 700,112.757 700,111 C700,109.243 698.575,107.818 696.818,107.818 L690.455,107.818 C688.697,107.818 687.273,109.243 687.273,111 C687.273,112.757 688.697,114.182 690.455,114.182 Z" />
            <path d="M644.741,126.759 L640.255,131.246 C639.012,132.488 639.012,134.503 640.255,135.745 C641.497,136.988 643.512,136.988 644.754,135.745 L649.241,131.259 C650.483,130.016 650.483,128.002 649.241,126.759 C647.998,125.517 645.984,125.517 644.741,126.759 Z" />
            <path d="M685.246,86.255 L680.759,90.741 C679.517,91.984 679.517,93.998 680.759,95.241 C682.002,96.483 684.016,96.483 685.259,95.241 L689.745,90.754 C690.988,89.512 690.988,87.497 689.745,86.255 C688.503,85.012 686.488,85.012 685.246,86.255 Z" />
        </g>
    </g>
</svg>