<?xml version="1.0" encoding="UTF-8"?>
<svg height="600" width="800" xmlns="http://www.w3.org/2000/svg" xmlns:xlink="http://www.w3.org/1999/xlink">
    <g id="Notes" font-family="'LucidaGrande', 'Lucida Grande', sans-serif" font-size="13">
        <rect fill="white" height="600.0" width="800.0" x="0.0" y="0.0" />
        <g font-size="13">
            <text x="18.0" y="176.0">Small</text>
            <text x="18.0" y="376.0">Medium</text>
            <text x="18.0" y="576.0">Large</text>
        </g>
        <g font-size="9">
            <text x="250.0" y="30.0">Ultralight</text>
            <text x="450.0" y="30.0">Regular</text>
            <text x="650.0" y="30.0">Black</text>
            <text id="template-version" fill="#505050" text-anchor="end" x="785.0" y="575.0">Template v.3.0</text>
            <a href="https://github.com/swhitty/SwiftDraw">
                <text fill="#505050" text-anchor="end" x="785.0" y="590.0">https://github.com/swhitty/SwiftDraw</text>
            </a>
        </g>
    </g>
    <g id="Guides" stroke="rgb(39, 170, 225)" stroke-width="0.5">
        <path id="Capline-S" d="M18,76 l800,0" />
        <path id="H-reference" d="M85,145.755 L87.685,145.755 L113.369,79.287 L114.052,79.287 L114.052,76 L112.148,76 L85,145.755 Z M95.693,121.536 L130.996,121.536 L130.263,119.313 L96.474,119.313 L95.693,121.536 Z M139.15,145.755 L141.787,145.755 L114.638,76 L113.466,76 L113.466,79.287 L139.15,145.755 Z" stroke="none" />
        <path id="Baseline-S" d="M18,146 l800,0" />
        <path id="left-margin-Ultralight-S" d="M220,56 l0,110" />
        <path id="right-margin-Ultralight-S" d="M310,56 l0,110" />
        <path id="left-margin-Regular-S" d="M420,56 l0,110" />
        <path id="right-margin-Regular-S" d="M510,56 l0,110" />
        <path id="left-margin-Black-S" d="M620,56 l0,110" />
        <path id="right-margin-Black-S" d="M710,56 l0,110" />
        <path id="Capline-M" d="M18,276 l800,0" />
        <path id="Baseline-M" d="M18,346 l800,0" />
        <path id="Capline-L" d="M18,476 l800,0" />
        <path id="Baseline-L" d="M18,546 l800,0" />
    </g>
    <g id="Symbols">
        <g id="Ultralight-S">
            <path d="M275.5,83 L296.5,83 L293,79.5 L293,100.5 C293,102.433 294.567,104 296.5,104 C298.433,104 300,102.433 300,100.5 L300,79.5 C300,77.567 298.433,76 296.5,76 L275.5,76 C273.567,76 272,77.567 272,79.5 C272,81.433 273.567,83 275.5,83 Z" />
            <path d="M260.475,120.475 L298.975,81.975 C300.342,80.608 300.342,78.392 298.975,77.025 C297.608,75.658 295.392,75.658 294.025,77.025 L255.525,115.525 C254.158,116.892 254.158,119.108 255.525,120.475 C256.892,121.842 259.108,121.842 260.475,120.475 Z" />
            <path d="M282.5,114.5 L282.5,135.5 C282.5,136.428 282.131,137.318 281.475,137.975 C280.818,138.631 279.928,139 279,139 L240.5,139 C239.572,139 238.682,138.631 238.025,137.975 C237.369,137.318 237,136.428 237,135.5 L237,97 C237,96.072 237.369,95.182 238.025,94.525 C238.682,93.869 239.572,93.5 240.5,93.5 L261.5,93.5 C263.433,93.5 265,91.933 265,90 C265,88.067 263.433,86.5 261.5,86.5 L240.5,86.5 C237.715,86.5 235.045,87.606 233.075,89.575 C231.106,91.545 230,94.215 230,97 L230,135.5 C230,138.285 231.106,140.955 233.075,142.925 C235.045,144.894 237.715,146 240.5,146 L279,146 C281.785,146 284.455,144.894 286.425,142.925 C288.394,140.955 289.5,138.285 289.5,135.5 L289.5,114.5 C289.5,112.567 287.933,111 286,111 C284.067,111 282.5,112.567 282.5,114.5 Z" />
        </g>
        <g id="Regular-S">
            <path d="M475.5,83 L496.5,83 L493,79.5 L493,100.5 C493,102.433 494.567,104 496.5,104 C498.433,104 500,102.433 500,100.5 L500,79.5 C500,77.567 498.433,76 496.5,76 L475.5,76 C473.567,76 472,77.567 472,79.5 C472,81.433 473.567,83 475.5,83 Z" />
            <path d="M460.475,120.475 L498.975,81.975 C500.342,80.608 500.342,78.392 498.975,77.025 C497.608,75.658 495.392,75.658 494.025,77.025 L455.525,115.525 C454.158,116.892 454.158,119.108 455.525,120.475 C456.892,121.842 459.108,121.842 460.475,120.475 Z" />
            <path d="M482.5,114.5 L482.5,135.5 C482.5,136.428 482.131,137.318 481.475,137.975 C480.818,138.631 479.928,139 479,139 L440.5,139 C439.572,139 438.682,138.631 438.025,137.975 C437.369,137.318 437,136.428 437,135.5 L437,97 C437,96.072 437.369,95.182 438.025,94.525 C438.682,93.869 439.572,93.5 440.5,93.5 L461.5,93.5 C463.433,93.5 465,91.933 465,90 C465,88.067 463.433,86.5 461.5,86.5 L440.5,86.5 C437.715,86.5 435.044,87.606 433.075,89.575 C431.106,91.545 430,94.215 430,97 L430,135.5 C430,138.285 431.106,140.955 433.075,142.925 C435.045,144.894 437.715,146 440.5,146 L479,146 C481.785,146 484.455,144.894 486.425,142.925 C488.394,140.955 489.5,138.285 489.5,135.5 L489.5,114.5 C489.5,112.567 487.933,111 486,111 C484.067,111 482.5,112.567 482.5,114.5 Z" />
        </g>
        <g id="Black-S">
            <path d="M675.5,83 L696.5,83 L693,79.5 L693,100.5 C693,102.433 694.567,104 696.5,104 C698.433,104 700,102.433 700,100.5 L700,79.5 C700,77.567 698.433,76 696.5,76 L675.5,76 C673.567,76 672,77.567 672,79.5 C672,81.433 673.567,83 675.5,83 Z" />
            <path d="M660.475,120.475 L698.975,81.975 C700.342,80.608 700.342,78.392 698.975,77.025 C697.608,75.658 695.392,75.658 694.025,77.025 L655.525,115.525 C654.158,116.892 654.158,119.108 655.525,120.475 C656.892,121.842 659.108,121.842 660.475,120.475 Z" />
            <path d="M682.5,114.5 L682.5,135.5 C682.5,136.428 682.131,137.318 681.475,137.975 C680.818,138.631 679.928,139 679,139 L640.5,139 C639.572,139 638.682,138.631 638.025,137.975 C637.369,137.318 637,136.428 637,135.5 L637,97 C637,96.072 637.369,95.182 638.025,94.525 C638.682,93.869 639.572,93.5 640.5,93.5 L661.5,93.5 C663.433,93.5 665,91.933 665,90 C665,88.067 663.433,86.5 661.5,86.5 L640.5,86.5 C637.715,86.5 635.044,87.606 633.075,89.575 C631.106,91.545 630,94.215 630,97 L630,135.5 C630,138.285 631.106,140.955 633.075,142.925 C635.044,144.894 637.715,146 640.5,146 L679,146 C681.785,146 684.456,144.894 686.425,142.925 C688.394,140.955 689.5,138.285 689.5,135.5 L689.5,114.5 C689.5,112.567 687.933,111 686,111 C684.067,111 682.5,112.567 682.5,114.5 Z" />
        </g>
    </g>
</svg>