<?xml version="1.0" encoding="UTF-8"?>
<svg height="600" width="800" xmlns="http://www.w3.org/2000/svg" xmlns:xlink="http://www.w3.org/1999/xlink">
    <g id="Notes" font-family="'LucidaGrande', 'Lucida Grande', sans-serif" font-size="13">
        <rect fill="white" height="600.0" width="800.0" x="0.0" y="0.0" />
        <g font-size="13">
            <text x="18.0" y="176.0">Small</text>
            <text x="18.0" y="376.0">Medium</text>
            <text x="18.0" y="576.0">Large</text>
        </g>
        <g font-size="9">
            <text x="250.0" y="30.0">Ultralight</text>
            <text x="450.0" y="30.0">Regular</text>
            <text x="650.0" y="30.0">Black</text>
            <text id="template-version" fill="#505050" text-anchor="end" x="785.0" y="575.0">Template v.3.0</text>
            <a href="https://github.com/swhitty/SwiftDraw">
                <text fill="#505050" text-anchor="end" x="785.0" y="590.0">https://github.com/swhitty/SwiftDraw</text>
            </a>
        </g>
    </g>
    <g id="Guides" stroke="rgb(39, 170, 225)" stroke-width="0.5">
        <path id="Capline-S" d="M18,76 l800,0" />
        <path id="H-reference" d="M85,145.755 L87.685,145.755 L113.369,79.287 L114.052,79.287 L114.052,76 L112.148,76 L85,145.755 Z M95.693,121.536 L130.996,121.536 L130.263,119.313 L96.474,119.313 L95.693,121.536 Z M139.15,145.755 L141.787,145.755 L114.638,76 L113.466,76 L113.466,79.287 L139.15,145.755 Z" stroke="none" />
        <path id="Baseline-S" d="M18,146 l800,0" />
        <path id="left-margin-Ultralight-S" d="M221,56 l0,110" />
        <path id="right-margin-Ultralight-S" d="M309,56 l0,110" />
        <path id="left-margin-Regular-S" d="M421,56 l0,110" />
        <path id="right-margin-Regular-S" d="M509,56 l0,110" />
        <path id="left-margin-Black-S" d="M621,56 l0,110" />
        <path id="right-margin-Black-S" d="M709,56 l0,110" />
        <path id="Capline-M" d="M18,276 l800,0" />
        <path id="Baseline-M" d="M18,346 l800,0" />
        <path id="Capline-L" d="M18,476 l800,0" />
        <path id="Baseline-L" d="M18,546 l800,0" />
    </g>
    <g id="Symbols">
        <g id="Ultralight-S">
            <path d="M249.091,79.182 L249.091,91.909 C249.091,93.666 250.515,95.091 252.273,95.091 C254.03,95.091 255.455,93.666 255.455,91.909 L255.455,79.182 C255.455,77.425 254.03,76 252.273,76 C250.515,76 249.091,77.425 249.091,79.182 Z" />
            <path d="M261.818,79.182 L261.818,91.909 C261.818,93.666 263.243,95.091 265,95.091 C266.757,95.091 268.182,93.666 268.182,91.909 L268.182,79.182 C268.182,77.425 266.757,76 265,76 C263.243,76 261.818,77.425 261.818,79.182 Z" />
            <path d="M274.545,79.182 L274.545,91.909 C274.545,93.666 275.97,95.091 277.727,95.091 C279.485,95.091 280.909,93.666 280.909,91.909 L280.909,79.182 C280.909,77.425 279.485,76 277.727,76 C275.97,76 274.545,77.425 274.545,79.182 Z" />
            <path d="M287.273,114.182 L287.273,136.455 C287.273,137.298 286.938,138.108 286.341,138.704 C285.744,139.301 284.935,139.636 284.091,139.636 L245.909,139.636 C245.065,139.636 244.256,139.301 243.659,138.704 C243.062,138.108 242.727,137.298 242.727,136.455 L242.727,91.909 C242.727,91.065 243.062,90.256 243.659,89.659 C244.256,89.062 245.065,88.727 245.909,88.727 L284.091,88.727 C284.935,88.727 285.744,89.062 286.341,89.659 C286.938,90.256 287.273,91.065 287.273,91.909 L287.273,114.182 Z M293.636,114.182 L293.636,91.909 C293.636,89.377 292.631,86.95 290.841,85.159 C289.05,83.369 286.623,82.364 284.091,82.364 L245.909,82.364 C243.377,82.364 240.95,83.369 239.159,85.159 C237.369,86.95 236.364,89.377 236.364,91.909 L236.364,136.455 C236.364,138.986 237.369,141.414 239.159,143.204 C240.95,144.994 243.377,146 245.909,146 L284.091,146 C286.623,146 289.05,144.994 290.841,143.204 C292.631,141.414 293.636,138.986 293.636,136.455 L293.636,114.182 Z" />
            <path d="M252.273,107.818 L271.364,107.818 C273.121,107.818 274.545,106.394 274.545,104.636 C274.545,102.879 273.121,101.455 271.364,101.455 L252.273,101.455 C250.515,101.455 249.091,102.879 249.091,104.636 C249.091,106.394 250.515,107.818 252.273,107.818 Z" />
            <path d="M252.273,120.545 L277.727,120.545 C279.485,120.545 280.909,119.121 280.909,117.364 C280.909,115.606 279.485,114.182 277.727,114.182 L252.273,114.182 C250.515,114.182 249.091,115.606 249.091,117.364 C249.091,119.121 250.515,120.545 252.273,120.545 Z" />
            <path d="M252.273,133.273 L268.182,133.273 C269.939,133.273 271.364,131.848 271.364,130.091 C271.364,128.334 269.939,126.909 268.182,126.909 L252.273,126.909 C250.515,126.909 249.091,128.334 249.091,130.091 C249.091,131.848 250.515,133.273 252.273,133.273 Z" />
        </g>
        <g id="Regular-S">
            <path d="M449.091,79.182 L449.091,91.909 C449.091,93.666 450.515,95.091 452.273,95.091 C454.03,95.091 455.455,93.666 455.455,91.909 L455.455,79.182 C455.455,77.425 454.03,76 452.273,76 C450.515,76 449.091,77.425 449.091,79.182 Z" />
            <path d="M461.818,79.182 L461.818,91.909 C461.818,93.666 463.243,95.091 465,95.091 C466.757,95.091 468.182,93.666 468.182,91.909 L468.182,79.182 C468.182,77.425 466.757,76 465,76 C463.243,76 461.818,77.425 461.818,79.182 Z" />
            <path d="M474.545,79.182 L474.545,91.909 C474.545,93.666 475.97,95.091 477.727,95.091 C479.485,95.091 480.909,93.666 480.909,91.909 L480.909,79.182 C480.909,77.425 479.485,76 477.727,76 C475.97,76 474.545,77.425 474.545,79.182 Z" />
            <path d="M487.273,114.182 L487.273,136.455 C487.273,137.298 486.938,138.108 486.341,138.704 C485.744,139.301 484.935,139.636 484.091,139.636 L445.909,139.636 C445.065,139.636 444.256,139.301 443.659,138.704 C443.062,138.108 442.727,137.298 442.727,136.455 L442.727,91.909 C442.727,91.065 443.062,90.256 443.659,89.659 C444.256,89.062 445.065,88.727 445.909,88.727 L484.091,88.727 C484.935,88.727 485.744,89.062 486.341,89.659 C486.938,90.256 487.273,91.065 487.273,91.909 L487.273,114.182 Z M493.636,114.182 L493.636,91.909 C493.636,89.377 492.631,86.95 490.841,85.159 C489.05,83.369 486.623,82.364 484.091,82.364 L445.909,82.364 C443.377,82.364 440.95,83.369 439.159,85.159 C437.369,86.95 436.364,89.377 436.364,91.909 L436.364,136.455 C436.364,138.986 437.369,141.414 439.159,143.204 C440.95,144.994 443.377,146 445.909,146 L484.091,146 C486.623,146 489.05,144.994 490.841,143.204 C492.631,141.414 493.636,138.986 493.636,136.455 L493.636,114.182 Z" />
            <path d="M452.273,107.818 L471.364,107.818 C473.121,107.818 474.545,106.394 474.545,104.636 C474.545,102.879 473.121,101.455 471.364,101.455 L452.273,101.455 C450.515,101.455 449.091,102.879 449.091,104.636 C449.091,106.394 450.515,107.818 452.273,107.818 Z" />
            <path d="M452.273,120.545 L477.727,120.545 C479.485,120.545 480.909,119.121 480.909,117.364 C480.909,115.606 479.485,114.182 477.727,114.182 L452.273,114.182 C450.515,114.182 449.091,115.606 449.091,117.364 C449.091,119.121 450.515,120.545 452.273,120.545 Z" />
            <path d="M452.273,133.273 L468.182,133.273 C469.939,133.273 471.364,131.848 471.364,130.091 C471.364,128.334 469.939,126.909 468.182,126.909 L452.273,126.909 C450.515,126.909 449.091,128.334 449.091,130.091 C449.091,131.848 450.515,133.273 452.273,133.273 Z" />
        </g>
        <g id="Black-S">
            <path d="M649.091,79.182 L649.091,91.909 C649.091,93.666 650.515,95.091 652.273,95.091 C654.03,95.091 655.455,93.666 655.455,91.909 L655.455,79.182 C655.455,77.425 654.03,76 652.273,76 C650.515,76 649.091,77.425 649.091,79.182 Z" />
            <path d="M661.818,79.182 L661.818,91.909 C661.818,93.666 663.243,95.091 665,95.091 C666.757,95.091 668.182,93.666 668.182,91.909 L668.182,79.182 C668.182,77.425 666.757,76 665,76 C663.243,76 661.818,77.425 661.818,79.182 Z" />
            <path d="M674.545,79.182 L674.545,91.909 C674.545,93.666 675.97,95.091 677.727,95.091 C679.485,95.091 680.909,93.666 680.909,91.909 L680.909,79.182 C680.909,77.425 679.485,76 677.727,76 C675.97,76 674.545,77.425 674.545,79.182 Z" />
            <path d="M687.273,114.182 L687.273,136.455 C687.273,137.298 686.938,138.108 686.341,138.704 C685.744,139.301 684.935,139.636 684.091,139.636 L645.909,139.636 C645.065,139.636 644.256,139.301 643.659,138.704 C643.062,138.108 642.727,137.298 642.727,136.455 L642.727,91.909 C642.727,91.065 643.062,90.256 643.659,89.659 C644.256,89.062 645.065,88.727 645.909,88.727 L684.091,88.727 C684.935,88.727 685.744,89.062 686.341,89.659 C686.938,90.256 687.273,91.065 687.273,91.909 L687.273,114.182 Z M693.636,114.182 L693.636,91.909 C693.636,89.377 692.631,86.95 690.841,85.159 C689.05,83.369 686.622,82.364 684.091,82.364 L645.909,82.364 C643.378,82.364 640.95,83.369 639.159,85.159 C637.369,86.95 636.364,89.377 636.364,91.909 L636.364,136.455 C636.364,138.986 637.369,141.414 639.159,143.204 C640.95,144.994 643.378,146 645.909,146 L684.091,146 C686.622,146 689.05,144.994 690.841,143.204 C692.631,141.414 693.636,138.986 693.636,136.455 L693.636,114.182 Z" />
            <path d="M652.273,107.818 L671.364,107.818 C673.121,107.818 674.545,106.394 674.545,104.636 C674.545,102.879 673.121,101.455 671.364,101.455 L652.273,101.455 C650.515,101.455 649.091,102.879 649.091,104.636 C649.091,106.394 650.515,107.818 652.273,107.818 Z" />
            <path d="M652.273,120.545 L677.727,120.545 C679.485,120.545 680.909,119.121 680.909,117.364 C680.909,115.606 679.485,114.182 677.727,114.182 L652.273,114.182 C650.515,114.182 649.091,115.606 649.091,117.364 C649.091,119.121 650.515,120.545 652.273,120.545 Z" />
            <path d="M652.273,133.273 L668.182,133.273 C669.939,133.273 671.364,131.848 671.364,130.091 C671.364,128.334 669.939,126.909 668.182,126.909 L652.273,126.909 C650.515,126.909 649.091,128.334 649.091,130.091 C649.091,131.848 650.515,133.273 652.273,133.273 Z" />
        </g>
    </g>
</svg>