<?xml version="1.0" encoding="UTF-8"?>
<svg height="600" width="800" xmlns="http://www.w3.org/2000/svg" xmlns:xlink="http://www.w3.org/1999/xlink">
    <g id="Notes" font-family="'LucidaGrande', 'Lucida Grande', sans-serif" font-size="13">
        <rect fill="white" height="600.0" width="800.0" x="0.0" y="0.0" />
        <g font-size="13">
            <text x="18.0" y="176.0">Small</text>
            <text x="18.0" y="376.0">Medium</text>
            <text x="18.0" y="576.0">Large</text>
        </g>
        <g font-size="9">
            <text x="250.0" y="30.0">Ultralight</text>
            <text x="450.0" y="30.0">Regular</text>
            <text x="650.0" y="30.0">Black</text>
            <text id="template-version" fill="#505050" text-anchor="end" x="785.0" y="575.0">Template v.3.0</text>
            <a href="https://github.com/swhitty/SwiftDraw">
                <text fill="#505050" text-anchor="end" x="785.0" y="590.0">https://github.com/swhitty/SwiftDraw</text>
            </a>
        </g>
    </g>
    <g id="Guides" stroke="rgb(39, 170, 225)" stroke-width="0.5">
        <path id="Capline-S" d="M18,76 l800,0" />
        <path id="H-reference" d="M85,145.755 L87.685,145.755 L113.369,79.287 L114.052,79.287 L114.052,76 L112.148,76 L85,145.755 Z M95.693,121.536 L130.996,121.536 L130.263,119.313 L96.474,119.313 L95.693,121.536 Z M139.15,145.755 L141.787,145.755 L114.638,76 L113.466,76 L113.466,79.287 L139.15,145.755 Z" stroke="none" />
        <path id="Baseline-S" d="M18,146 l800,0" />
        <path id="left-margin-Ultralight-S" d="M216.496,56 l0,110" />
        <path id="right-margin-Ultralight-S" d="M313.504,56 l0,110" />
        <path id="left-margin-Regular-S" d="M416.496,56 l0,110" />
        <path id="right-margin-Regular-S" d="M513.504,56 l0,110" />
        <path id="left-margin-Black-S" d="M616.496,56 l0,110" />
        <path id="right-margin-Black-S" d="M713.504,56 l0,110" />
        <path id="Capline-M" d="M18,276 l800,0" />
        <path id="Baseline-M" d="M18,346 l800,0" />
        <path id="Capline-L" d="M18,476 l800,0" />
        <path id="Baseline-L" d="M18,546 l800,0" />
    </g>
    <g id="Symbols">
        <g id="Ultralight-S">
            <path d="M299.998,76 L230.002,76 C227.023,76 225.406,79.485 227.33,81.76 L255.328,114.868 L254.501,112.608 L254.501,135.496 C254.501,136.822 255.25,138.034 256.435,138.626 L270.434,145.626 C272.761,146.79 275.499,145.097 275.499,142.496 L275.499,112.608 L274.672,114.868 L302.67,81.76 C304.594,79.485 302.977,76 299.998,76 Z M299.998,83 L297.325,77.24 L269.327,110.348 C268.793,110.98 268.5,111.78 268.5,112.608 L268.5,142.496 L273.565,139.365 L259.566,132.366 L261.5,135.496 L261.5,112.608 C261.5,111.78 261.207,110.98 260.673,110.348 L232.675,77.24 L230.002,83 L299.998,83 Z" />
        </g>
        <g id="Regular-S">
            <path d="M499.998,76 L430.002,76 C427.023,76 425.406,79.485 427.33,81.76 L455.328,114.868 L454.501,112.608 L454.501,135.496 C454.501,136.822 455.25,138.034 456.435,138.626 L470.434,145.626 C472.761,146.79 475.499,145.097 475.499,142.496 L475.499,112.608 L474.672,114.868 L502.67,81.76 C504.594,79.485 502.977,76 499.998,76 Z M499.998,83 L497.325,77.24 L469.327,110.348 C468.793,110.98 468.5,111.78 468.5,112.608 L468.5,142.496 L473.565,139.365 L459.566,132.366 L461.5,135.496 L461.5,112.608 C461.5,111.78 461.207,110.98 460.673,110.348 L432.675,77.24 L430.002,83 L499.998,83 Z" />
        </g>
        <g id="Black-S">
            <path d="M699.998,76 L630.002,76 C627.023,76 625.406,79.485 627.33,81.76 L655.328,114.868 L654.501,112.608 L654.501,135.496 C654.501,136.822 655.25,138.034 656.435,138.626 L670.434,145.626 C672.761,146.79 675.499,145.097 675.499,142.496 L675.499,112.608 L674.672,114.868 L702.67,81.76 C704.594,79.485 702.977,76 699.998,76 Z M699.998,83 L697.325,77.24 L669.327,110.348 C668.793,110.98 668.5,111.78 668.5,112.608 L668.5,142.496 L673.565,139.365 L659.566,132.366 L661.5,135.496 L661.5,112.608 C661.5,111.78 661.207,110.98 660.673,110.348 L632.675,77.24 L630.002,83 L699.998,83 Z" />
        </g>
    </g>
</svg>