<?xml version="1.0" encoding="UTF-8"?>
<svg height="600" width="800" xmlns="http://www.w3.org/2000/svg" xmlns:xlink="http://www.w3.org/1999/xlink">
    <g id="Notes" font-family="'LucidaGrande', 'Lucida Grande', sans-serif" font-size="13">
        <rect fill="white" height="600.0" width="800.0" x="0.0" y="0.0" />
        <g font-size="13">
            <text x="18.0" y="176.0">Small</text>
            <text x="18.0" y="376.0">Medium</text>
            <text x="18.0" y="576.0">Large</text>
        </g>
        <g font-size="9">
            <text x="250.0" y="30.0">Ultralight</text>
            <text x="450.0" y="30.0">Regular</text>
            <text x="650.0" y="30.0">Black</text>
            <text id="template-version" fill="#505050" text-anchor="end" x="785.0" y="575.0">Template v.3.0</text>
            <a href="https://github.com/swhitty/SwiftDraw">
                <text fill="#505050" text-anchor="end" x="785.0" y="590.0">https://github.com/swhitty/SwiftDraw</text>
            </a>
        </g>
    </g>
    <g id="Guides" stroke="rgb(39, 170, 225)" stroke-width="0.5">
        <path id="Capline-S" d="M18,76 l800,0" />
        <path id="H-reference" d="M85,145.755 L87.685,145.755 L113.369,79.287 L114.052,79.287 L114.052,76 L112.148,76 L85,145.755 Z M95.693,121.536 L130.996,121.536 L130.263,119.313 L96.474,119.313 L95.693,121.536 Z M139.15,145.755 L141.787,145.755 L114.638,76 L113.466,76 L113.466,79.287 L139.15,145.755 Z" stroke="none" transform="translate(0,0)" />
        <path id="Baseline-S" d="M18,146 l800,0" />
        <path id="left-margin-Ultralight-S" d="M230,56 l0,110" />
        <path id="right-margin-Ultralight-S" d="M300,56 l0,110" />
        <path id="left-margin-Regular-S" d="M430,56 l0,110" />
        <path id="right-margin-Regular-S" d="M500,56 l0,110" />
        <path id="left-margin-Black-S" d="M630,56 l0,110" />
        <path id="right-margin-Black-S" d="M700,56 l0,110" />
        <path id="Capline-M" d="M18,276 l800,0" />
        <path id="Baseline-M" d="M18,346 l800,0" />
        <path id="Capline-L" d="M18,476 l800,0" />
        <path id="Baseline-L" d="M18,546 l800,0" />
    </g>
    <g id="Symbols">
        <g id="Ultralight-S" transform="translate(0,0)">
            <path d="M254.5,138.998 C254.499,141.651 255.998,144.077 258.371,145.263 L265.37,148.763 C267.541,149.848 270.119,149.731 272.182,148.455 C274.246,147.179 275.501,144.925 275.5,142.498 L275.5,118 C275.5,117.134 275.823,116.298 276.405,115.655 L301.686,87.692 C303.54,85.639 304.011,82.69 302.892,80.164 C301.772,77.638 299.271,76.007 296.508,76 L233.5,76 C230.733,76.001 228.227,77.63 227.104,80.158 C225.981,82.685 226.452,85.637 228.305,87.69 L253.595,115.654 C254.177,116.298 254.5,117.134 254.5,118.002 L254.5,139 Z M261.5,139 L261.5,118 C261.499,115.396 260.532,112.888 258.786,110.958 L233.499,82.997 C233.501,83 233.501,83 233.501,83 C233.501,83 233.501,83 233.501,83 L296.5,83 C296.492,83 296.492,83 296.492,83 C296.492,83 296.492,83 296.492,83 L271.213,110.959 C269.469,112.887 268.501,115.396 268.5,117.998 L268.5,142.5 C268.5,142.502 268.5,142.502 268.5,142.502 C268.5,142.502 268.5,142.502 268.5,142.502 L261.501,139.002 C261.5,139.002 261.5,139.002 261.5,139.002 Z" />
        </g>
        <g id="Regular-S" transform="translate(0,0)">
            <path d="M454.5,138.998 C454.499,141.651 455.998,144.077 458.371,145.263 L465.37,148.763 C467.541,149.848 470.119,149.731 472.182,148.455 C474.246,147.179 475.501,144.925 475.5,142.498 L475.5,118 C475.5,117.134 475.823,116.298 476.405,115.655 L501.686,87.692 C503.54,85.639 504.011,82.69 502.892,80.164 C501.772,77.638 499.271,76.007 496.508,76 L433.5,76 C430.733,76.001 428.227,77.63 427.104,80.158 C425.981,82.685 426.452,85.637 428.305,87.69 L453.595,115.654 C454.177,116.298 454.5,117.134 454.5,118.002 L454.5,139 Z M461.5,139 L461.5,118 C461.499,115.396 460.532,112.888 458.786,110.958 L433.499,82.997 C433.501,83 433.501,83 433.501,83 C433.501,83 433.501,83 433.501,83 L496.5,83 C496.492,83 496.492,83 496.492,83 C496.492,83 496.492,83 496.492,83 L471.213,110.959 C469.469,112.887 468.501,115.396 468.5,117.998 L468.5,142.5 C468.5,142.502 468.5,142.502 468.5,142.502 C468.5,142.502 468.5,142.502 468.5,142.502 L461.501,139.002 C461.5,139.002 461.5,139.002 461.5,139.002 Z" />
        </g>
        <g id="Black-S" transform="translate(0,0)">
            <path d="M654.5,138.998 C654.499,141.651 655.998,144.077 658.371,145.263 L665.37,148.763 C667.541,149.848 670.119,149.731 672.182,148.455 C674.246,147.179 675.501,144.925 675.5,142.498 L675.5,118 C675.5,117.134 675.823,116.298 676.405,115.655 L701.686,87.692 C703.54,85.639 704.011,82.69 702.892,80.164 C701.772,77.638 699.271,76.007 696.508,76 L633.5,76 C630.733,76.001 628.227,77.63 627.104,80.158 C625.981,82.685 626.452,85.637 628.305,87.69 L653.595,115.654 C654.177,116.298 654.5,117.134 654.5,118.002 L654.5,139 Z M661.5,139 L661.5,118 C661.499,115.396 660.532,112.888 658.786,110.958 L633.499,82.997 C633.501,83 633.501,83 633.501,83 C633.501,83 633.501,83 633.501,83 L696.5,83 C696.492,83 696.492,83 696.492,83 C696.492,83 696.492,83 696.492,83 L671.213,110.959 C669.469,112.887 668.501,115.396 668.5,117.998 L668.5,142.5 C668.5,142.502 668.5,142.502 668.5,142.502 C668.5,142.502 668.5,142.502 668.5,142.502 L661.501,139.002 C661.5,139.002 661.5,139.002 661.5,139.002 Z" />
        </g>
    </g>
</svg>