<?xml version="1.0" encoding="UTF-8"?>
<svg height="600" width="800" xmlns="http://www.w3.org/2000/svg" xmlns:xlink="http://www.w3.org/1999/xlink">
    <g id="Notes" font-family="'LucidaGrande', 'Lucida Grande', sans-serif" font-size="13">
        <rect fill="white" height="600.0" width="800.0" x="0.0" y="0.0" />
        <g font-size="13">
            <text x="18.0" y="176.0">Small</text>
            <text x="18.0" y="376.0">Medium</text>
            <text x="18.0" y="576.0">Large</text>
        </g>
        <g font-size="9">
            <text x="250.0" y="30.0">Ultralight</text>
            <text x="450.0" y="30.0">Regular</text>
            <text x="650.0" y="30.0">Black</text>
            <text id="template-version" fill="#505050" text-anchor="end" x="785.0" y="575.0">Template v.3.0</text>
            <a href="https://github.com/swhitty/SwiftDraw">
                <text fill="#505050" text-anchor="end" x="785.0" y="590.0">https://github.com/swhitty/SwiftDraw</text>
            </a>
        </g>
    </g>
    <g id="Guides" stroke="rgb(39, 170, 225)" stroke-width="0.5">
        <path id="Capline-S" d="M18,76 l800,0" />
        <path id="H-reference" d="M85,145.755 L87.685,145.755 L113.369,79.287 L114.052,79.287 L114.052,76 L112.148,76 L85,145.755 Z M95.693,121.536 L130.996,121.536 L130.263,119.313 L96.474,119.313 L95.693,121.536 Z M139.15,145.755 L141.787,145.755 L114.638,76 L113.466,76 L113.466,79.287 L139.15,145.755 Z" stroke="none" />
        <path id="Baseline-S" d="M18,146 l800,0" />
        <path id="left-margin-Ultralight-S" d="M221,56 l0,110" />
        <path id="right-margin-Ultralight-S" d="M309,56 l0,110" />
        <path id="left-margin-Regular-S" d="M421,56 l0,110" />
        <path id="right-margin-Regular-S" d="M509,56 l0,110" />
        <path id="left-margin-Black-S" d="M621,56 l0,110" />
        <path id="right-margin-Black-S" d="M709,56 l0,110" />
        <path id="Capline-M" d="M18,276 l800,0" />
        <path id="Baseline-M" d="M18,346 l800,0" />
        <path id="Capline-L" d="M18,476 l800,0" />
        <path id="Baseline-L" d="M18,546 l800,0" />
    </g>
    <g id="Symbols">
        <g id="Ultralight-S">
            <path d="M290.455,114.182 L290.455,136.455 C290.455,137.298 290.119,138.108 289.523,138.704 C288.926,139.301 288.117,139.636 287.273,139.636 L242.727,139.636 C241.883,139.636 241.074,139.301 240.477,138.704 C239.881,138.108 239.545,137.298 239.545,136.455 L239.545,91.909 C239.545,91.065 239.881,90.256 240.477,89.659 C241.074,89.062 241.883,88.727 242.727,88.727 L287.273,88.727 C288.117,88.727 288.926,89.062 289.523,89.659 C290.119,90.256 290.455,91.065 290.455,91.909 L290.455,114.182 Z M296.818,114.182 L296.818,91.909 C296.818,89.377 295.812,86.95 294.022,85.159 C292.232,83.369 289.804,82.364 287.273,82.364 L242.727,82.364 C240.196,82.364 237.768,83.369 235.978,85.159 C234.187,86.95 233.182,89.377 233.182,91.909 L233.182,136.455 C233.182,138.986 234.187,141.414 235.978,143.204 C237.768,144.994 240.196,146 242.727,146 L287.273,146 C289.804,146 292.232,144.994 294.022,143.204 C295.812,141.414 296.818,138.986 296.818,136.455 L296.818,114.182 Z" />
            <path d="M274.545,79.182 L274.545,91.909 C274.545,93.666 275.97,95.091 277.727,95.091 C279.485,95.091 280.909,93.666 280.909,91.909 L280.909,79.182 C280.909,77.425 279.485,76 277.727,76 C275.97,76 274.545,77.425 274.545,79.182 Z" />
            <path d="M236.364,107.818 L293.636,107.818 C295.394,107.818 296.818,106.394 296.818,104.636 C296.818,102.879 295.394,101.455 293.636,101.455 L236.364,101.455 C234.606,101.455 233.182,102.879 233.182,104.636 C233.182,106.394 234.606,107.818 236.364,107.818 Z" />
            <path d="M249.091,79.182 L249.091,91.909 C249.091,93.666 250.515,95.091 252.273,95.091 C254.03,95.091 255.455,93.666 255.455,91.909 L255.455,79.182 C255.455,77.425 254.03,76 252.273,76 C250.515,76 249.091,77.425 249.091,79.182 Z" />
            <path d="M280.909,114.182 L261.818,114.182 C260.061,114.182 258.636,115.606 258.636,117.364 C258.636,119.121 260.061,120.545 261.818,120.545 L280.909,120.545 C282.666,120.545 284.091,119.121 284.091,117.364 C284.091,115.606 282.666,114.182 280.909,114.182 Z" />
            <path d="M268.182,126.909 L249.091,126.909 C247.334,126.909 245.909,128.334 245.909,130.091 C245.909,131.848 247.334,133.273 249.091,133.273 L268.182,133.273 C269.939,133.273 271.364,131.848 271.364,130.091 C271.364,128.334 269.939,126.909 268.182,126.909 Z" />
            <path d="M249.091,120.545 L249.123,120.545 C250.88,120.545 252.305,119.121 252.305,117.364 C252.305,115.606 250.88,114.182 249.123,114.182 L249.091,114.182 C247.334,114.182 245.909,115.606 245.909,117.364 C245.909,119.121 247.334,120.545 249.091,120.545 Z" />
            <path d="M280.909,133.273 L280.941,133.273 C282.698,133.273 284.123,131.848 284.123,130.091 C284.123,128.334 282.698,126.909 280.941,126.909 L280.909,126.909 C279.152,126.909 277.727,128.334 277.727,130.091 C277.727,131.848 279.152,133.273 280.909,133.273 Z" />
        </g>
        <g id="Regular-S">
            <path d="M490.455,114.182 L490.455,136.455 C490.455,137.298 490.119,138.108 489.523,138.704 C488.926,139.301 488.117,139.636 487.273,139.636 L442.727,139.636 C441.883,139.636 441.074,139.301 440.477,138.704 C439.881,138.108 439.545,137.298 439.545,136.455 L439.545,91.909 C439.545,91.065 439.881,90.256 440.477,89.659 C441.074,89.062 441.883,88.727 442.727,88.727 L487.273,88.727 C488.117,88.727 488.926,89.062 489.523,89.659 C490.119,90.256 490.455,91.065 490.455,91.909 L490.455,114.182 Z M496.818,114.182 L496.818,91.909 C496.818,89.377 495.812,86.95 494.022,85.159 C492.232,83.369 489.804,82.364 487.273,82.364 L442.727,82.364 C440.196,82.364 437.768,83.369 435.978,85.159 C434.188,86.95 433.182,89.377 433.182,91.909 L433.182,136.455 C433.182,138.986 434.188,141.414 435.978,143.204 C437.768,144.994 440.196,146 442.727,146 L487.273,146 C489.804,146 492.232,144.994 494.022,143.204 C495.812,141.414 496.818,138.986 496.818,136.455 L496.818,114.182 Z" />
            <path d="M474.545,79.182 L474.545,91.909 C474.545,93.666 475.97,95.091 477.727,95.091 C479.485,95.091 480.909,93.666 480.909,91.909 L480.909,79.182 C480.909,77.425 479.485,76 477.727,76 C475.97,76 474.545,77.425 474.545,79.182 Z" />
            <path d="M436.364,107.818 L493.636,107.818 C495.394,107.818 496.818,106.394 496.818,104.636 C496.818,102.879 495.394,101.455 493.636,101.455 L436.364,101.455 C434.606,101.455 433.182,102.879 433.182,104.636 C433.182,106.394 434.606,107.818 436.364,107.818 Z" />
            <path d="M449.091,79.182 L449.091,91.909 C449.091,93.666 450.515,95.091 452.273,95.091 C454.03,95.091 455.455,93.666 455.455,91.909 L455.455,79.182 C455.455,77.425 454.03,76 452.273,76 C450.515,76 449.091,77.425 449.091,79.182 Z" />
            <path d="M480.909,114.182 L461.818,114.182 C460.061,114.182 458.636,115.606 458.636,117.364 C458.636,119.121 460.061,120.545 461.818,120.545 L480.909,120.545 C482.666,120.545 484.091,119.121 484.091,117.364 C484.091,115.606 482.666,114.182 480.909,114.182 Z" />
            <path d="M468.182,126.909 L449.091,126.909 C447.334,126.909 445.909,128.334 445.909,130.091 C445.909,131.848 447.334,133.273 449.091,133.273 L468.182,133.273 C469.939,133.273 471.364,131.848 471.364,130.091 C471.364,128.334 469.939,126.909 468.182,126.909 Z" />
            <path d="M449.091,120.545 L449.123,120.545 C450.88,120.545 452.305,119.121 452.305,117.364 C452.305,115.606 450.88,114.182 449.123,114.182 L449.091,114.182 C447.334,114.182 445.909,115.606 445.909,117.364 C445.909,119.121 447.334,120.545 449.091,120.545 Z" />
            <path d="M480.909,133.273 L480.941,133.273 C482.698,133.273 484.123,131.848 484.123,130.091 C484.123,128.334 482.698,126.909 480.941,126.909 L480.909,126.909 C479.152,126.909 477.727,128.334 477.727,130.091 C477.727,131.848 479.152,133.273 480.909,133.273 Z" />
        </g>
        <g id="Black-S">
            <path d="M690.455,114.182 L690.455,136.455 C690.455,137.298 690.119,138.108 689.523,138.704 C688.926,139.301 688.117,139.636 687.273,139.636 L642.727,139.636 C641.883,139.636 641.074,139.301 640.477,138.704 C639.881,138.108 639.545,137.298 639.545,136.455 L639.545,91.909 C639.545,91.065 639.881,90.256 640.477,89.659 C641.074,89.062 641.883,88.727 642.727,88.727 L687.273,88.727 C688.117,88.727 688.926,89.062 689.523,89.659 C690.119,90.256 690.455,91.065 690.455,91.909 L690.455,114.182 Z M696.818,114.182 L696.818,91.909 C696.818,89.377 695.812,86.95 694.022,85.159 C692.232,83.369 689.804,82.364 687.273,82.364 L642.727,82.364 C640.196,82.364 637.768,83.369 635.978,85.159 C634.188,86.95 633.182,89.377 633.182,91.909 L633.182,136.455 C633.182,138.986 634.188,141.414 635.978,143.204 C637.768,144.994 640.196,146 642.727,146 L687.273,146 C689.804,146 692.232,144.994 694.022,143.204 C695.812,141.414 696.818,138.986 696.818,136.455 L696.818,114.182 Z" />
            <path d="M674.545,79.182 L674.545,91.909 C674.545,93.666 675.97,95.091 677.727,95.091 C679.485,95.091 680.909,93.666 680.909,91.909 L680.909,79.182 C680.909,77.425 679.485,76 677.727,76 C675.97,76 674.545,77.425 674.545,79.182 Z" />
            <path d="M636.364,107.818 L693.636,107.818 C695.394,107.818 696.818,106.394 696.818,104.636 C696.818,102.879 695.394,101.455 693.636,101.455 L636.364,101.455 C634.606,101.455 633.182,102.879 633.182,104.636 C633.182,106.394 634.606,107.818 636.364,107.818 Z" />
            <path d="M649.091,79.182 L649.091,91.909 C649.091,93.666 650.515,95.091 652.273,95.091 C654.03,95.091 655.455,93.666 655.455,91.909 L655.455,79.182 C655.455,77.425 654.03,76 652.273,76 C650.515,76 649.091,77.425 649.091,79.182 Z" />
            <path d="M680.909,114.182 L661.818,114.182 C660.061,114.182 658.636,115.606 658.636,117.364 C658.636,119.121 660.061,120.545 661.818,120.545 L680.909,120.545 C682.666,120.545 684.091,119.121 684.091,117.364 C684.091,115.606 682.666,114.182 680.909,114.182 Z" />
            <path d="M668.182,126.909 L649.091,126.909 C647.334,126.909 645.909,128.334 645.909,130.091 C645.909,131.848 647.334,133.273 649.091,133.273 L668.182,133.273 C669.939,133.273 671.364,131.848 671.364,130.091 C671.364,128.334 669.939,126.909 668.182,126.909 Z" />
            <path d="M649.091,120.545 L649.123,120.545 C650.88,120.545 652.305,119.121 652.305,117.364 C652.305,115.606 650.88,114.182 649.123,114.182 L649.091,114.182 C647.334,114.182 645.909,115.606 645.909,117.364 C645.909,119.121 647.334,120.545 649.091,120.545 Z" />
            <path d="M680.909,133.273 L680.941,133.273 C682.698,133.273 684.123,131.848 684.123,130.091 C684.123,128.334 682.698,126.909 680.941,126.909 L680.909,126.909 C679.152,126.909 677.727,128.334 677.727,130.091 C677.727,131.848 679.152,133.273 680.909,133.273 Z" />
        </g>
    </g>
</svg>