<?xml version="1.0" encoding="UTF-8"?>
<svg height="600" width="800" xmlns="http://www.w3.org/2000/svg" xmlns:xlink="http://www.w3.org/1999/xlink">
    <g id="Notes" font-family="'LucidaGrande', 'Lucida Grande', sans-serif" font-size="13">
        <rect fill="white" height="600.0" width="800.0" x="0.0" y="0.0" />
        <g font-size="13">
            <text x="18.0" y="176.0">Small</text>
            <text x="18.0" y="376.0">Medium</text>
            <text x="18.0" y="576.0">Large</text>
        </g>
        <g font-size="9">
            <text x="250.0" y="30.0">Ultralight</text>
            <text x="450.0" y="30.0">Regular</text>
            <text x="650.0" y="30.0">Black</text>
            <text id="template-version" fill="#505050" text-anchor="end" x="785.0" y="575.0">Template v.3.0</text>
            <a href="https://github.com/swhitty/SwiftDraw">
                <text fill="#505050" text-anchor="end" x="785.0" y="590.0">https://github.com/swhitty/SwiftDraw</text>
            </a>
        </g>
    </g>
    <g id="Guides" stroke="rgb(39, 170, 225)" stroke-width="0.5">
        <path id="Capline-S" d="M18,76 l800,0" />
        <path id="H-reference" d="M85,145.755 L87.685,145.755 L113.369,79.287 L114.052,79.287 L114.052,76 L112.148,76 L85,145.755 Z M95.693,121.536 L130.996,121.536 L130.263,119.313 L96.474,119.313 L95.693,121.536 Z M139.15,145.755 L141.787,145.755 L114.638,76 L113.466,76 L113.466,79.287 L139.15,145.755 Z" stroke="none" />
        <path id="Baseline-S" d="M18,146 l800,0" />
        <path id="left-margin-Ultralight-S" d="M216.111,56 l0,110" />
        <path id="right-margin-Ultralight-S" d="M313.889,56 l0,110" />
        <path id="left-margin-Regular-S" d="M416.111,56 l0,110" />
        <path id="right-margin-Regular-S" d="M513.889,56 l0,110" />
        <path id="left-margin-Black-S" d="M616.111,56 l0,110" />
        <path id="right-margin-Black-S" d="M713.889,56 l0,110" />
        <path id="Capline-M" d="M18,276 l800,0" />
        <path id="Baseline-M" d="M18,346 l800,0" />
        <path id="Capline-L" d="M18,476 l800,0" />
        <path id="Baseline-L" d="M18,546 l800,0" />
    </g>
    <g id="Symbols">
        <g id="Ultralight-S">
            <path d="M292.222,118.778 C298.017,113.1 303.889,106.294 303.889,97.389 C303.889,91.716 301.635,86.276 297.624,82.265 C293.613,78.253 288.173,76 282.5,76 C275.656,76 270.833,77.944 265,83.778 C259.167,77.944 254.344,76 247.5,76 C241.827,76 236.387,78.253 232.376,82.265 C228.365,86.276 226.111,91.716 226.111,97.389 C226.111,106.333 231.944,113.139 237.778,118.778 L265,146 Z" />
        </g>
        <g id="Regular-S">
            <path d="M492.222,118.778 C498.017,113.1 503.889,106.294 503.889,97.389 C503.889,91.716 501.635,86.276 497.624,82.265 C493.613,78.253 488.173,76 482.5,76 C475.656,76 470.833,77.944 465,83.778 C459.167,77.944 454.344,76 447.5,76 C441.827,76 436.387,78.253 432.376,82.265 C428.365,86.276 426.111,91.716 426.111,97.389 C426.111,106.333 431.944,113.139 437.778,118.778 L465,146 Z" />
        </g>
        <g id="Black-S">
            <path d="M692.222,118.778 C698.017,113.1 703.889,106.294 703.889,97.389 C703.889,91.716 701.635,86.276 697.624,82.265 C693.613,78.253 688.173,76 682.5,76 C675.656,76 670.833,77.944 665,83.778 C659.167,77.944 654.344,76 647.5,76 C641.827,76 636.387,78.253 632.376,82.265 C628.365,86.276 626.111,91.716 626.111,97.389 C626.111,106.333 631.944,113.139 637.778,118.778 L665,146 Z" />
        </g>
    </g>
</svg>