<?xml version="1.0" encoding="UTF-8"?>
<svg height="600" width="800" xmlns="http://www.w3.org/2000/svg" xmlns:xlink="http://www.w3.org/1999/xlink">
    <g id="Notes" font-family="'LucidaGrande', 'Lucida Grande', sans-serif" font-size="13">
        <rect fill="white" height="600.0" width="800.0" x="0.0" y="0.0" />
        <g font-size="13">
            <text x="18.0" y="176.0">Small</text>
            <text x="18.0" y="376.0">Medium</text>
            <text x="18.0" y="576.0">Large</text>
        </g>
        <g font-size="9">
            <text x="250.0" y="30.0">Ultralight</text>
            <text x="450.0" y="30.0">Regular</text>
            <text x="650.0" y="30.0">Black</text>
            <text id="template-version" fill="#505050" text-anchor="end" x="785.0" y="575.0">Template v.3.0</text>
            <a href="https://github.com/swhitty/SwiftDraw">
                <text fill="#505050" text-anchor="end" x="785.0" y="590.0">https://github.com/swhitty/SwiftDraw</text>
            </a>
        </g>
    </g>
    <g id="Guides" stroke="rgb(39, 170, 225)" stroke-width="0.5">
        <path id="Capline-S" d="M18,76 l800,0" />
        <path id="H-reference" d="M85,145.755 L87.685,145.755 L113.369,79.287 L114.052,79.287 L114.052,76 L112.148,76 L85,145.755 Z M95.693,121.536 L130.996,121.536 L130.263,119.313 L96.474,119.313 L95.693,121.536 Z M139.15,145.755 L141.787,145.755 L114.638,76 L113.466,76 L113.466,79.287 L139.15,145.755 Z" stroke="none" />
        <path id="Baseline-S" d="M18,146 l800,0" />
        <path id="left-margin-Ultralight-S" d="M220,56 l0,110" />
        <path id="right-margin-Ultralight-S" d="M310,56 l0,110" />
        <path id="left-margin-Regular-S" d="M420,56 l0,110" />
        <path id="right-margin-Regular-S" d="M510,56 l0,110" />
        <path id="left-margin-Black-S" d="M620,56 l0,110" />
        <path id="right-margin-Black-S" d="M710,56 l0,110" />
        <path id="Capline-M" d="M18,276 l800,0" />
        <path id="Baseline-M" d="M18,346 l800,0" />
        <path id="Capline-L" d="M18,476 l800,0" />
        <path id="Baseline-L" d="M18,546 l800,0" />
    </g>
    <g id="Symbols">
        <g id="Ultralight-S">
            <path d="M265,82.362 C265,82.362 265,82.362 265,82.362 C265,82.362 265,82.362 265,82.362 L268.345,100.05 C269.074,103.908 272.092,106.926 275.951,107.655 L293.631,110.999 C293.638,111 293.638,111 293.638,111 C293.638,111 293.638,111 293.638,111 L275.95,114.345 C272.092,115.074 269.074,118.092 268.345,121.951 L265.001,139.631 C265,139.638 265,139.638 265,139.638 C265,139.638 265,139.638 265,139.638 L261.655,121.95 C260.926,118.092 257.908,115.074 254.049,114.345 L236.369,111.001 C236.362,111 236.362,111 236.362,111 C236.362,111 236.362,111 236.362,111 L254.05,107.655 C257.908,106.926 260.926,103.908 261.655,100.049 L264.999,82.369 Z M258.747,81.187 L255.404,98.868 C255.161,100.155 254.155,101.161 252.868,101.404 L235.187,104.747 C232.183,105.308 230,107.937 230,111 C230,114.063 232.183,116.692 235.194,117.254 L252.868,120.596 C254.155,120.839 255.161,121.845 255.404,123.132 L258.747,140.813 C259.308,143.817 261.937,146 265,146 C268.063,146 270.692,143.817 271.254,140.806 L274.596,123.132 C274.839,121.845 275.845,120.839 277.132,120.596 L294.813,117.253 C297.817,116.692 300,114.063 300,111 C300,107.937 297.817,105.308 294.806,104.746 L277.132,101.404 C275.845,101.161 274.839,100.155 274.596,98.868 L271.253,81.187 C270.692,78.183 268.063,76 265,76 C261.937,76 259.308,78.183 258.746,81.194 Z" />
            <path d="M287.268,79.189 L287.268,91.913 C287.268,93.67 288.692,95.094 290.449,95.094 C292.206,95.094 293.63,93.67 293.63,91.913 L293.63,79.189 C293.63,77.432 292.206,76.008 290.449,76.008 C288.692,76.008 287.268,77.432 287.268,79.189 Z" />
            <path d="M296.811,82.37 L284.087,82.37 C282.33,82.37 280.906,83.794 280.906,85.551 C280.906,87.308 282.33,88.732 284.087,88.732 L296.811,88.732 C298.568,88.732 299.992,87.308 299.992,85.551 C299.992,83.794 298.568,82.37 296.811,82.37 Z" />
            <path d="M236.37,136.449 C236.37,134.692 237.794,133.268 239.551,133.268 C241.308,133.268 242.732,134.692 242.732,136.449 C242.732,138.206 241.308,139.63 239.551,139.63 C237.794,139.63 236.37,138.206 236.37,136.449 Z M230.008,136.449 C230.008,141.72 234.28,145.992 239.551,145.992 C244.822,145.992 249.094,141.72 249.094,136.449 C249.094,131.178 244.822,126.906 239.551,126.906 C234.28,126.906 230.008,131.178 230.008,136.449 Z" />
        </g>
        <g id="Regular-S">
            <path d="M465,82.362 C465,82.362 465,82.362 465,82.362 C465,82.362 465,82.362 465,82.362 L468.345,100.05 C469.073,103.908 472.092,106.926 475.951,107.655 L493.631,110.999 C493.638,111 493.638,111 493.638,111 C493.638,111 493.638,111 493.638,111 L475.95,114.345 C472.092,115.074 469.073,118.092 468.345,121.951 L465.001,139.631 C465,139.638 465,139.638 465,139.638 C465,139.638 465,139.638 465,139.638 L461.655,121.95 C460.926,118.092 457.908,115.074 454.049,114.345 L436.369,111.001 C436.362,111 436.362,111 436.362,111 C436.362,111 436.362,111 436.362,111 L454.05,107.655 C457.908,106.926 460.926,103.908 461.655,100.049 L464.999,82.369 Z M458.747,81.187 L455.404,98.868 C455.161,100.155 454.155,101.161 452.868,101.404 L435.187,104.747 C432.183,105.308 430,107.937 430,111 C430,114.063 432.183,116.692 435.194,117.254 L452.868,120.596 C454.155,120.839 455.161,121.845 455.404,123.132 L458.747,140.813 C459.308,143.817 461.937,146 465,146 C468.063,146 470.692,143.817 471.254,140.806 L474.596,123.132 C474.839,121.845 475.845,120.839 477.132,120.596 L494.813,117.253 C497.817,116.692 500,114.063 500,111 C500,107.937 497.817,105.308 494.806,104.746 L477.132,101.404 C475.845,101.161 474.839,100.155 474.596,98.868 L471.253,81.187 C470.692,78.183 468.063,76 465,76 C461.937,76 459.308,78.183 458.746,81.194 Z" />
            <path d="M487.268,79.189 L487.268,91.913 C487.268,93.67 488.692,95.094 490.449,95.094 C492.206,95.094 493.63,93.67 493.63,91.913 L493.63,79.189 C493.63,77.432 492.206,76.008 490.449,76.008 C488.692,76.008 487.268,77.432 487.268,79.189 Z" />
            <path d="M496.811,82.37 L484.087,82.37 C482.33,82.37 480.906,83.794 480.906,85.551 C480.906,87.308 482.33,88.732 484.087,88.732 L496.811,88.732 C498.568,88.732 499.992,87.308 499.992,85.551 C499.992,83.794 498.568,82.37 496.811,82.37 Z" />
            <path d="M436.37,136.449 C436.37,134.692 437.794,133.268 439.551,133.268 C441.308,133.268 442.732,134.692 442.732,136.449 C442.732,138.206 441.308,139.63 439.551,139.63 C437.794,139.63 436.37,138.206 436.37,136.449 Z M430.008,136.449 C430.008,141.72 434.28,145.992 439.551,145.992 C444.822,145.992 449.094,141.72 449.094,136.449 C449.094,131.178 444.822,126.906 439.551,126.906 C434.28,126.906 430.008,131.178 430.008,136.449 Z" />
        </g>
        <g id="Black-S">
            <path d="M665,82.362 C665,82.362 665,82.362 665,82.362 C665,82.362 665,82.362 665,82.362 L668.345,100.05 C669.073,103.908 672.092,106.926 675.951,107.655 L693.631,110.999 C693.638,111 693.638,111 693.638,111 C693.638,111 693.638,111 693.638,111 L675.95,114.345 C672.092,115.074 669.073,118.092 668.345,121.951 L665.001,139.631 C665,139.638 665,139.638 665,139.638 C665,139.638 665,139.638 665,139.638 L661.655,121.95 C660.926,118.092 657.908,115.074 654.049,114.345 L636.369,111.001 C636.362,111 636.362,111 636.362,111 C636.362,111 636.362,111 636.362,111 L654.05,107.655 C657.908,106.926 660.926,103.908 661.655,100.049 L664.999,82.369 Z M658.747,81.187 L655.404,98.868 C655.161,100.155 654.155,101.161 652.868,101.404 L635.187,104.747 C632.183,105.308 630,107.937 630,111 C630,114.063 632.183,116.692 635.194,117.254 L652.868,120.596 C654.155,120.839 655.161,121.845 655.404,123.132 L658.747,140.813 C659.308,143.817 661.937,146 665,146 C668.063,146 670.692,143.817 671.254,140.806 L674.596,123.132 C674.839,121.845 675.845,120.839 677.132,120.596 L694.813,117.253 C697.817,116.692 700,114.063 700,111 C700,107.937 697.817,105.308 694.806,104.746 L677.132,101.404 C675.845,101.161 674.839,100.155 674.596,98.868 L671.253,81.187 C670.692,78.183 668.063,76 665,76 C661.937,76 659.308,78.183 658.746,81.194 Z" />
            <path d="M687.268,79.189 L687.268,91.913 C687.268,93.67 688.692,95.094 690.449,95.094 C692.206,95.094 693.63,93.67 693.63,91.913 L693.63,79.189 C693.63,77.432 692.206,76.008 690.449,76.008 C688.692,76.008 687.268,77.432 687.268,79.189 Z" />
            <path d="M696.811,82.37 L684.087,82.37 C682.33,82.37 680.906,83.794 680.906,85.551 C680.906,87.308 682.33,88.732 684.087,88.732 L696.811,88.732 C698.568,88.732 699.992,87.308 699.992,85.551 C699.992,83.794 698.568,82.37 696.811,82.37 Z" />
            <path d="M636.37,136.449 C636.37,134.692 637.794,133.268 639.551,133.268 C641.308,133.268 642.732,134.692 642.732,136.449 C642.732,138.206 641.308,139.63 639.551,139.63 C637.794,139.63 636.37,138.206 636.37,136.449 Z M630.008,136.449 C630.008,141.72 634.28,145.992 639.551,145.992 C644.822,145.992 649.094,141.72 649.094,136.449 C649.094,131.178 644.822,126.906 639.551,126.906 C634.28,126.906 630.008,131.178 630.008,136.449 Z" />
        </g>
    </g>
</svg>