<?xml version="1.0" encoding="UTF-8"?>
<svg height="600" width="800" xmlns="http://www.w3.org/2000/svg" xmlns:xlink="http://www.w3.org/1999/xlink">
    <g id="Notes" font-family="'LucidaGrande', 'Lucida Grande', sans-serif" font-size="13">
        <rect fill="white" height="600.0" width="800.0" x="0.0" y="0.0" />
        <g font-size="13">
            <text x="18.0" y="176.0">Small</text>
            <text x="18.0" y="376.0">Medium</text>
            <text x="18.0" y="576.0">Large</text>
        </g>
        <g font-size="9">
            <text x="250.0" y="30.0">Ultralight</text>
            <text x="450.0" y="30.0">Regular</text>
            <text x="650.0" y="30.0">Black</text>
            <text id="template-version" fill="#505050" text-anchor="end" x="785.0" y="575.0">Template v.3.0</text>
            <a href="https://github.com/swhitty/SwiftDraw">
                <text fill="#505050" text-anchor="end" x="785.0" y="590.0">https://github.com/swhitty/SwiftDraw</text>
            </a>
        </g>
    </g>
    <g id="Guides" stroke="rgb(39, 170, 225)" stroke-width="0.5">
        <path id="Capline-S" d="M18,76 l800,0" />
        <path id="H-reference" d="M85,145.755 L87.685,145.755 L113.369,79.287 L114.052,79.287 L114.052,76 L112.148,76 L85,145.755 Z M95.693,121.536 L130.996,121.536 L130.263,119.313 L96.474,119.313 L95.693,121.536 Z M139.15,145.755 L141.787,145.755 L114.638,76 L113.466,76 L113.466,79.287 L139.15,145.755 Z" stroke="none" />
        <path id="Baseline-S" d="M18,146 l800,0" />
        <path id="left-margin-Ultralight-S" d="M220,56 l0,110" />
        <path id="right-margin-Ultralight-S" d="M310,56 l0,110" />
        <path id="left-margin-Regular-S" d="M420,56 l0,110" />
        <path id="right-margin-Regular-S" d="M510,56 l0,110" />
        <path id="left-margin-Black-S" d="M620,56 l0,110" />
        <path id="right-margin-Black-S" d="M710,56 l0,110" />
        <path id="Capline-M" d="M18,276 l800,0" />
        <path id="Baseline-M" d="M18,346 l800,0" />
        <path id="Capline-L" d="M18,476 l800,0" />
        <path id="Baseline-L" d="M18,546 l800,0" />
    </g>
    <g id="Symbols">
        <g id="Ultralight-S">
            <path d="M236.364,111 C236.364,95.185 249.185,82.364 265,82.364 C280.815,82.364 293.636,95.185 293.636,111 C293.636,126.815 280.815,139.636 265,139.636 C249.185,139.636 236.364,126.815 236.364,111 Z M230,111 C230,130.33 245.67,146 265,146 C284.33,146 300,130.33 300,111 C300,91.67 284.33,76 265,76 C245.67,76 230,91.67 230,111 Z" />
            <path d="M249.727,119.273 C250.5,120.303 251.856,121.718 253.782,123.119 C257.024,125.476 260.785,126.909 265,126.909 C269.215,126.909 272.976,125.476 276.218,123.119 C278.144,121.718 279.5,120.303 280.273,119.273 C281.327,117.867 281.042,115.873 279.636,114.818 C278.231,113.764 276.236,114.049 275.182,115.455 C274.761,116.015 273.83,116.987 272.475,117.972 C270.248,119.592 267.745,120.545 265,120.545 C262.255,120.545 259.752,119.592 257.525,117.972 C256.17,116.987 255.239,116.015 254.818,115.455 C253.764,114.049 251.769,113.764 250.364,114.818 C248.958,115.873 248.673,117.867 249.727,119.273 Z" />
            <path d="M255.455,104.636 L255.486,104.636 C257.244,104.636 258.668,103.212 258.668,101.455 C258.668,99.697 257.244,98.273 255.486,98.273 L255.455,98.273 C253.697,98.273 252.273,99.697 252.273,101.455 C252.273,103.212 253.697,104.636 255.455,104.636 Z" />
            <path d="M274.545,104.636 L274.577,104.636 C276.335,104.636 277.759,103.212 277.759,101.455 C277.759,99.697 276.335,98.273 274.577,98.273 L274.545,98.273 C272.788,98.273 271.364,99.697 271.364,101.455 C271.364,103.212 272.788,104.636 274.545,104.636 Z" />
        </g>
        <g id="Regular-S">
            <path d="M436.364,111 C436.364,95.185 449.185,82.364 465,82.364 C480.815,82.364 493.636,95.185 493.636,111 C493.636,126.815 480.815,139.636 465,139.636 C449.185,139.636 436.364,126.815 436.364,111 Z M430,111 C430,130.33 445.67,146 465,146 C484.33,146 500,130.33 500,111 C500,91.67 484.33,76 465,76 C445.67,76 430,91.67 430,111 Z" />
            <path d="M449.727,119.273 C450.5,120.303 451.856,121.718 453.782,123.119 C457.024,125.476 460.785,126.909 465,126.909 C469.215,126.909 472.976,125.476 476.218,123.119 C478.144,121.718 479.5,120.303 480.273,119.273 C481.327,117.867 481.042,115.873 479.636,114.818 C478.231,113.764 476.236,114.049 475.182,115.455 C474.761,116.015 473.83,116.987 472.475,117.972 C470.248,119.592 467.745,120.545 465,120.545 C462.255,120.545 459.752,119.592 457.525,117.972 C456.17,116.987 455.239,116.015 454.818,115.455 C453.764,114.049 451.769,113.764 450.364,114.818 C448.958,115.873 448.673,117.867 449.727,119.273 Z" />
            <path d="M455.455,104.636 L455.486,104.636 C457.244,104.636 458.668,103.212 458.668,101.455 C458.668,99.697 457.244,98.273 455.486,98.273 L455.455,98.273 C453.697,98.273 452.273,99.697 452.273,101.455 C452.273,103.212 453.697,104.636 455.455,104.636 Z" />
            <path d="M474.545,104.636 L474.577,104.636 C476.335,104.636 477.759,103.212 477.759,101.455 C477.759,99.697 476.335,98.273 474.577,98.273 L474.545,98.273 C472.788,98.273 471.364,99.697 471.364,101.455 C471.364,103.212 472.788,104.636 474.545,104.636 Z" />
        </g>
        <g id="Black-S">
            <path d="M636.364,111 C636.364,95.185 649.185,82.364 665,82.364 C680.815,82.364 693.636,95.185 693.636,111 C693.636,126.815 680.815,139.636 665,139.636 C649.185,139.636 636.364,126.815 636.364,111 Z M630,111 C630,130.33 645.67,146 665,146 C684.33,146 700,130.33 700,111 C700,91.67 684.33,76 665,76 C645.67,76 630,91.67 630,111 Z" />
            <path d="M649.727,119.273 C650.5,120.303 651.856,121.718 653.782,123.119 C657.023,125.476 660.785,126.909 665,126.909 C669.215,126.909 672.977,125.476 676.218,123.119 C678.144,121.718 679.5,120.303 680.273,119.273 C681.327,117.867 681.042,115.873 679.636,114.818 C678.231,113.764 676.236,114.049 675.182,115.455 C674.761,116.015 673.83,116.987 672.475,117.972 C670.248,119.592 667.745,120.545 665,120.545 C662.255,120.545 659.752,119.592 657.525,117.972 C656.17,116.987 655.239,116.015 654.818,115.455 C653.764,114.049 651.769,113.764 650.364,114.818 C648.958,115.873 648.673,117.867 649.727,119.273 Z" />
            <path d="M655.455,104.636 L655.486,104.636 C657.244,104.636 658.668,103.212 658.668,101.455 C658.668,99.697 657.244,98.273 655.486,98.273 L655.455,98.273 C653.697,98.273 652.273,99.697 652.273,101.455 C652.273,103.212 653.697,104.636 655.455,104.636 Z" />
            <path d="M674.545,104.636 L674.577,104.636 C676.335,104.636 677.759,103.212 677.759,101.455 C677.759,99.697 676.335,98.273 674.577,98.273 L674.545,98.273 C672.788,98.273 671.364,99.697 671.364,101.455 C671.364,103.212 672.788,104.636 674.545,104.636 Z" />
        </g>
    </g>
</svg>