<?xml version="1.0" encoding="UTF-8"?>
<svg height="600" width="800" xmlns="http://www.w3.org/2000/svg" xmlns:xlink="http://www.w3.org/1999/xlink">
    <g id="Notes" font-family="'LucidaGrande', 'Lucida Grande', sans-serif" font-size="13">
        <rect fill="white" height="600.0" width="800.0" x="0.0" y="0.0" />
        <g font-size="13">
            <text x="18.0" y="176.0">Small</text>
            <text x="18.0" y="376.0">Medium</text>
            <text x="18.0" y="576.0">Large</text>
        </g>
        <g font-size="9">
            <text x="250.0" y="30.0">Ultralight</text>
            <text x="450.0" y="30.0">Regular</text>
            <text x="650.0" y="30.0">Black</text>
            <text id="template-version" fill="#505050" text-anchor="end" x="785.0" y="575.0">Template v.3.0</text>
            <a href="https://github.com/swhitty/SwiftDraw">
                <text fill="#505050" text-anchor="end" x="785.0" y="590.0">https://github.com/swhitty/SwiftDraw</text>
            </a>
        </g>
    </g>
    <g id="Guides" stroke="rgb(39, 170, 225)" stroke-width="0.5">
        <path id="Capline-S" d="M18,76 l800,0" />
        <path id="H-reference" d="M85,145.755 L87.685,145.755 L113.369,79.287 L114.052,79.287 L114.052,76 L112.148,76 L85,145.755 Z M95.693,121.536 L130.996,121.536 L130.263,119.313 L96.474,119.313 L95.693,121.536 Z M139.15,145.755 L141.787,145.755 L114.638,76 L113.466,76 L113.466,79.287 L139.15,145.755 Z" stroke="none" transform="translate(0,0)" />
        <path id="Baseline-S" d="M18,146 l800,0" />
        <path id="left-margin-Ultralight-S" d="M230,56 l0,110" />
        <path id="right-margin-Ultralight-S" d="M300,56 l0,110" />
        <path id="left-margin-Regular-S" d="M430,56 l0,110" />
        <path id="right-margin-Regular-S" d="M500,56 l0,110" />
        <path id="left-margin-Black-S" d="M630,56 l0,110" />
        <path id="right-margin-Black-S" d="M700,56 l0,110" />
        <path id="Capline-M" d="M18,276 l800,0" />
        <path id="Baseline-M" d="M18,346 l800,0" />
        <path id="Capline-L" d="M18,476 l800,0" />
        <path id="Baseline-L" d="M18,546 l800,0" />
    </g>
    <g id="Symbols">
        <g id="Ultralight-S" transform="translate(0,0)">
            <path d="M233.5,111 C233.5,93.603 247.603,79.5 265,79.5 C282.397,79.5 296.5,93.603 296.5,111 C296.5,128.397 282.397,142.5 265,142.5 C247.603,142.5 233.5,128.397 233.5,111 Z M226.5,111 C226.5,132.263 243.737,149.5 265,149.5 C286.263,149.5 303.5,132.263 303.5,111 C303.5,89.737 286.263,72.5 265,72.5 C243.737,72.5 226.5,89.737 226.5,111 Z" />
            <path d="M251,114.5 L279,114.5 C280.933,114.5 282.5,112.933 282.5,111 C282.5,109.067 280.933,107.5 279,107.5 L251,107.5 C249.067,107.5 247.5,109.067 247.5,111 C247.5,112.933 249.067,114.5 251,114.5 Z" />
            <path d="M261.5,97 L261.5,125 C261.5,126.933 263.067,128.5 265,128.5 C266.933,128.5 268.5,126.933 268.5,125 L268.5,97 C268.5,95.067 266.933,93.5 265,93.5 C263.067,93.5 261.5,95.067 261.5,97 Z" />
        </g>
        <g id="Regular-S" transform="translate(0,0)">
            <path d="M433.5,111 C433.5,93.603 447.603,79.5 465,79.5 C482.397,79.5 496.5,93.603 496.5,111 C496.5,128.397 482.397,142.5 465,142.5 C447.603,142.5 433.5,128.397 433.5,111 Z M426.5,111 C426.5,132.263 443.737,149.5 465,149.5 C486.263,149.5 503.5,132.263 503.5,111 C503.5,89.737 486.263,72.5 465,72.5 C443.737,72.5 426.5,89.737 426.5,111 Z" />
            <path d="M451,114.5 L479,114.5 C480.933,114.5 482.5,112.933 482.5,111 C482.5,109.067 480.933,107.5 479,107.5 L451,107.5 C449.067,107.5 447.5,109.067 447.5,111 C447.5,112.933 449.067,114.5 451,114.5 Z" />
            <path d="M461.5,97 L461.5,125 C461.5,126.933 463.067,128.5 465,128.5 C466.933,128.5 468.5,126.933 468.5,125 L468.5,97 C468.5,95.067 466.933,93.5 465,93.5 C463.067,93.5 461.5,95.067 461.5,97 Z" />
        </g>
        <g id="Black-S" transform="translate(0,0)">
            <path d="M633.5,111 C633.5,93.603 647.603,79.5 665,79.5 C682.397,79.5 696.5,93.603 696.5,111 C696.5,128.397 682.397,142.5 665,142.5 C647.603,142.5 633.5,128.397 633.5,111 Z M626.5,111 C626.5,132.263 643.737,149.5 665,149.5 C686.263,149.5 703.5,132.263 703.5,111 C703.5,89.737 686.263,72.5 665,72.5 C643.737,72.5 626.5,89.737 626.5,111 Z" />
            <path d="M651,114.5 L679,114.5 C680.933,114.5 682.5,112.933 682.5,111 C682.5,109.067 680.933,107.5 679,107.5 L651,107.5 C649.067,107.5 647.5,109.067 647.5,111 C647.5,112.933 649.067,114.5 651,114.5 Z" />
            <path d="M661.5,97 L661.5,125 C661.5,126.933 663.067,128.5 665,128.5 C666.933,128.5 668.5,126.933 668.5,125 L668.5,97 C668.5,95.067 666.933,93.5 665,93.5 C663.067,93.5 661.5,95.067 661.5,97 Z" />
        </g>
    </g>
</svg>