<?xml version="1.0" encoding="UTF-8"?>
<svg height="600" width="800" xmlns="http://www.w3.org/2000/svg" xmlns:xlink="http://www.w3.org/1999/xlink">
    <g id="Notes" font-family="'LucidaGrande', 'Lucida Grande', sans-serif" font-size="13">
        <rect fill="white" height="600.0" width="800.0" x="0.0" y="0.0" />
        <g font-size="13">
            <text x="18.0" y="176.0">Small</text>
            <text x="18.0" y="376.0">Medium</text>
            <text x="18.0" y="576.0">Large</text>
        </g>
        <g font-size="9">
            <text x="250.0" y="30.0">Ultralight</text>
            <text x="450.0" y="30.0">Regular</text>
            <text x="650.0" y="30.0">Black</text>
            <text id="template-version" fill="#505050" text-anchor="end" x="785.0" y="575.0">Template v.3.0</text>
            <a href="https://github.com/swhitty/SwiftDraw">
                <text fill="#505050" text-anchor="end" x="785.0" y="590.0">https://github.com/swhitty/SwiftDraw</text>
            </a>
        </g>
    </g>
    <g id="Guides" stroke="rgb(39, 170, 225)" stroke-width="0.5">
        <path id="Capline-S" d="M18,76 l800,0" />
        <path id="H-reference" d="M85,145.755 L87.685,145.755 L113.369,79.287 L114.052,79.287 L114.052,76 L112.148,76 L85,145.755 Z M95.693,121.536 L130.996,121.536 L130.263,119.313 L96.474,119.313 L95.693,121.536 Z M139.15,145.755 L141.787,145.755 L114.638,76 L113.466,76 L113.466,79.287 L139.15,145.755 Z" stroke="none" />
        <path id="Baseline-S" d="M18,146 l800,0" />
        <path id="left-margin-Ultralight-S" d="M220,56 l0,110" />
        <path id="right-margin-Ultralight-S" d="M310,56 l0,110" />
        <path id="left-margin-Regular-S" d="M420,56 l0,110" />
        <path id="right-margin-Regular-S" d="M510,56 l0,110" />
        <path id="left-margin-Black-S" d="M620,56 l0,110" />
        <path id="right-margin-Black-S" d="M710,56 l0,110" />
        <path id="Capline-M" d="M18,276 l800,0" />
        <path id="Baseline-M" d="M18,346 l800,0" />
        <path id="Capline-L" d="M18,476 l800,0" />
        <path id="Baseline-L" d="M18,546 l800,0" />
    </g>
    <g id="Symbols">
        <g id="Ultralight-S">
            <path d="M296.111,87.667 L261.111,87.667 C258.963,87.667 257.222,89.408 257.222,91.556 C257.222,93.703 258.963,95.444 261.111,95.444 L296.111,95.444 C298.259,95.444 300,93.703 300,91.556 C300,89.408 298.259,87.667 296.111,87.667 Z" />
            <path d="M272.778,126.556 L237.778,126.556 C235.63,126.556 233.889,128.297 233.889,130.444 C233.889,132.592 235.63,134.333 237.778,134.333 L272.778,134.333 C274.926,134.333 276.667,132.592 276.667,130.444 C276.667,128.297 274.926,126.556 272.778,126.556 Z" />
            <path d="M276.667,130.444 C276.667,126.149 280.149,122.667 284.444,122.667 C288.74,122.667 292.222,126.149 292.222,130.444 C292.222,134.74 288.74,138.222 284.444,138.222 C280.149,138.222 276.667,134.74 276.667,130.444 Z M268.889,130.444 C268.889,139.036 275.853,146 284.444,146 C293.036,146 300,139.036 300,130.444 C300,121.853 293.036,114.889 284.444,114.889 C275.853,114.889 268.889,121.853 268.889,130.444 Z" />
            <path d="M237.778,91.556 C237.778,87.26 241.26,83.778 245.556,83.778 C249.851,83.778 253.333,87.26 253.333,91.556 C253.333,95.851 249.851,99.333 245.556,99.333 C241.26,99.333 237.778,95.851 237.778,91.556 Z M230,91.556 C230,100.147 236.964,107.111 245.556,107.111 C254.147,107.111 261.111,100.147 261.111,91.556 C261.111,82.964 254.147,76 245.556,76 C236.964,76 230,82.964 230,91.556 Z" />
        </g>
        <g id="Regular-S">
            <path d="M496.111,87.667 L461.111,87.667 C458.963,87.667 457.222,89.408 457.222,91.556 C457.222,93.703 458.963,95.444 461.111,95.444 L496.111,95.444 C498.259,95.444 500,93.703 500,91.556 C500,89.408 498.259,87.667 496.111,87.667 Z" />
            <path d="M472.778,126.556 L437.778,126.556 C435.63,126.556 433.889,128.297 433.889,130.444 C433.889,132.592 435.63,134.333 437.778,134.333 L472.778,134.333 C474.926,134.333 476.667,132.592 476.667,130.444 C476.667,128.297 474.926,126.556 472.778,126.556 Z" />
            <path d="M476.667,130.444 C476.667,126.149 480.149,122.667 484.444,122.667 C488.74,122.667 492.222,126.149 492.222,130.444 C492.222,134.74 488.74,138.222 484.444,138.222 C480.149,138.222 476.667,134.74 476.667,130.444 Z M468.889,130.444 C468.889,139.036 475.853,146 484.444,146 C493.036,146 500,139.036 500,130.444 C500,121.853 493.036,114.889 484.444,114.889 C475.853,114.889 468.889,121.853 468.889,130.444 Z" />
            <path d="M437.778,91.556 C437.778,87.26 441.26,83.778 445.556,83.778 C449.851,83.778 453.333,87.26 453.333,91.556 C453.333,95.851 449.851,99.333 445.556,99.333 C441.26,99.333 437.778,95.851 437.778,91.556 Z M430,91.556 C430,100.147 436.964,107.111 445.556,107.111 C454.147,107.111 461.111,100.147 461.111,91.556 C461.111,82.964 454.147,76 445.556,76 C436.964,76 430,82.964 430,91.556 Z" />
        </g>
        <g id="Black-S">
            <path d="M696.111,87.667 L661.111,87.667 C658.963,87.667 657.222,89.408 657.222,91.556 C657.222,93.703 658.963,95.444 661.111,95.444 L696.111,95.444 C698.259,95.444 700,93.703 700,91.556 C700,89.408 698.259,87.667 696.111,87.667 Z" />
            <path d="M672.778,126.556 L637.778,126.556 C635.63,126.556 633.889,128.297 633.889,130.444 C633.889,132.592 635.63,134.333 637.778,134.333 L672.778,134.333 C674.926,134.333 676.667,132.592 676.667,130.444 C676.667,128.297 674.926,126.556 672.778,126.556 Z" />
            <path d="M676.667,130.444 C676.667,126.149 680.149,122.667 684.444,122.667 C688.74,122.667 692.222,126.149 692.222,130.444 C692.222,134.74 688.74,138.222 684.444,138.222 C680.149,138.222 676.667,134.74 676.667,130.444 Z M668.889,130.444 C668.889,139.036 675.853,146 684.444,146 C693.036,146 700,139.036 700,130.444 C700,121.853 693.036,114.889 684.444,114.889 C675.853,114.889 668.889,121.853 668.889,130.444 Z" />
            <path d="M637.778,91.556 C637.778,87.26 641.26,83.778 645.556,83.778 C649.851,83.778 653.333,87.26 653.333,91.556 C653.333,95.851 649.851,99.333 645.556,99.333 C641.26,99.333 637.778,95.851 637.778,91.556 Z M630,91.556 C630,100.147 636.964,107.111 645.556,107.111 C654.147,107.111 661.111,100.147 661.111,91.556 C661.111,82.964 654.147,76 645.556,76 C636.964,76 630,82.964 630,91.556 Z" />
        </g>
    </g>
</svg>