<?xml version="1.0" encoding="UTF-8"?>
<svg height="600" width="800" xmlns="http://www.w3.org/2000/svg" xmlns:xlink="http://www.w3.org/1999/xlink">
    <g id="Notes" font-family="'LucidaGrande', 'Lucida Grande', sans-serif" font-size="13">
        <rect fill="white" height="600.0" width="800.0" x="0.0" y="0.0" />
        <g font-size="13">
            <text x="18.0" y="176.0">Small</text>
            <text x="18.0" y="376.0">Medium</text>
            <text x="18.0" y="576.0">Large</text>
        </g>
        <g font-size="9">
            <text x="250.0" y="30.0">Ultralight</text>
            <text x="450.0" y="30.0">Regular</text>
            <text x="650.0" y="30.0">Black</text>
            <text id="template-version" fill="#505050" text-anchor="end" x="785.0" y="575.0">Template v.3.0</text>
            <a href="https://github.com/swhitty/SwiftDraw">
                <text fill="#505050" text-anchor="end" x="785.0" y="590.0">https://github.com/swhitty/SwiftDraw</text>
            </a>
        </g>
    </g>
    <g id="Guides" stroke="rgb(39, 170, 225)" stroke-width="0.5">
        <path id="Capline-S" d="M18,76 l800,0" />
        <path id="H-reference" d="M85,145.755 L87.685,145.755 L113.369,79.287 L114.052,79.287 L114.052,76 L112.148,76 L85,145.755 Z M95.693,121.536 L130.996,121.536 L130.263,119.313 L96.474,119.313 L95.693,121.536 Z M139.15,145.755 L141.787,145.755 L114.638,76 L113.466,76 L113.466,79.287 L139.15,145.755 Z" stroke="none" />
        <path id="Baseline-S" d="M18,146 l800,0" />
        <path id="left-margin-Ultralight-S" d="M221,56 l0,110" />
        <path id="right-margin-Ultralight-S" d="M309,56 l0,110" />
        <path id="left-margin-Regular-S" d="M421,56 l0,110" />
        <path id="right-margin-Regular-S" d="M509,56 l0,110" />
        <path id="left-margin-Black-S" d="M621,56 l0,110" />
        <path id="right-margin-Black-S" d="M709,56 l0,110" />
        <path id="Capline-M" d="M18,276 l800,0" />
        <path id="Baseline-M" d="M18,346 l800,0" />
        <path id="Capline-L" d="M18,476 l800,0" />
        <path id="Baseline-L" d="M18,546 l800,0" />
    </g>
    <g id="Symbols">
        <g id="Ultralight-S">
            <path d="M277.665,117.988 C278.115,115.742 279.164,114.063 281.568,111.659 C285.215,108.383 287.273,103.444 287.273,98.273 C287.273,85.972 277.301,76 265,76 C252.699,76 242.727,85.972 242.727,98.273 C242.727,103.282 244.242,107.469 248.432,111.659 C250.652,113.879 251.907,115.852 252.335,117.988 C252.679,119.711 254.355,120.828 256.079,120.484 C257.802,120.139 258.919,118.463 258.575,116.74 C257.862,113.175 255.961,110.189 252.932,107.159 C250.016,104.244 249.091,101.686 249.091,98.273 C249.091,89.486 256.214,82.364 265,82.364 C273.786,82.364 280.909,89.486 280.909,98.273 C280.909,101.693 279.573,104.899 277.19,107.044 C273.851,110.376 272.155,113.089 271.425,116.74 C271.081,118.463 272.198,120.139 273.921,120.484 C275.645,120.828 277.321,119.711 277.665,117.988 Z" />
            <path d="M255.455,133.273 L274.545,133.273 C276.303,133.273 277.727,131.848 277.727,130.091 C277.727,128.334 276.303,126.909 274.545,126.909 L255.455,126.909 C253.697,126.909 252.273,128.334 252.273,130.091 C252.273,131.848 253.697,133.273 255.455,133.273 Z" />
            <path d="M258.636,146 L271.364,146 C273.121,146 274.545,144.575 274.545,142.818 C274.545,141.061 273.121,139.636 271.364,139.636 L258.636,139.636 C256.879,139.636 255.455,141.061 255.455,142.818 C255.455,144.575 256.879,146 258.636,146 Z" />
        </g>
        <g id="Regular-S">
            <path d="M477.665,117.988 C478.115,115.742 479.164,114.063 481.568,111.659 C485.215,108.383 487.273,103.444 487.273,98.273 C487.273,85.972 477.301,76 465,76 C452.699,76 442.727,85.972 442.727,98.273 C442.727,103.282 444.242,107.469 448.432,111.659 C450.652,113.879 451.907,115.852 452.335,117.988 C452.679,119.711 454.355,120.828 456.079,120.484 C457.802,120.139 458.919,118.463 458.575,116.74 C457.862,113.175 455.961,110.189 452.932,107.159 C450.016,104.244 449.091,101.686 449.091,98.273 C449.091,89.486 456.214,82.364 465,82.364 C473.786,82.364 480.909,89.486 480.909,98.273 C480.909,101.693 479.573,104.899 477.19,107.044 C473.851,110.376 472.155,113.089 471.425,116.74 C471.081,118.463 472.198,120.139 473.921,120.484 C475.645,120.828 477.321,119.711 477.665,117.988 Z" />
            <path d="M455.455,133.273 L474.545,133.273 C476.303,133.273 477.727,131.848 477.727,130.091 C477.727,128.334 476.303,126.909 474.545,126.909 L455.455,126.909 C453.697,126.909 452.273,128.334 452.273,130.091 C452.273,131.848 453.697,133.273 455.455,133.273 Z" />
            <path d="M458.636,146 L471.364,146 C473.121,146 474.545,144.575 474.545,142.818 C474.545,141.061 473.121,139.636 471.364,139.636 L458.636,139.636 C456.879,139.636 455.455,141.061 455.455,142.818 C455.455,144.575 456.879,146 458.636,146 Z" />
        </g>
        <g id="Black-S">
            <path d="M677.665,117.988 C678.115,115.742 679.164,114.063 681.568,111.659 C685.215,108.383 687.273,103.444 687.273,98.273 C687.273,85.972 677.301,76 665,76 C652.699,76 642.727,85.972 642.727,98.273 C642.727,103.282 644.242,107.469 648.432,111.659 C650.652,113.879 651.907,115.852 652.335,117.988 C652.679,119.711 654.355,120.828 656.079,120.484 C657.802,120.139 658.919,118.463 658.575,116.74 C657.862,113.175 655.961,110.189 652.932,107.159 C650.016,104.244 649.091,101.686 649.091,98.273 C649.091,89.486 656.214,82.364 665,82.364 C673.786,82.364 680.909,89.486 680.909,98.273 C680.909,101.693 679.573,104.899 677.19,107.044 C673.851,110.376 672.155,113.089 671.425,116.74 C671.081,118.463 672.198,120.139 673.921,120.484 C675.645,120.828 677.321,119.711 677.665,117.988 Z" />
            <path d="M655.455,133.273 L674.545,133.273 C676.303,133.273 677.727,131.848 677.727,130.091 C677.727,128.334 676.303,126.909 674.545,126.909 L655.455,126.909 C653.697,126.909 652.273,128.334 652.273,130.091 C652.273,131.848 653.697,133.273 655.455,133.273 Z" />
            <path d="M658.636,146 L671.364,146 C673.121,146 674.545,144.575 674.545,142.818 C674.545,141.061 673.121,139.636 671.364,139.636 L658.636,139.636 C656.879,139.636 655.455,141.061 655.455,142.818 C655.455,144.575 656.879,146 658.636,146 Z" />
        </g>
    </g>
</svg>