<?xml version="1.0" encoding="UTF-8"?>
<svg height="600" width="800" xmlns="http://www.w3.org/2000/svg" xmlns:xlink="http://www.w3.org/1999/xlink">
    <g id="Notes" font-family="'LucidaGrande', 'Lucida Grande', sans-serif" font-size="13">
        <rect fill="white" height="600.0" width="800.0" x="0.0" y="0.0" />
        <g font-size="13">
            <text x="18.0" y="176.0">Small</text>
            <text x="18.0" y="376.0">Medium</text>
            <text x="18.0" y="576.0">Large</text>
        </g>
        <g font-size="9">
            <text x="250.0" y="30.0">Ultralight</text>
            <text x="450.0" y="30.0">Regular</text>
            <text x="650.0" y="30.0">Black</text>
            <text id="template-version" fill="#505050" text-anchor="end" x="785.0" y="575.0">Template v.3.0</text>
            <a href="https://github.com/swhitty/SwiftDraw">
                <text fill="#505050" text-anchor="end" x="785.0" y="590.0">https://github.com/swhitty/SwiftDraw</text>
            </a>
        </g>
    </g>
    <g id="Guides" stroke="rgb(39, 170, 225)" stroke-width="0.5">
        <path id="Capline-S" d="M18,76 l800,0" />
        <path id="H-reference" d="M85,145.755 L87.685,145.755 L113.369,79.287 L114.052,79.287 L114.052,76 L112.148,76 L85,145.755 Z M95.693,121.536 L130.996,121.536 L130.263,119.313 L96.474,119.313 L95.693,121.536 Z M139.15,145.755 L141.787,145.755 L114.638,76 L113.466,76 L113.466,79.287 L139.15,145.755 Z" stroke="none" />
        <path id="Baseline-S" d="M18,146 l800,0" />
        <path id="left-margin-Ultralight-S" d="M220,56 l0,110" />
        <path id="right-margin-Ultralight-S" d="M310,56 l0,110" />
        <path id="left-margin-Regular-S" d="M420,56 l0,110" />
        <path id="right-margin-Regular-S" d="M510,56 l0,110" />
        <path id="left-margin-Black-S" d="M620,56 l0,110" />
        <path id="right-margin-Black-S" d="M710,56 l0,110" />
        <path id="Capline-M" d="M18,276 l800,0" />
        <path id="Baseline-M" d="M18,346 l800,0" />
        <path id="Capline-L" d="M18,476 l800,0" />
        <path id="Baseline-L" d="M18,546 l800,0" />
    </g>
    <g id="Symbols">
        <g id="Ultralight-S">
            <path d="M247.5,79.5 L247.5,90 C247.5,90.928 247.131,91.818 246.475,92.475 C245.818,93.131 244.928,93.5 244,93.5 L233.5,93.5 C231.567,93.5 230,95.067 230,97 C230,98.933 231.567,100.5 233.5,100.5 L244,100.5 C246.785,100.5 249.455,99.394 251.425,97.425 C253.394,95.455 254.5,92.785 254.5,90 L254.5,79.5 C254.5,77.567 252.933,76 251,76 C249.067,76 247.5,77.567 247.5,79.5 Z" />
            <path d="M296.5,93.5 L286,93.5 C285.072,93.5 284.182,93.131 283.525,92.475 C282.869,91.818 282.5,90.928 282.5,90 L282.5,79.5 C282.5,77.567 280.933,76 279,76 C277.067,76 275.5,77.567 275.5,79.5 L275.5,90 C275.5,92.785 276.606,95.455 278.575,97.425 C280.544,99.394 283.215,100.5 286,100.5 L296.5,100.5 C298.433,100.5 300,98.933 300,97 C300,95.067 298.433,93.5 296.5,93.5 Z" />
            <path d="M233.5,128.5 L244,128.5 C244.928,128.5 245.818,128.869 246.475,129.525 C247.131,130.182 247.5,131.072 247.5,132 L247.5,142.5 C247.5,144.433 249.067,146 251,146 C252.933,146 254.5,144.433 254.5,142.5 L254.5,132 C254.5,129.215 253.394,126.545 251.425,124.575 C249.455,122.606 246.785,121.5 244,121.5 L233.5,121.5 C231.567,121.5 230,123.067 230,125 C230,126.933 231.567,128.5 233.5,128.5 Z" />
            <path d="M282.5,142.5 L282.5,132 C282.5,131.072 282.869,130.182 283.525,129.525 C284.182,128.869 285.072,128.5 286,128.5 L296.5,128.5 C298.433,128.5 300,126.933 300,125 C300,123.067 298.433,121.5 296.5,121.5 L286,121.5 C283.215,121.5 280.545,122.606 278.575,124.575 C276.606,126.545 275.5,129.215 275.5,132 L275.5,142.5 C275.5,144.433 277.067,146 279,146 C280.933,146 282.5,144.433 282.5,142.5 Z" />
        </g>
        <g id="Regular-S">
            <path d="M447.5,79.5 L447.5,90 C447.5,90.928 447.131,91.818 446.475,92.475 C445.818,93.131 444.928,93.5 444,93.5 L433.5,93.5 C431.567,93.5 430,95.067 430,97 C430,98.933 431.567,100.5 433.5,100.5 L444,100.5 C446.785,100.5 449.455,99.394 451.425,97.425 C453.394,95.455 454.5,92.785 454.5,90 L454.5,79.5 C454.5,77.567 452.933,76 451,76 C449.067,76 447.5,77.567 447.5,79.5 Z" />
            <path d="M496.5,93.5 L486,93.5 C485.072,93.5 484.182,93.131 483.525,92.475 C482.869,91.818 482.5,90.928 482.5,90 L482.5,79.5 C482.5,77.567 480.933,76 479,76 C477.067,76 475.5,77.567 475.5,79.5 L475.5,90 C475.5,92.785 476.606,95.455 478.575,97.425 C480.544,99.394 483.215,100.5 486,100.5 L496.5,100.5 C498.433,100.5 500,98.933 500,97 C500,95.067 498.433,93.5 496.5,93.5 Z" />
            <path d="M433.5,128.5 L444,128.5 C444.928,128.5 445.818,128.869 446.475,129.525 C447.131,130.182 447.5,131.072 447.5,132 L447.5,142.5 C447.5,144.433 449.067,146 451,146 C452.933,146 454.5,144.433 454.5,142.5 L454.5,132 C454.5,129.215 453.394,126.545 451.425,124.575 C449.455,122.606 446.785,121.5 444,121.5 L433.5,121.5 C431.567,121.5 430,123.067 430,125 C430,126.933 431.567,128.5 433.5,128.5 Z" />
            <path d="M482.5,142.5 L482.5,132 C482.5,131.072 482.869,130.182 483.525,129.525 C484.182,128.869 485.072,128.5 486,128.5 L496.5,128.5 C498.433,128.5 500,126.933 500,125 C500,123.067 498.433,121.5 496.5,121.5 L486,121.5 C483.215,121.5 480.545,122.606 478.575,124.575 C476.606,126.545 475.5,129.215 475.5,132 L475.5,142.5 C475.5,144.433 477.067,146 479,146 C480.933,146 482.5,144.433 482.5,142.5 Z" />
        </g>
        <g id="Black-S">
            <path d="M647.5,79.5 L647.5,90 C647.5,90.928 647.131,91.818 646.475,92.475 C645.818,93.131 644.928,93.5 644,93.5 L633.5,93.5 C631.567,93.5 630,95.067 630,97 C630,98.933 631.567,100.5 633.5,100.5 L644,100.5 C646.785,100.5 649.456,99.394 651.425,97.425 C653.394,95.455 654.5,92.785 654.5,90 L654.5,79.5 C654.5,77.567 652.933,76 651,76 C649.067,76 647.5,77.567 647.5,79.5 Z" />
            <path d="M696.5,93.5 L686,93.5 C685.072,93.5 684.182,93.131 683.525,92.475 C682.869,91.818 682.5,90.928 682.5,90 L682.5,79.5 C682.5,77.567 680.933,76 679,76 C677.067,76 675.5,77.567 675.5,79.5 L675.5,90 C675.5,92.785 676.606,95.455 678.575,97.425 C680.544,99.394 683.215,100.5 686,100.5 L696.5,100.5 C698.433,100.5 700,98.933 700,97 C700,95.067 698.433,93.5 696.5,93.5 Z" />
            <path d="M633.5,128.5 L644,128.5 C644.928,128.5 645.818,128.869 646.475,129.525 C647.131,130.182 647.5,131.072 647.5,132 L647.5,142.5 C647.5,144.433 649.067,146 651,146 C652.933,146 654.5,144.433 654.5,142.5 L654.5,132 C654.5,129.215 653.394,126.545 651.425,124.575 C649.456,122.606 646.785,121.5 644,121.5 L633.5,121.5 C631.567,121.5 630,123.067 630,125 C630,126.933 631.567,128.5 633.5,128.5 Z" />
            <path d="M682.5,142.5 L682.5,132 C682.5,131.072 682.869,130.182 683.525,129.525 C684.182,128.869 685.072,128.5 686,128.5 L696.5,128.5 C698.433,128.5 700,126.933 700,125 C700,123.067 698.433,121.5 696.5,121.5 L686,121.5 C683.215,121.5 680.544,122.606 678.575,124.575 C676.606,126.545 675.5,129.215 675.5,132 L675.5,142.5 C675.5,144.433 677.067,146 679,146 C680.933,146 682.5,144.433 682.5,142.5 Z" />
        </g>
    </g>
</svg>