<?xml version="1.0" encoding="UTF-8"?>
<svg height="600" width="800" xmlns="http://www.w3.org/2000/svg" xmlns:xlink="http://www.w3.org/1999/xlink">
    <g id="Notes" font-family="'LucidaGrande', 'Lucida Grande', sans-serif" font-size="13">
        <rect fill="white" height="600.0" width="800.0" x="0.0" y="0.0" />
        <g font-size="13">
            <text x="18.0" y="176.0">Small</text>
            <text x="18.0" y="376.0">Medium</text>
            <text x="18.0" y="576.0">Large</text>
        </g>
        <g font-size="9">
            <text x="250.0" y="30.0">Ultralight</text>
            <text x="450.0" y="30.0">Regular</text>
            <text x="650.0" y="30.0">Black</text>
            <text id="template-version" fill="#505050" text-anchor="end" x="785.0" y="575.0">Template v.3.0</text>
            <a href="https://github.com/swhitty/SwiftDraw">
                <text fill="#505050" text-anchor="end" x="785.0" y="590.0">https://github.com/swhitty/SwiftDraw</text>
            </a>
        </g>
    </g>
    <g id="Guides" stroke="rgb(39, 170, 225)" stroke-width="0.5">
        <path id="Capline-S" d="M18,76 l800,0" />
        <path id="H-reference" d="M85,145.755 L87.685,145.755 L113.369,79.287 L114.052,79.287 L114.052,76 L112.148,76 L85,145.755 Z M95.693,121.536 L130.996,121.536 L130.263,119.313 L96.474,119.313 L95.693,121.536 Z M139.15,145.755 L141.787,145.755 L114.638,76 L113.466,76 L113.466,79.287 L139.15,145.755 Z" stroke="none" />
        <path id="Baseline-S" d="M18,146 l800,0" />
        <path id="left-margin-Ultralight-S" d="M220,56 l0,110" />
        <path id="right-margin-Ultralight-S" d="M310,56 l0,110" />
        <path id="left-margin-Regular-S" d="M420,56 l0,110" />
        <path id="right-margin-Regular-S" d="M510,56 l0,110" />
        <path id="left-margin-Black-S" d="M620,56 l0,110" />
        <path id="right-margin-Black-S" d="M710,56 l0,110" />
        <path id="Capline-M" d="M18,276 l800,0" />
        <path id="Baseline-M" d="M18,346 l800,0" />
        <path id="Capline-L" d="M18,476 l800,0" />
        <path id="Baseline-L" d="M18,546 l800,0" />
    </g>
    <g id="Symbols">
        <g id="Ultralight-S">
            <path d="M236.364,111 C236.364,95.185 249.185,82.364 265,82.364 C280.815,82.364 293.636,95.185 293.636,111 C293.636,126.815 280.815,139.636 265,139.636 C249.185,139.636 236.364,126.815 236.364,111 Z M230,111 C230,130.33 245.67,146 265,146 C284.33,146 300,130.33 300,111 C300,91.67 284.33,76 265,76 C245.67,76 230,91.67 230,111 Z" />
            <path d="M268.182,123.727 L268.182,111 C268.182,109.243 266.757,107.818 265,107.818 C263.243,107.818 261.818,109.243 261.818,111 L261.818,123.727 C261.818,125.485 263.243,126.909 265,126.909 C266.757,126.909 268.182,125.485 268.182,123.727 Z" />
            <path d="M265,101.455 L265.032,101.455 C266.789,101.455 268.214,100.03 268.214,98.273 C268.214,96.515 266.789,95.091 265.032,95.091 L265,95.091 C263.243,95.091 261.818,96.515 261.818,98.273 C261.818,100.03 263.243,101.455 265,101.455 Z" />
        </g>
        <g id="Regular-S">
            <path d="M436.364,111 C436.364,95.185 449.185,82.364 465,82.364 C480.815,82.364 493.636,95.185 493.636,111 C493.636,126.815 480.815,139.636 465,139.636 C449.185,139.636 436.364,126.815 436.364,111 Z M430,111 C430,130.33 445.67,146 465,146 C484.33,146 500,130.33 500,111 C500,91.67 484.33,76 465,76 C445.67,76 430,91.67 430,111 Z" />
            <path d="M468.182,123.727 L468.182,111 C468.182,109.243 466.757,107.818 465,107.818 C463.243,107.818 461.818,109.243 461.818,111 L461.818,123.727 C461.818,125.485 463.243,126.909 465,126.909 C466.757,126.909 468.182,125.485 468.182,123.727 Z" />
            <path d="M465,101.455 L465.032,101.455 C466.789,101.455 468.214,100.03 468.214,98.273 C468.214,96.515 466.789,95.091 465.032,95.091 L465,95.091 C463.243,95.091 461.818,96.515 461.818,98.273 C461.818,100.03 463.243,101.455 465,101.455 Z" />
        </g>
        <g id="Black-S">
            <path d="M636.364,111 C636.364,95.185 649.185,82.364 665,82.364 C680.815,82.364 693.636,95.185 693.636,111 C693.636,126.815 680.815,139.636 665,139.636 C649.185,139.636 636.364,126.815 636.364,111 Z M630,111 C630,130.33 645.67,146 665,146 C684.33,146 700,130.33 700,111 C700,91.67 684.33,76 665,76 C645.67,76 630,91.67 630,111 Z" />
            <path d="M668.182,123.727 L668.182,111 C668.182,109.243 666.757,107.818 665,107.818 C663.243,107.818 661.818,109.243 661.818,111 L661.818,123.727 C661.818,125.485 663.243,126.909 665,126.909 C666.757,126.909 668.182,125.485 668.182,123.727 Z" />
            <path d="M665,101.455 L665.032,101.455 C666.789,101.455 668.214,100.03 668.214,98.273 C668.214,96.515 666.789,95.091 665.032,95.091 L665,95.091 C663.243,95.091 661.818,96.515 661.818,98.273 C661.818,100.03 663.243,101.455 665,101.455 Z" />
        </g>
    </g>
</svg>