<?xml version="1.0" encoding="UTF-8"?>
<svg height="600" width="800" xmlns="http://www.w3.org/2000/svg" xmlns:xlink="http://www.w3.org/1999/xlink">
    <g id="Notes" font-family="'LucidaGrande', 'Lucida Grande', sans-serif" font-size="13">
        <rect fill="white" height="600.0" width="800.0" x="0.0" y="0.0" />
        <g font-size="13">
            <text x="18.0" y="176.0">Small</text>
            <text x="18.0" y="376.0">Medium</text>
            <text x="18.0" y="576.0">Large</text>
        </g>
        <g font-size="9">
            <text x="250.0" y="30.0">Ultralight</text>
            <text x="450.0" y="30.0">Regular</text>
            <text x="650.0" y="30.0">Black</text>
            <text id="template-version" fill="#505050" text-anchor="end" x="785.0" y="575.0">Template v.3.0</text>
            <a href="https://github.com/swhitty/SwiftDraw">
                <text fill="#505050" text-anchor="end" x="785.0" y="590.0">https://github.com/swhitty/SwiftDraw</text>
            </a>
        </g>
    </g>
    <g id="Guides" stroke="rgb(39, 170, 225)" stroke-width="0.5">
        <path id="Capline-S" d="M18,76 l800,0" />
        <path id="H-reference" d="M85,145.755 L87.685,145.755 L113.369,79.287 L114.052,79.287 L114.052,76 L112.148,76 L85,145.755 Z M95.693,121.536 L130.996,121.536 L130.263,119.313 L96.474,119.313 L95.693,121.536 Z M139.15,145.755 L141.787,145.755 L114.638,76 L113.466,76 L113.466,79.287 L139.15,145.755 Z" stroke="none" />
        <path id="Baseline-S" d="M18,146 l800,0" />
        <path id="left-margin-Ultralight-S" d="M218.368,56 l0,110" />
        <path id="right-margin-Ultralight-S" d="M311.632,56 l0,110" />
        <path id="left-margin-Regular-S" d="M418.368,56 l0,110" />
        <path id="right-margin-Regular-S" d="M511.632,56 l0,110" />
        <path id="left-margin-Black-S" d="M618.368,56 l0,110" />
        <path id="right-margin-Black-S" d="M711.632,56 l0,110" />
        <path id="Capline-M" d="M18,276 l800,0" />
        <path id="Baseline-M" d="M18,346 l800,0" />
        <path id="Capline-L" d="M18,476 l800,0" />
        <path id="Baseline-L" d="M18,546 l800,0" />
    </g>
    <g id="Symbols">
        <g id="Ultralight-S">
            <path d="M262.014,80.804 L272.303,101.648 C272.788,102.63 273.724,103.311 274.808,103.469 L297.817,106.832 L295.975,101.152 L279.326,117.368 C278.54,118.133 278.182,119.236 278.367,120.317 L282.296,143.226 L287.128,139.716 L266.55,128.894 C265.58,128.384 264.42,128.384 263.45,128.894 L242.872,139.716 L247.704,143.226 L251.633,120.317 C251.818,119.236 251.46,118.133 250.674,117.368 L234.025,101.152 L232.183,106.832 L255.192,103.469 C256.276,103.311 257.212,102.63 257.697,101.648 L267.986,80.804 L262.014,80.804 Z M267.986,77.856 C266.764,75.381 263.236,75.381 262.014,77.856 L251.725,98.701 L254.229,96.88 L231.22,100.243 C228.49,100.642 227.402,103.998 229.379,105.923 L246.028,122.139 L245.069,119.191 L241.14,142.1 C240.673,144.82 243.529,146.895 245.972,145.61 L266.55,134.788 L263.45,134.788 L284.028,145.61 C286.471,146.895 289.327,144.82 288.86,142.1 L284.931,119.191 L283.972,122.139 L300.621,105.923 C302.598,103.998 301.51,100.642 298.78,100.243 L275.771,96.88 L278.275,98.701 L267.986,77.856 Z" />
        </g>
        <g id="Regular-S">
            <path d="M462.014,80.804 L472.303,101.648 C472.788,102.63 473.724,103.311 474.808,103.469 L497.817,106.832 L495.975,101.152 L479.326,117.368 C478.54,118.133 478.182,119.236 478.367,120.317 L482.296,143.226 L487.128,139.716 L466.55,128.894 C465.58,128.384 464.42,128.384 463.45,128.894 L442.872,139.716 L447.704,143.226 L451.633,120.317 C451.818,119.236 451.46,118.133 450.674,117.368 L434.025,101.152 L432.184,106.832 L455.192,103.469 C456.276,103.311 457.212,102.63 457.697,101.648 L467.986,80.804 L462.014,80.804 Z M467.986,77.856 C466.764,75.381 463.236,75.381 462.014,77.856 L451.725,98.701 L454.229,96.88 L431.22,100.243 C428.49,100.642 427.402,103.998 429.379,105.923 L446.028,122.139 L445.069,119.191 L441.14,142.1 C440.673,144.82 443.529,146.895 445.972,145.61 L466.55,134.788 L463.45,134.788 L484.028,145.61 C486.471,146.895 489.327,144.82 488.86,142.1 L484.931,119.191 L483.972,122.139 L500.621,105.923 C502.598,103.998 501.51,100.642 498.78,100.243 L475.771,96.88 L478.275,98.701 L467.986,77.856 Z" />
        </g>
        <g id="Black-S">
            <path d="M662.014,80.804 L672.303,101.648 C672.788,102.63 673.724,103.311 674.808,103.469 L697.817,106.832 L695.975,101.152 L679.326,117.368 C678.54,118.133 678.182,119.236 678.367,120.317 L682.296,143.226 L687.128,139.716 L666.55,128.894 C665.58,128.384 664.42,128.384 663.45,128.894 L642.872,139.716 L647.704,143.226 L651.633,120.317 C651.818,119.236 651.46,118.133 650.674,117.368 L634.025,101.152 L632.183,106.832 L655.193,103.469 C656.276,103.311 657.212,102.63 657.697,101.648 L667.986,80.804 L662.014,80.804 Z M667.986,77.856 C666.764,75.381 663.236,75.381 662.014,77.856 L651.725,98.701 L654.229,96.88 L631.22,100.243 C628.49,100.642 627.402,103.998 629.379,105.923 L646.028,122.139 L645.069,119.191 L641.14,142.1 C640.673,144.82 643.529,146.895 645.972,145.61 L666.55,134.788 L663.45,134.788 L684.028,145.61 C686.471,146.895 689.327,144.82 688.86,142.1 L684.931,119.191 L683.972,122.139 L700.621,105.923 C702.598,103.998 701.51,100.642 698.78,100.243 L675.771,96.88 L678.275,98.701 L667.986,77.856 Z" />
        </g>
    </g>
</svg>