<?xml version="1.0" encoding="UTF-8"?>
<svg height="600" width="800" xmlns="http://www.w3.org/2000/svg" xmlns:xlink="http://www.w3.org/1999/xlink">
    <g id="Notes" font-family="'LucidaGrande', 'Lucida Grande', sans-serif" font-size="13">
        <rect fill="white" height="600.0" width="800.0" x="0.0" y="0.0" />
        <g font-size="13">
            <text x="18.0" y="176.0">Small</text>
            <text x="18.0" y="376.0">Medium</text>
            <text x="18.0" y="576.0">Large</text>
        </g>
        <g font-size="9">
            <text x="250.0" y="30.0">Ultralight</text>
            <text x="450.0" y="30.0">Regular</text>
            <text x="650.0" y="30.0">Black</text>
            <text id="template-version" fill="#505050" text-anchor="end" x="785.0" y="575.0">Template v.3.0</text>
            <a href="https://github.com/swhitty/SwiftDraw">
                <text fill="#505050" text-anchor="end" x="785.0" y="590.0">https://github.com/swhitty/SwiftDraw</text>
            </a>
        </g>
    </g>
    <g id="Guides" stroke="rgb(39, 170, 225)" stroke-width="0.5">
        <path id="Capline-S" d="M18,76 l800,0" />
        <path id="H-reference" d="M85,145.755 L87.685,145.755 L113.369,79.287 L114.052,79.287 L114.052,76 L112.148,76 L85,145.755 Z M95.693,121.536 L130.996,121.536 L130.263,119.313 L96.474,119.313 L95.693,121.536 Z M139.15,145.755 L141.787,145.755 L114.638,76 L113.466,76 L113.466,79.287 L139.15,145.755 Z" stroke="none" />
        <path id="Baseline-S" d="M18,146 l800,0" />
        <path id="left-margin-Ultralight-S" d="M220,56 l0,110" />
        <path id="right-margin-Ultralight-S" d="M310,56 l0,110" />
        <path id="left-margin-Regular-S" d="M420,56 l0,110" />
        <path id="right-margin-Regular-S" d="M510,56 l0,110" />
        <path id="left-margin-Black-S" d="M620,56 l0,110" />
        <path id="right-margin-Black-S" d="M710,56 l0,110" />
        <path id="Capline-M" d="M18,276 l800,0" />
        <path id="Baseline-M" d="M18,346 l800,0" />
        <path id="Capline-L" d="M18,476 l800,0" />
        <path id="Baseline-L" d="M18,546 l800,0" />
    </g>
    <g id="Symbols">
        <g id="Ultralight-S">
            <path d="M237,107.5 C237,93.969 247.969,83 261.5,83 C275.031,83 286,93.969 286,107.5 C286,121.031 275.031,132 261.5,132 C247.969,132 237,121.031 237,107.5 Z M230,107.5 C230,124.897 244.103,139 261.5,139 C278.897,139 293,124.897 293,107.5 C293,90.103 278.897,76 261.5,76 C244.103,76 230,90.103 230,107.5 Z" />
            <path d="M298.975,140.025 L283.925,124.975 C282.558,123.608 280.342,123.608 278.975,124.975 C277.608,126.342 277.608,128.558 278.975,129.925 L294.025,144.975 C295.392,146.342 297.608,146.342 298.975,144.975 C300.342,143.608 300.342,141.392 298.975,140.025 Z" />
        </g>
        <g id="Regular-S">
            <path d="M437,107.5 C437,93.969 447.969,83 461.5,83 C475.031,83 486,93.969 486,107.5 C486,121.031 475.031,132 461.5,132 C447.969,132 437,121.031 437,107.5 Z M430,107.5 C430,124.897 444.103,139 461.5,139 C478.897,139 493,124.897 493,107.5 C493,90.103 478.897,76 461.5,76 C444.103,76 430,90.103 430,107.5 Z" />
            <path d="M498.975,140.025 L483.925,124.975 C482.558,123.608 480.342,123.608 478.975,124.975 C477.608,126.342 477.608,128.558 478.975,129.925 L494.025,144.975 C495.392,146.342 497.608,146.342 498.975,144.975 C500.342,143.608 500.342,141.392 498.975,140.025 Z" />
        </g>
        <g id="Black-S">
            <path d="M637,107.5 C637,93.969 647.969,83 661.5,83 C675.031,83 686,93.969 686,107.5 C686,121.031 675.031,132 661.5,132 C647.969,132 637,121.031 637,107.5 Z M630,107.5 C630,124.897 644.103,139 661.5,139 C678.897,139 693,124.897 693,107.5 C693,90.103 678.897,76 661.5,76 C644.103,76 630,90.103 630,107.5 Z" />
            <path d="M698.975,140.025 L683.925,124.975 C682.558,123.608 680.342,123.608 678.975,124.975 C677.608,126.342 677.608,128.558 678.975,129.925 L694.025,144.975 C695.392,146.342 697.608,146.342 698.975,144.975 C700.342,143.608 700.342,141.392 698.975,140.025 Z" />
        </g>
    </g>
</svg>