<?xml version="1.0" encoding="UTF-8"?>
<svg height="600" width="800" xmlns="http://www.w3.org/2000/svg" xmlns:xlink="http://www.w3.org/1999/xlink">
    <g id="Notes" font-family="'LucidaGrande', 'Lucida Grande', sans-serif" font-size="13">
        <rect fill="white" height="600.0" width="800.0" x="0.0" y="0.0" />
        <g font-size="13">
            <text x="18.0" y="176.0">Small</text>
            <text x="18.0" y="376.0">Medium</text>
            <text x="18.0" y="576.0">Large</text>
        </g>
        <g font-size="9">
            <text x="250.0" y="30.0">Ultralight</text>
            <text x="450.0" y="30.0">Regular</text>
            <text x="650.0" y="30.0">Black</text>
            <text id="template-version" fill="#505050" text-anchor="end" x="785.0" y="575.0">Template v.3.0</text>
            <a href="https://github.com/swhitty/SwiftDraw">
                <text fill="#505050" text-anchor="end" x="785.0" y="590.0">https://github.com/swhitty/SwiftDraw</text>
            </a>
        </g>
    </g>
    <g id="Guides" stroke="rgb(39, 170, 225)" stroke-width="0.5">
        <path id="Capline-S" d="M18,76 l800,0" />
        <path id="H-reference" d="M85,145.755 L87.685,145.755 L113.369,79.287 L114.052,79.287 L114.052,76 L112.148,76 L85,145.755 Z M95.693,121.536 L130.996,121.536 L130.263,119.313 L96.474,119.313 L95.693,121.536 Z M139.15,145.755 L141.787,145.755 L114.638,76 L113.466,76 L113.466,79.287 L139.15,145.755 Z" stroke="none" />
        <path id="Baseline-S" d="M18,146 l800,0" />
        <path id="left-margin-Ultralight-S" d="M216.5,56 l0,110" />
        <path id="right-margin-Ultralight-S" d="M313.5,56 l0,110" />
        <path id="left-margin-Regular-S" d="M416.5,56 l0,110" />
        <path id="right-margin-Regular-S" d="M513.5,56 l0,110" />
        <path id="left-margin-Black-S" d="M616.5,56 l0,110" />
        <path id="right-margin-Black-S" d="M713.5,56 l0,110" />
        <path id="Capline-M" d="M18,276 l800,0" />
        <path id="Baseline-M" d="M18,346 l800,0" />
        <path id="Capline-L" d="M18,476 l800,0" />
        <path id="Baseline-L" d="M18,546 l800,0" />
    </g>
    <g id="Symbols">
        <g id="Ultralight-S">
            <path d="M291.95,120.5 C299.669,112.936 303.5,106.777 303.5,98.75 C303.5,92.716 301.103,86.93 296.837,82.663 C292.57,78.397 286.784,76 280.75,76 C273.477,76 268.292,78.258 262.525,84.025 L267.475,84.025 C261.708,78.258 256.523,76 249.25,76 C243.216,76 237.43,78.397 233.163,82.663 C228.897,86.93 226.5,92.716 226.5,98.75 C226.5,106.831 230.385,113.09 238.067,120.516 L262.525,144.975 C263.892,146.342 266.108,146.342 267.475,144.975 L291.975,120.475 Z M287.025,115.525 L262.525,140.025 L267.475,140.025 L242.975,115.525 C236.495,109.26 233.5,104.436 233.5,98.75 C233.5,94.573 235.159,90.567 238.113,87.613 C241.067,84.659 245.073,83 249.25,83 C254.619,83 258.04,84.49 262.525,88.975 C263.892,90.342 266.108,90.342 267.475,88.975 C271.96,84.49 275.381,83 280.75,83 C284.927,83 288.933,84.659 291.887,87.613 C294.841,90.567 296.5,94.573 296.5,98.75 C296.5,104.382 293.538,109.143 287.05,115.5 Z" />
            <path d="M262.525,84.025 L252.165,94.385 C250.076,96.459 248.896,99.293 248.896,102.25 C248.896,105.207 250.076,108.041 252.174,110.124 C256.353,114.303 263.051,114.458 267.476,110.491 L274.752,103.813 C277.165,101.624 280.87,101.624 283.298,103.827 L293.671,113.148 C295.108,114.44 297.321,114.322 298.613,112.884 C299.905,111.447 299.787,109.234 298.349,107.942 L287.989,98.632 C282.905,94.018 275.13,94.018 270.033,98.643 L262.773,105.307 C261.137,106.773 258.665,106.716 257.115,105.165 C256.331,104.387 255.896,103.341 255.896,102.25 C255.896,101.159 256.331,100.113 257.106,99.344 L267.475,88.975 C268.842,87.608 268.842,85.392 267.475,84.025 C266.108,82.658 263.892,82.658 262.525,84.025 Z" />
            <path d="M288.475,119.025 L281.475,112.025 C280.108,110.658 277.892,110.658 276.525,112.025 C275.158,113.392 275.158,115.608 276.525,116.975 L283.525,123.975 C284.892,125.342 287.108,125.342 288.475,123.975 C289.842,122.608 289.842,120.392 288.475,119.025 Z" />
            <path d="M277.975,129.525 L270.975,122.525 C269.608,121.158 267.392,121.158 266.025,122.525 C264.658,123.892 264.658,126.108 266.025,127.475 L273.025,134.475 C274.392,135.842 276.608,135.842 277.975,134.475 C279.342,133.108 279.342,130.892 277.975,129.525 Z" />
        </g>
        <g id="Regular-S">
            <path d="M491.95,120.5 C499.669,112.936 503.5,106.777 503.5,98.75 C503.5,92.716 501.103,86.93 496.837,82.663 C492.57,78.397 486.784,76 480.75,76 C473.477,76 468.292,78.258 462.525,84.025 L467.475,84.025 C461.708,78.258 456.523,76 449.25,76 C443.216,76 437.43,78.397 433.163,82.663 C428.897,86.93 426.5,92.716 426.5,98.75 C426.5,106.831 430.385,113.09 438.067,120.516 L462.525,144.975 C463.892,146.342 466.108,146.342 467.475,144.975 L491.975,120.475 Z M487.025,115.525 L462.525,140.025 L467.475,140.025 L442.975,115.525 C436.495,109.26 433.5,104.436 433.5,98.75 C433.5,94.573 435.159,90.567 438.113,87.613 C441.067,84.659 445.073,83 449.25,83 C454.619,83 458.04,84.49 462.525,88.975 C463.892,90.342 466.108,90.342 467.475,88.975 C471.96,84.49 475.381,83 480.75,83 C484.927,83 488.933,84.659 491.887,87.613 C494.841,90.567 496.5,94.573 496.5,98.75 C496.5,104.382 493.538,109.143 487.05,115.5 Z" />
            <path d="M462.525,84.025 L452.165,94.385 C450.076,96.459 448.896,99.293 448.896,102.25 C448.896,105.207 450.076,108.041 452.174,110.124 C456.353,114.303 463.051,114.458 467.476,110.491 L474.752,103.813 C477.165,101.624 480.87,101.624 483.298,103.827 L493.671,113.148 C495.108,114.44 497.321,114.322 498.613,112.884 C499.905,111.447 499.787,109.234 498.349,107.942 L487.989,98.632 C482.905,94.018 475.13,94.018 470.033,98.643 L462.773,105.307 C461.137,106.773 458.665,106.716 457.115,105.165 C456.331,104.387 455.896,103.341 455.896,102.25 C455.896,101.159 456.331,100.113 457.106,99.344 L467.475,88.975 C468.842,87.608 468.842,85.392 467.475,84.025 C466.108,82.658 463.892,82.658 462.525,84.025 Z" />
            <path d="M488.475,119.025 L481.475,112.025 C480.108,110.658 477.892,110.658 476.525,112.025 C475.158,113.392 475.158,115.608 476.525,116.975 L483.525,123.975 C484.892,125.342 487.108,125.342 488.475,123.975 C489.842,122.608 489.842,120.392 488.475,119.025 Z" />
            <path d="M477.975,129.525 L470.975,122.525 C469.608,121.158 467.392,121.158 466.025,122.525 C464.658,123.892 464.658,126.108 466.025,127.475 L473.025,134.475 C474.392,135.842 476.608,135.842 477.975,134.475 C479.342,133.108 479.342,130.892 477.975,129.525 Z" />
        </g>
        <g id="Black-S">
            <path d="M691.95,120.5 C699.669,112.936 703.5,106.777 703.5,98.75 C703.5,92.716 701.103,86.93 696.837,82.663 C692.57,78.397 686.784,76 680.75,76 C673.477,76 668.292,78.258 662.525,84.025 L667.475,84.025 C661.708,78.258 656.523,76 649.25,76 C643.216,76 637.43,78.397 633.163,82.663 C628.897,86.93 626.5,92.716 626.5,98.75 C626.5,106.831 630.385,113.09 638.067,120.516 L662.525,144.975 C663.892,146.342 666.108,146.342 667.475,144.975 L691.975,120.475 Z M687.025,115.525 L662.525,140.025 L667.475,140.025 L642.975,115.525 C636.495,109.26 633.5,104.436 633.5,98.75 C633.5,94.573 635.159,90.567 638.113,87.613 C641.067,84.659 645.073,83 649.25,83 C654.619,83 658.04,84.49 662.525,88.975 C663.892,90.342 666.108,90.342 667.475,88.975 C671.96,84.49 675.381,83 680.75,83 C684.927,83 688.933,84.659 691.887,87.613 C694.841,90.567 696.5,94.573 696.5,98.75 C696.5,104.382 693.538,109.143 687.05,115.5 Z" />
            <path d="M662.525,84.025 L652.165,94.385 C650.076,96.459 648.896,99.293 648.896,102.25 C648.896,105.207 650.076,108.041 652.174,110.124 C656.353,114.303 663.051,114.458 667.476,110.491 L674.752,103.813 C677.165,101.624 680.87,101.624 683.298,103.827 L693.671,113.148 C695.108,114.44 697.321,114.322 698.613,112.884 C699.905,111.447 699.787,109.234 698.349,107.942 L687.989,98.632 C682.905,94.018 675.13,94.018 670.033,98.643 L662.773,105.307 C661.137,106.773 658.665,106.716 657.115,105.165 C656.331,104.387 655.896,103.341 655.896,102.25 C655.896,101.159 656.331,100.113 657.106,99.344 L667.475,88.975 C668.842,87.608 668.842,85.392 667.475,84.025 C666.108,82.658 663.892,82.658 662.525,84.025 Z" />
            <path d="M688.475,119.025 L681.475,112.025 C680.108,110.658 677.892,110.658 676.525,112.025 C675.158,113.392 675.158,115.608 676.525,116.975 L683.525,123.975 C684.892,125.342 687.108,125.342 688.475,123.975 C689.842,122.608 689.842,120.392 688.475,119.025 Z" />
            <path d="M677.975,129.525 L670.975,122.525 C669.608,121.158 667.392,121.158 666.025,122.525 C664.658,123.892 664.658,126.108 666.025,127.475 L673.025,134.475 C674.392,135.842 676.608,135.842 677.975,134.475 C679.342,133.108 679.342,130.892 677.975,129.525 Z" />
        </g>
    </g>
</svg>